<svg viewBox="0 0 1024 1024" version="1.1" xmlns="http://www.w3.org/2000/svg"><path d="M0 124.536v176.348h361.066V124.536H0z m345.39 160.67H15.676V140.214h329.712v144.992z" fill="#4A555F" /><path d="M33.968 158.504H327.1v108.414H33.968z" fill="#F58E6F" /><path d="M3.982 410.762v176.35h361.066v-176.35H3.982z m345.39 160.674H19.66V426.44h329.712v144.996z" fill="#4A555F" /><path d="M37.948 444.73H331.08v108.414H37.948z" fill="#F58E6F" /><path d="M3.982 696.988v176.35h361.066v-176.35H3.982z m345.39 160.674H19.66v-144.996h329.712v144.996z" fill="#4A555F" /><path d="M37.948 730.956H331.08v108.416H37.948z" fill="#FFD452" /><path d="M662.934 269.224v176.35H1024v-176.35H662.934z m345.39 160.672H678.61V284.9h329.712v144.996z" fill="#4A555F" /><path d="M696.902 303.192h293.134v108.416H696.902z" fill="#FFD452" /><path d="M662.934 552.298v176.35H1024v-176.35H662.934z m345.39 160.674H678.61v-144.996h329.712v144.996z" fill="#4A555F" /><path d="M696.902 586.266h293.134v108.416H696.902z" fill="#DFDFDF" /><path d="M176.676 29.992v102.382h15.678V45.67h642.568v190.722h15.678v-206.4z" fill="#4A555F" /><path d="M870.28 195.256l-27.394 29.486-26.118-29.362-11.712 10.422 37.58 42.24 39.132-42.116zM844.296 745.704l-39.128 42.112 11.488 10.672 27.392-29.484 26.12 29.358 11.712-10.42zM835.63 503.502h15.676v-15.676h-15.676v15.676z m0 31.354h15.676v-15.678h-15.676v15.678z m0-78.384v15.678h15.676v-15.678h-15.676zM176.676 962.35h15.676v-15.678h-15.676v15.678z m0-31.354h15.676v-15.676h-15.676v15.676z m0-47.03v15.678h15.676v-15.678h-15.676zM490.278 994.008h15.676v-15.676h-15.676v15.676z m-31.354 0h15.676v-15.676h-15.676v15.676z m-125.416 0h15.678v-15.676h-15.678v15.676z m94.062 0h15.676v-15.676h-15.676v15.676z m-62.708 0h15.676v-15.676h-15.676v15.676z m-188.122 0h15.678v-15.676H176.74v15.676z m31.354 0h15.676v-15.676h-15.676v15.676z m31.354 0h15.678v-15.676h-15.678v15.676z m62.708 0h15.676v-15.676h-15.676v15.676z m-31.354 0h15.678v-15.676h-15.678v15.676z m125.414 0h15.676v-15.676h-15.676v15.676z m344.892 0h15.678v-15.676h-15.678v15.676z m-31.354 0h15.676v-15.676h-15.676v15.676z m62.708 0h15.676v-15.676h-15.676v15.676z m-250.83 0h15.676v-15.676h-15.676v15.676z m313.538-15.678v15.676h15.676v-15.676h-15.676z m-31.354 15.678h15.676v-15.676h-15.676v15.676z m-219.476 0h15.678v-15.676h-15.678v15.676z m94.06 0h15.678v-15.676H678.4v15.676z m-125.414 0h15.676v-15.676h-15.676v15.676z m62.708 0h15.676v-15.676h-15.676v15.676z m31.352 0h15.678v-15.676h-15.678v15.676z" fill="#4A555F" /><path d="M835.63 929.8h15.676v-15.678h-15.676v15.678z m0 31.354h15.676v-15.676h-15.676v15.676z m0-62.708h15.676v-15.678h-15.676v15.678z m0-141.092v15.676h15.676v-15.676h-15.676z m0 109.738h15.676v-15.676h-15.676v15.676z m0-62.708h15.676v-15.676h-15.676v15.676z m0 31.354h15.676v-15.678h-15.676v15.678zM176.676 293.046h15.676v125.556h-15.676zM176.676 579.116h15.676v125.556h-15.676z" fill="#4A555F" /></svg>