<svg viewBox="0 0 1024 1024" version="1.1" xmlns="http://www.w3.org/2000/svg"><path d="M753.6 841.5V919c0 8.8-7.1 15.9-15.9 15.9H474c-8.8 0-15.9-7.1-15.9-15.9v-77.5c0-8.8 7.1-15.9 15.9-15.9h263.8c8.7 0.2 15.8 7.2 15.8 15.9z" fill="#369BF4" /><path d="M753.6 841.5V919c0 8.8-7.1 15.9-15.9 15.9H605.8V825.8h131.9c8.8 0 15.9 7 15.9 15.7z" fill="#068AED" /><path d="M798.8 444.9v155.8c0 3.7-0.5 7.3-1.5 10.7-3.9 29-15.3 55.7-32.1 78.1-24 31.9-37.6 70.3-37.6 110.2v8.2H481.2v-8.2c0-39.9-13.6-78.3-37.6-110.2-16.8-22.4-28.2-49.1-32.1-78.1-1-3.4-1.5-7-1.5-10.7V444.9c0-10.7 4.4-20.4 11.4-27.5 7.1-7.1 16.8-11.4 27.5-11.4 6.8 0 13.3 1.8 18.9 4.9v136.4c0 5.5 4.5 10 10 10s10-4.5 10-10V246.1c0-10.7 4.4-20.4 11.4-27.5s16.8-11.4 27.5-11.4c21.4 0 38.9 17.5 38.9 38.9v241.3c0 5.5 4.5 10 10 10s10-4.5 10-10V358.7c2.8-1.6 5.8-2.8 9-3.7 3.2-0.8 6.5-1.3 9.9-1.3h1.5c20.7 0.8 37.3 17.9 37.4 38.8v94.8c0 5.5 4.5 10 10 10s10-4.5 10-10V386.2c2.8-1.6 5.8-2.8 9-3.6 3.2-0.8 6.5-1.3 9.9-1.3 21.4 0 38.9 17.5 38.9 38.9v97.2c0 5.5 4.5 10 10 10s10-4.5 10-10V410.9c5.6-3.1 12-4.9 18.9-4.9 21.2 0.1 38.7 17.6 38.7 38.9z" fill="#FFE8E1" /><path d="M798.8 444.9v155.8c0 3.7-0.5 7.3-1.5 10.7-3.9 29-15.3 55.7-32.1 78.1-24 31.9-37.6 70.3-37.6 110.2v8.2H605.8v-454c20.7 0.8 37.3 17.9 37.4 38.8v94.8c0 5.5 4.5 10 10 10s10-4.5 10-10V386.2c2.8-1.6 5.8-2.8 9-3.6 3.2-0.8 6.5-1.3 9.9-1.3 21.4 0 38.9 17.5 38.9 38.9v97.2c0 5.5 4.5 10 10 10s10-4.5 10-10V410.9c5.6-3.1 12-4.9 18.9-4.9 21.4 0.1 38.9 17.6 38.9 38.9z" fill="#FFD5C5" /><path d="M773.5 796.8v77.4c0 8.8-7.1 15.9-15.9 15.9H454.2c-8.8 0-15.9-7.1-15.9-15.9v-77.4c0-8.8 7.1-15.9 15.9-15.9h303.3c8.8 0.1 16 7.1 16 15.9z" fill="#43C3FE" /><path d="M773.5 796.8v77.4c0 8.8-7.1 15.9-15.9 15.9H605.8V781h151.7c8.8 0 16 7 16 15.8z" fill="#369BF4" /><path d="M717.5 835.5m-20.1 0a20.1 20.1 0 1 0 40.2 0 20.1 20.1 0 1 0-40.2 0Z" fill="#FFFFFF" /><path d="M460.7 216.5c0-0.1 0.1-0.1 0.1-0.2 0.2-0.4 0.5-0.7 0.7-1.1v-0.1l0.6-1.2c0.2-0.4 0.3-0.9 0.5-1.4 0.1-0.5 0.3-0.9 0.4-1.4v-0.2c0.1-0.4 0.1-0.8 0.2-1.2 0-0.5 0.1-1 0.1-1.5v-0.3c0-0.4 0-0.8-0.1-1.2 0-0.4-0.1-0.7-0.2-1.1 0-0.1 0-0.3-0.1-0.4l-0.3-1.2v-0.2c-0.1-0.4-0.3-0.8-0.4-1.2 0 0 0-0.1-0.1-0.1-0.2-0.4-0.3-0.8-0.5-1.1 0-0.1-0.1-0.1-0.1-0.2-0.2-0.3-0.4-0.7-0.6-1-0.1-0.1-0.1-0.2-0.2-0.3-0.2-0.3-0.4-0.6-0.7-0.9-0.1-0.1-0.1-0.2-0.2-0.3-0.3-0.4-0.6-0.7-1-1.1l-32-32c-5.9-5.9-15.4-5.9-21.2 0-5.9 5.9-5.9 15.4 0 21.2l6.4 6.4h-52.7v-52.8l6.3 6.3c2.9 2.9 6.8 4.4 10.6 4.4s7.7-1.5 10.6-4.4c5.9-5.9 5.9-15.4 0-21.2l-31.9-31.9c-0.3-0.4-0.7-0.7-1.1-1-0.2-0.1-0.3-0.3-0.5-0.4-0.2-0.2-0.4-0.3-0.7-0.5-0.2-0.1-0.4-0.3-0.6-0.4-0.2-0.1-0.4-0.3-0.6-0.4-0.2-0.1-0.4-0.2-0.7-0.3-0.2-0.1-0.4-0.2-0.7-0.3-0.2-0.1-0.4-0.2-0.7-0.2-0.2-0.1-0.5-0.2-0.7-0.3s-0.4-0.1-0.7-0.2c-0.3-0.1-0.5-0.1-0.8-0.2-0.3-0.1-0.5-0.1-0.8-0.1-0.2 0-0.5-0.1-0.7-0.1-0.5 0-1-0.1-1.5-0.1h-0.3c-0.4 0-0.8 0-1.1 0.1-0.2 0-0.5 0.1-0.7 0.1s-0.5 0.1-0.7 0.1c-0.3 0.1-0.5 0.1-0.8 0.2-0.2 0.1-0.4 0.1-0.7 0.2-0.2 0.1-0.5 0.2-0.7 0.3-0.2 0.1-0.4 0.2-0.7 0.2-0.2 0.1-0.4 0.2-0.7 0.3-0.2 0.1-0.4 0.2-0.7 0.3-0.2 0.1-0.4 0.2-0.6 0.4-0.2 0.1-0.4 0.2-0.6 0.4-0.2 0.1-0.4 0.3-0.6 0.5-0.2 0.1-0.4 0.3-0.5 0.4-0.3 0.2-0.6 0.5-0.8 0.7-0.1 0.1-0.2 0.2-0.3 0.2l-32 32c-5.9 5.8-5.9 15.3-0.1 21.2s15.3 5.9 21.2 0.1l6.5-6.5v52.9h-52.9l6.4-6.4c5.8-5.9 5.8-15.4 0-21.2-5.9-5.8-15.4-5.8-21.2 0l-31.9 32c-0.1 0.1-0.1 0.1-0.1 0.2-0.3 0.3-0.6 0.6-0.8 0.9-0.1 0.2-0.3 0.4-0.4 0.5-0.2 0.2-0.3 0.4-0.5 0.6-0.1 0.2-0.3 0.4-0.4 0.6-0.1 0.2-0.2 0.4-0.4 0.6-0.1 0.2-0.2 0.4-0.3 0.7-0.1 0.2-0.2 0.4-0.3 0.7-0.1 0.2-0.2 0.4-0.2 0.7-0.1 0.2-0.2 0.5-0.3 0.7s-0.1 0.5-0.2 0.7c-0.1 0.2-0.1 0.5-0.2 0.7-0.1 0.3-0.1 0.5-0.1 0.8 0 0.2-0.1 0.4-0.1 0.7 0 0.4-0.1 0.9-0.1 1.3v0.2c0 0.5 0 1 0.1 1.5 0 0.2 0.1 0.4 0.1 0.7s0.1 0.5 0.1 0.8c0.1 0.3 0.1 0.5 0.2 0.7 0.1 0.2 0.1 0.5 0.2 0.7 0.1 0.2 0.2 0.5 0.3 0.7s0.2 0.4 0.2 0.7c0.1 0.2 0.2 0.4 0.3 0.7 0.1 0.2 0.2 0.5 0.3 0.7s0.2 0.4 0.4 0.6c0.1 0.2 0.3 0.4 0.4 0.6 0.2 0.2 0.3 0.4 0.5 0.7 0.1 0.2 0.3 0.4 0.4 0.5 0.3 0.4 0.6 0.8 1 1.1l31.9 31.8c2.9 2.9 6.8 4.4 10.6 4.4s7.7-1.5 10.6-4.4c5.9-5.9 5.9-15.4 0-21.2l-6.3-6.3h52.8V276l-6.5-6.5c-5.9-5.8-15.4-5.8-21.2 0.1-5.8 5.9-5.8 15.4 0.1 21.2l32.1 31.9c0.1 0.1 0.2 0.2 0.3 0.2 0.3 0.2 0.5 0.5 0.8 0.7 0.2 0.1 0.4 0.3 0.6 0.4 0.2 0.2 0.4 0.3 0.6 0.5 0.2 0.1 0.4 0.3 0.7 0.4 0.2 0.1 0.4 0.2 0.6 0.4 0.2 0.1 0.5 0.2 0.7 0.3l0.6 0.3c0.2 0.1 0.5 0.2 0.7 0.3 0.2 0.1 0.5 0.2 0.7 0.2 0.2 0.1 0.5 0.1 0.7 0.2s0.5 0.1 0.7 0.2c0.3 0.1 0.5 0.1 0.8 0.1 0.2 0 0.4 0.1 0.6 0.1 0.5 0 1 0.1 1.5 0.1s1 0 1.5-0.1c0.2 0 0.4-0.1 0.7-0.1 0.3 0 0.5-0.1 0.8-0.1 0.3-0.1 0.5-0.1 0.8-0.2 0.2-0.1 0.4-0.1 0.7-0.2 0.2-0.1 0.5-0.2 0.7-0.3 0.2-0.1 0.4-0.2 0.7-0.2 0.2-0.1 0.4-0.2 0.7-0.3 0.2-0.1 0.4-0.2 0.7-0.3 0.2-0.1 0.4-0.2 0.6-0.4 0.2-0.1 0.4-0.2 0.6-0.4 0.2-0.2 0.5-0.3 0.7-0.5 0.2-0.1 0.3-0.2 0.5-0.4 0.4-0.3 0.8-0.6 1.1-1l31.9-31.9c5.9-5.9 5.9-15.4 0-21.2-5.9-5.9-15.4-5.9-21.2 0l-6.3 6.3v-52.7h52.6l-6.3 6.3c-5.9 5.8-5.9 15.3 0 21.2 2.9 2.9 6.8 4.4 10.6 4.4s7.7-1.5 10.6-4.4l32-31.9c0.3-0.3 0.7-0.7 1-1.1l0.1-0.1c0-0.2 0.1-0.6 0.5-1z" fill="#FFD41F" /></svg>