<svg xmlns="http://www.w3.org/2000/svg" xmlns:xlink="http://www.w3.org/1999/xlink" width="1100" height="550" viewBox="0 0 1100 550"><defs><clipPath id="a"><path d="M211.119,226.18l-15.81,9.13a1.907,1.907,0,0,0-.956,1.66v18.26a1.907,1.907,0,0,0,.956,1.66l15.81,9.13a1.914,1.914,0,0,0,1.911,0l15.808-9.13a1.912,1.912,0,0,0,.953-1.66V236.97a1.907,1.907,0,0,0-.956-1.66l-15.8-9.13a1.922,1.922,0,0,0-1.914,0" transform="translate(-194.353 -225.925)"></path></clipPath><linearGradient id="b" x1="-0.847" y1="-1.034" x2="-0.838" y2="-1.034" gradientUnits="objectBoundingBox"><stop offset="0.3" stop-color="#3e863d"></stop><stop offset="0.5" stop-color="#55934f"></stop><stop offset="0.8" stop-color="#5aad45"></stop></linearGradient><clipPath id="c"><path d="M195.4,256.471a1.912,1.912,0,0,0,.563.5l13.562,7.834,2.259,1.3a1.916,1.916,0,0,0,1.1.249,1.953,1.953,0,0,0,.375-.068l16.668-30.532a1.89,1.89,0,0,0-.445-.352l-10.352-5.976-5.478-3.154a1.992,1.992,0,0,0-.5-.2Zm0,0" transform="translate(-195.4 -226.068)"></path></clipPath><linearGradient id="d" x1="-0.742" y1="-0.932" x2="-0.737" y2="-0.932" gradientUnits="objectBoundingBox"><stop offset="0.57" stop-color="#3e863d"></stop><stop offset="0.72" stop-color="#619857"></stop><stop offset="1" stop-color="#76ac64"></stop></linearGradient><clipPath id="e"><path d="M213.552,225.94a1.928,1.928,0,0,0-.764.244l-15.77,9.1,17,30.962a1.9,1.9,0,0,0,.679-.234l15.81-9.13a1.916,1.916,0,0,0,.923-1.3l-17.329-29.6a1.994,1.994,0,0,0-.387-.038h-.158" transform="translate(-197.018 -225.935)"></path></clipPath><linearGradient id="f" x1="-2.148" y1="-2.103" x2="-2.138" y2="-2.103" gradientUnits="objectBoundingBox"><stop offset="0.16" stop-color="#6bbf47"></stop><stop offset="0.38" stop-color="#79b461"></stop><stop offset="0.47" stop-color="#75ac64"></stop><stop offset="0.7" stop-color="#659e5a"></stop><stop offset="0.9" stop-color="#3e863d"></stop></linearGradient></defs><g transform="translate(-49.583 -47.801)"><g transform="translate(100.181 47.801)"><g transform="translate(736.282)"><g transform="translate(106.295 72.766)"><path d="M671.128,124.185a71.051,71.051,0,0,1,15.43,10.869l16.485-5.869,15.5,24.459-12.348,12.4a70.961,70.961,0,0,1,3.24,18.6l15.8,7.5-6.34,28.252-17.492.039a70.764,70.764,0,0,1-10.873,15.43l5.869,16.488-24.455,15.5L659.54,255.5a71.014,71.014,0,0,1-18.6,3.236l-7.5,15.8-28.255-6.336-.037-17.495a70.869,70.869,0,0,1-15.43-10.871l-16.489,5.869-15.5-24.459,12.351-12.4a71.115,71.115,0,0,1-3.239-18.6l-15.8-7.506L557.38,154.5l17.492-.037a70.812,70.812,0,0,1,10.873-15.433l-5.869-16.488,24.455-15.5,12.4,12.349a70.894,70.894,0,0,1,18.6-3.237l7.5-15.8,28.252,6.336.042,17.495Zm-24.909,33.245a31.06,31.06,0,1,0,23.509,37.1A31.06,31.06,0,0,0,646.219,157.429Z" transform="translate(-551.043 -100.354)" fill="#e0e0e0" fill-rule="evenodd"></path></g><g transform="translate(42.429 41.74)"><path d="M533.457,78.728a17.321,17.321,0,0,1,5.422,1.7,22.834,22.834,0,0,1,10.8,10.936,23.1,23.1,0,0,1,2.2,10.563,23.458,23.458,0,0,1-3.633,11.841,23.5,23.5,0,0,1-10.372,8.914,23.4,23.4,0,0,1-27.2-6.1,23.515,23.515,0,0,1-5.574-12.492,23.482,23.482,0,0,1,1.774-12.261,23.1,23.1,0,0,1,6.506-8.608,22.827,22.827,0,0,1,14.439-5.273,17.324,17.324,0,0,1,5.626.781c-.025.162-2-.4-5.612-.269a22.861,22.861,0,0,0-13.854,5.472,22.406,22.406,0,0,0-7.675,20,22.4,22.4,0,0,0,5.345,11.8,22.215,22.215,0,0,0,25.7,5.764,22.4,22.4,0,0,0,9.868-8.385,22.4,22.4,0,0,0,1.6-21.363,22.844,22.844,0,0,0-10.189-10.866C535.441,79.224,533.411,78.884,533.457,78.728Z" transform="translate(-504.917 -77.947)" fill="#e0e0e0"></path></g><path d="M563.633,65.78a4.9,4.9,0,0,1-.05-.8c-.014-.6-.033-1.4-.057-2.445-.032-2.242-.076-5.472-.134-9.665l.163.2-20.883-4.557.374-.183-5.491,11.688-.1.21-.235.01a52.292,52.292,0,0,0-13.615,2.416l-.249.08-.187-.186c-2.862-2.833-5.959-5.9-9.181-9.09l.582.062L496.543,65l.21-.611,4.357,12.164.111.309-.224.244a51.962,51.962,0,0,0-7.923,11.285l-.156.3h-.346l-12.913.046.57-.458c-1.461,6.553-3.036,13.62-4.652,20.863l-.335-.687,11.67,5.53.342.161.015.379a52.145,52.145,0,0,0,2.373,13.561l.116.367-.273.274-9.112,9.161.087-.8,11.448,18.051-.771-.266,12.172-4.335.375-.134.292.271a51.814,51.814,0,0,0,11.237,7.917l.006,0h0c.159.262-.35-.58.357.584v.8l0,.813,0,1.623.007,3.239q.006,3.234.012,6.438l-.514-.638,20.858,4.683-.73.356q2.8-5.89,5.544-11.664l.168-.353.39-.015a51.8,51.8,0,0,0,13.564-2.351l.368-.116.273.273,9.15,9.122-.778-.084,18.065-11.422-.245.714q-2.2-6.2-4.319-12.178l-.119-.338.242-.26a51.876,51.876,0,0,0,7.955-11.254l.161-.306h.343l12.913-.006-.532.426c1.661-7.333,3.229-14.256,4.723-20.847l.276.565-11.653-5.569-.259-.123-.011-.285a52.122,52.122,0,0,0-2.332-13.618l-.079-.252.184-.183,9.147-9.125-.053.482L586.945,69.629l.347.12L575.095,74l-.122.043-.093-.087a54.331,54.331,0,0,0-8.3-6.39l-2.221-1.338a5.453,5.453,0,0,1-.731-.451,6.57,6.57,0,0,1,.785.354c.51.262,1.281.659,2.281,1.249a50.636,50.636,0,0,1,8.468,6.265l-.215-.044c3.315-1.2,7.294-2.649,12.143-4.411l.222-.08.127.2C590.7,74.4,594.5,80.345,598.963,87.321l.168.26-.22.222-9.084,9.186.105-.435a52.839,52.839,0,0,1,2.452,13.842l-.27-.408,11.681,5.512.363.172-.087.393c-1.466,6.6-3.007,13.526-4.638,20.866l-.094.426H598.9l-12.913.051.5-.306a52.96,52.96,0,0,1-8.1,11.53l.123-.6q2.135,5.975,4.348,12.167l.162.454-.409.26L564.57,172.373l-.422.267-.356-.353-9.163-9.108.641.156a53.011,53.011,0,0,1-13.9,2.426l.558-.368-5.533,11.67-.223.469-.508-.114-20.861-4.672-.512-.115v-.525q-.008-3.207-.014-6.44l-.007-3.239,0-1.623v-1.614c.708,1.163.194.321.352.58h0l-.006,0a53.036,53.036,0,0,1-11.524-8.121l.666.137-12.174,4.33-.493.176-.28-.442-11.431-18.062-.276-.435.363-.366c3.149-3.157,6.267-6.283,9.123-9.15l-.155.64a53.315,53.315,0,0,1-2.409-13.893l.357.539-11.658-5.552-.443-.21.108-.476c1.633-7.239,3.225-14.3,4.7-20.852l.1-.458h.468l12.914-.008-.5.306a52.977,52.977,0,0,1,8.132-11.5l-.114.551c-1.506-4.256-2.976-8.41-4.309-12.18l-.138-.392.349-.22q9.516-6,18.08-11.4l.318-.2.264.264,9.13,9.141-.435-.105a52.839,52.839,0,0,1,13.845-2.364l-.334.22c2.013-4.194,3.893-8.115,5.587-11.643l.116-.242.258.06,20.83,4.8.166.039,0,.166c-.037,4.155-.068,7.358-.089,9.58-.019,1.055-.035,1.869-.046,2.477A6.37,6.37,0,0,1,563.633,65.78Z" transform="translate(-474.274 -47.801)" fill="#e0e0e0"></path></g><g transform="translate(0 308.292)"><g transform="translate(0.515 0.282)"><path d="M151.339,284.886a35.958,35.958,0,0,1,6.834,6.693l8.724-1.592,5.76,13.5-7.186,5.2a36.017,36.017,0,0,1,.105,9.568l7.294,5.041L167.4,336.908l-8.754-1.407a35.89,35.89,0,0,1-6.7,6.834l1.592,8.726-13.5,5.76-5.2-7.186a36.018,36.018,0,0,1-9.568.1l-5.04,7.294-13.619-5.471,1.407-8.755a35.925,35.925,0,0,1-6.834-6.695l-8.727,1.592-5.759-13.5,7.188-5.2a36.066,36.066,0,0,1-.105-9.566L86.5,304.4l5.471-13.618,8.755,1.407a35.849,35.849,0,0,1,6.7-6.834l-1.594-8.727,13.5-5.759,5.2,7.188a35.96,35.96,0,0,1,9.568-.105l5.04-7.293,13.618,5.471-1.405,8.755Zm-15.168,14.6a15.742,15.742,0,1,0,8.74,20.477A15.742,15.742,0,0,0,136.171,299.487Z" transform="translate(-86.498 -270.661)" fill="none"></path></g><g transform="translate(28.166 27.766)"><path d="M128.49,291.853a11.9,11.9,0,0,1,3.486,1.749,15.66,15.66,0,0,1,6.114,8.6,15.866,15.866,0,0,1,.33,7.4,16.11,16.11,0,0,1-3.769,7.622,16.118,16.118,0,0,1-8.011,4.9,16.061,16.061,0,0,1-17.755-7.132,16.14,16.14,0,0,1-2.4-9.079,16.116,16.116,0,0,1,2.553-8.112,15.871,15.871,0,0,1,5.358-5.116,15.67,15.67,0,0,1,10.365-1.979,11.88,11.88,0,0,1,3.726,1.149c-.033.107-1.314-.492-3.773-.8a15.693,15.693,0,0,0-9.991,2.181,15.371,15.371,0,0,0-7.406,12.707,15.377,15.377,0,0,0,2.319,8.585,15.251,15.251,0,0,0,16.781,6.742,15.388,15.388,0,0,0,7.611-4.593,15.378,15.378,0,0,0,3.445-14.3,15.683,15.683,0,0,0-5.706-8.488C129.781,292.408,128.442,291.954,128.49,291.853Z" transform="translate(-106.468 -290.51)" fill="#e0e0e0"></path></g><path d="M151.482,284.965a3.456,3.456,0,0,1,.055-.551l.231-1.663c.227-1.523.552-3.716.976-6.564l.089.156-13.648-5.392.273-.082-5.01,7.313-.09.132-.161-.019a35.921,35.921,0,0,0-9.493.136l-.177.026-.105-.147-5.22-7.172.388.107-13.482,5.792.21-.392c.5,2.7,1.047,5.674,1.61,8.723l.04.223-.179.14a35.693,35.693,0,0,0-6.613,6.772l-.14.19-.234-.037-8.756-1.394.438-.246c-1.713,4.278-3.56,8.893-5.454,13.623l-.151-.5,7.3,5.034.215.147-.032.259a35.771,35.771,0,0,0,.112,9.45l.039.262-.216.156-7.185,5.2.148-.532c1.825,4.272,3.781,8.852,5.766,13.494l-.494-.266,8.727-1.6.269-.048.168.215a35.513,35.513,0,0,0,6.742,6.606l0,0h0c.079.194-.174-.433.177.435v.008l0,.017-.006.036-.011.068-.022.138-.044.276-.089.551-.177,1.1-.353,2.195q-.351,2.191-.7,4.364l-.277-.49L120.55,356.7l-.534.161,5.043-7.291.154-.222.266.033a35.541,35.541,0,0,0,9.45-.1l.263-.039.155.215q2.634,3.649,5.192,7.192l-.518-.144,13.5-5.746-.245.457q-.806-4.443-1.583-8.727l-.044-.242.194-.151a35.575,35.575,0,0,0,6.631-6.747l.143-.191.233.039,8.751,1.421-.407.23,5.5-13.605.125.414-7.282-5.059-.162-.112.025-.194a35.781,35.781,0,0,0-.079-9.485l-.025-.18.145-.1,7.2-5.173-.089.32-5.7-13.522.222.119c-3.488.615-6.35,1.117-8.734,1.537l-.089.017-.053-.069a37.373,37.373,0,0,0-4.915-5.245c-.584-.5-1.03-.875-1.358-1.152a3.742,3.742,0,0,1-.446-.386,4.091,4.091,0,0,1,.493.327c.317.234.8.588,1.408,1.1a34.774,34.774,0,0,1,5.047,5.178l-.14-.053,8.715-1.649.158-.03.065.15c1.644,3.806,3.564,8.254,5.818,13.472l.084.2-.173.126L165.788,309l.12-.284a36.278,36.278,0,0,1,.133,9.649l-.137-.306,7.307,5.023.227.156-.1.258-5.444,13.627-.112.278-.3-.048c-2.843-.451-5.754-.912-8.756-1.39l.375-.152a36.341,36.341,0,0,1-6.761,6.92l.15-.392q.787,4.285,1.6,8.723l.06.327-.306.132q-6.58,2.814-13.489,5.772l-.317.136-.2-.28q-2.565-3.543-5.2-7.182l.417.176a36.361,36.361,0,0,1-9.684.111l.418-.187q-2.492,3.612-5.036,7.3l-.2.295-.332-.134L106.6,352.059l-.335-.134.057-.356q.349-2.172.7-4.364l.353-2.2.177-1.1.089-.551.044-.276.022-.137.011-.069.006-.035,0-.018v-.008c.35.867.1.24.174.433h0l0,0a36.45,36.45,0,0,1-6.912-6.775l.436.166-8.727,1.591-.353.065-.141-.33c-1.979-4.645-3.932-9.226-5.753-13.5l-.14-.327.287-.206,7.192-5.194-.176.417a36.615,36.615,0,0,1-.1-9.681l.183.406L86.4,304.827l-.277-.192.126-.31c1.9-4.726,3.763-9.335,5.487-13.611l.12-.3.317.051,8.751,1.419-.374.151a36.356,36.356,0,0,1,6.779-6.9l-.138.361c-.551-3.05-1.088-6.027-1.576-8.729l-.051-.281.262-.111,13.508-5.728.238-.1.15.209,5.178,7.2-.282-.119a36.231,36.231,0,0,1,9.641-.075l-.249.112,5.069-7.272.105-.152.169.069,13.584,5.55.108.044-.019.112c-.485,2.812-.857,4.979-1.116,6.481-.13.713-.23,1.264-.3,1.674A4.238,4.238,0,0,1,151.482,284.965Z" transform="translate(-86.126 -270.457)" fill="#e0e0e0"></path><g transform="translate(67.492 63.165)"><path d="M248.5,341a63.11,63.11,0,0,1,11.976,11.73l15.29-2.791L285.858,373.6l-12.594,9.109a62.989,62.989,0,0,1,.186,16.765l12.783,8.835-9.59,23.861-15.34-2.462a62.927,62.927,0,0,1-11.735,11.976l2.793,15.292-23.651,10.092L219.6,454.472a63.055,63.055,0,0,1-16.766.181L194,467.436l-23.865-9.587,2.465-15.341a62.951,62.951,0,0,1-11.976-11.732l-15.293,2.791-10.094-23.653,12.6-9.109a63.094,63.094,0,0,1-.184-16.764l-12.78-8.835,9.587-23.862,15.34,2.463A62.967,62.967,0,0,1,171.53,341.83l-2.791-15.292,23.651-10.094,9.109,12.6a63,63,0,0,1,16.766-.183l8.832-12.781,23.862,9.587L248.5,341Zm-26.582,25.589a27.588,27.588,0,1,0,15.314,35.884A27.587,27.587,0,0,0,221.918,366.594Z" transform="translate(-134.87 -316.076)" fill="#e0e0e0" fill-rule="evenodd"></path></g></g></g><g transform="translate(93.886 84.326)"><g transform="translate(19.479)"><path d="M262.536,281.734H95.648V74.18l127.659.377,39.229,42.6Z" transform="translate(-95.648 -74.18)" fill="#ebebeb"></path><g transform="translate(25.396 59.769)"><g transform="translate(0 10.282)"><path d="M138.519,173.136c-.216.206-2.988-2.3-7.3-6.509s-10.155-10.14-16.52-16.78l-.713-.744.709-.748.068-.072c6.343-6.7,12.172-12.673,16.471-16.926s7.064-6.78,7.282-6.574-2.157,3.1-6.171,7.625-9.669,10.666-16.012,17.362l-.068.072,0-1.493c6.364,6.642,12.035,12.736,16.061,17.219S138.733,172.93,138.519,173.136Z" transform="translate(-113.989 -124.773)" fill="#263238"></path></g><g transform="translate(91.484 10.282)"><path d="M180.075,124.784c.216-.206,2.988,2.3,7.3,6.509s10.156,10.14,16.52,16.779l.713.745-.709.748-.068.072c-6.343,6.7-12.172,12.673-16.471,16.926s-7.064,6.779-7.282,6.574,2.157-3.1,6.171-7.626,9.669-10.666,16.012-17.36l.068-.072,0,1.491c-6.364-6.641-12.034-12.734-16.061-17.219S179.86,124.991,180.075,124.784Z" transform="translate(-180.061 -124.772)" fill="#263238"></path></g><g transform="translate(37.687)"><path d="M141.229,183.62c-.51-.313,8.154-15.4,19.347-33.7s20.685-32.885,21.194-32.572-8.151,15.4-19.349,33.7S141.738,183.932,141.229,183.62Z" transform="translate(-141.208 -117.346)" fill="#263238"></path></g></g><g transform="translate(127.501 0.389)"><path d="M187.882,74.461l-.15,34.766a8.943,8.943,0,0,0,9.208,8.978l30.18-1.13Z" transform="translate(-187.732 -74.461)" fill="#e0e0e0"></path></g></g><g transform="translate(0 140.595)"><rect width="74.012" height="44.98" fill="#202f69"></rect><g transform="translate(21.029 11.276)"><g transform="translate(0 0.264)"><path d="M96.767,204.2l1.926-2.257a5.793,5.793,0,0,0,4.845,2.755c2.622,0,3.984-1.594,3.984-4.715V186.944h-8.4v-2.888h11.683v15.767c0,5.177-2.521,7.733-7.269,7.733A8.1,8.1,0,0,1,96.767,204.2Z" transform="translate(-96.767 -184.056)" fill="#fff"></path></g><g transform="translate(18.683)"><path d="M110.26,204.709l1.228-2.589a11.957,11.957,0,0,0,7.668,2.688c4.015,0,5.742-1.559,5.742-3.583,0-5.676-14.073-2.092-14.073-10.721,0-3.585,2.787-6.638,8.895-6.638a13.681,13.681,0,0,1,7.469,2.056l-1.1,2.656a12,12,0,0,0-6.373-1.891c-3.95,0-5.642,1.659-5.642,3.684,0,5.676,14.073,2.124,14.073,10.655,0,3.552-2.855,6.6-8.994,6.6C115.6,207.629,112.12,206.434,110.26,204.709Z" transform="translate(-110.26 -183.865)" fill="#fff"></path></g></g></g></g><g transform="translate(657.277 197.994)"><rect width="376.399" height="219.318" fill="#d2d2d2"></rect><g transform="translate(29.078 7.952)"><path d="M366.223,362.344c-.2,0-.36-44.849-.36-100.159,0-55.331.161-100.168.36-100.168s.361,44.838.361,100.168C366.584,317.5,366.422,362.344,366.223,362.344Z" transform="translate(-365.863 -162.017)" fill="#070707"></path></g><g transform="translate(9.233 16.041)"><path d="M364,168.219c0,.2-2.791.361-6.234.361s-6.234-.162-6.234-.361,2.79-.36,6.234-.36S364,168.02,364,168.219Z" transform="translate(-351.53 -167.859)" fill="#070707"></path></g><g transform="translate(9.233 29.241)"><path d="M364,177.753c0,.2-2.791.36-6.234.36s-6.234-.162-6.234-.36,2.79-.361,6.234-.361S364,177.554,364,177.753Z" transform="translate(-351.53 -177.392)" fill="#070707"></path></g><g transform="translate(9.233 42.442)"><path d="M364,187.286c0,.2-2.791.36-6.234.36s-6.234-.161-6.234-.36,2.79-.36,6.234-.36S364,187.087,364,187.286Z" transform="translate(-351.53 -186.926)" fill="#070707"></path></g><g transform="translate(9.233 55.641)"><path d="M364,196.819c0,.2-2.791.361-6.234.361s-6.234-.162-6.234-.361,2.79-.36,6.234-.36S364,196.621,364,196.819Z" transform="translate(-351.53 -196.459)" fill="#070707"></path></g><g transform="translate(9.233 68.841)"><path d="M364,206.353c0,.2-2.791.36-6.234.36s-6.234-.161-6.234-.36,2.79-.361,6.234-.361S364,206.154,364,206.353Z" transform="translate(-351.53 -205.992)" fill="#070707"></path></g><g transform="translate(9.233 82.041)"><path d="M364,215.886c0,.2-2.791.361-6.234.361s-6.234-.162-6.234-.361,2.79-.36,6.234-.36S364,215.687,364,215.886Z" transform="translate(-351.53 -215.526)" fill="#070707"></path></g><g transform="translate(9.233 95.241)"><path d="M364,225.42c0,.2-2.791.36-6.234.36s-6.234-.162-6.234-.36,2.79-.361,6.234-.361S364,225.221,364,225.42Z" transform="translate(-351.53 -225.059)" fill="#070707"></path></g><g transform="translate(9.233 108.442)"><path d="M364,234.953c0,.2-2.791.36-6.234.36s-6.234-.161-6.234-.36,2.79-.36,6.234-.36S364,234.754,364,234.953Z" transform="translate(-351.53 -234.593)" fill="#070707"></path></g><g transform="translate(9.233 121.641)"><path d="M364,244.486c0,.2-2.791.361-6.234.361s-6.234-.162-6.234-.361,2.79-.36,6.234-.36S364,244.288,364,244.486Z" transform="translate(-351.53 -244.126)" fill="#070707"></path></g><g transform="translate(9.233 134.841)"><path d="M364,254.02c0,.2-2.791.36-6.234.36s-6.234-.161-6.234-.36,2.79-.361,6.234-.361S364,253.821,364,254.02Z" transform="translate(-351.53 -253.659)" fill="#070707"></path></g><g transform="translate(9.233 148.042)"><path d="M364,263.553c0,.2-2.791.361-6.234.361s-6.234-.162-6.234-.361,2.79-.36,6.234-.36S364,263.354,364,263.553Z" transform="translate(-351.53 -263.193)" fill="#070707"></path></g><g transform="translate(9.233 161.241)"><path d="M364,273.087c0,.2-2.791.36-6.234.36s-6.234-.161-6.234-.36,2.79-.361,6.234-.361S364,272.888,364,273.087Z" transform="translate(-351.53 -272.726)" fill="#070707"></path></g><g transform="translate(9.233 174.442)"><path d="M364,282.62c0,.2-2.791.36-6.234.36s-6.234-.161-6.234-.36,2.79-.36,6.234-.36S364,282.421,364,282.62Z" transform="translate(-351.53 -282.26)" fill="#070707"></path></g><g transform="translate(9.233 187.642)"><path d="M364,292.153c0,.2-2.791.361-6.234.361s-6.234-.162-6.234-.361,2.79-.36,6.234-.36S364,291.955,364,292.153Z" transform="translate(-351.53 -291.793)" fill="#070707"></path></g><g transform="translate(9.233 200.843)"><path d="M364,301.687c0,.2-2.791.36-6.234.36s-6.234-.161-6.234-.36,2.79-.36,6.234-.36S364,301.488,364,301.687Z" transform="translate(-351.53 -301.327)" fill="#070707"></path></g><g transform="translate(39.312 15.263)"><path d="M405.605,167.657c0,.2-7.243.36-16.175.36s-16.176-.161-16.176-.36,7.242-.36,16.176-.36S405.605,167.458,405.605,167.657Z" transform="translate(-373.254 -167.297)" fill="#070707"></path></g><g transform="translate(39.312 200.843)"><path d="M405.605,301.687c0,.2-7.243.36-16.175.36s-16.176-.161-16.176-.36,7.242-.36,16.176-.36S405.605,301.488,405.605,301.687Z" transform="translate(-373.254 -301.327)" fill="#070707"></path></g><g transform="translate(56.188 42.442)"><path d="M445.97,187.286c0,.2-13.551.36-30.264.36s-30.265-.161-30.265-.36,13.547-.36,30.265-.36S445.97,187.087,445.97,187.286Z" transform="translate(-385.442 -186.926)" fill="#070707"></path></g><g transform="translate(126.177 42.442)"><path d="M496.518,187.286c0,.2-13.551.36-30.263.36s-30.265-.161-30.265-.36,13.547-.36,30.265-.36S496.518,187.087,496.518,187.286Z" transform="translate(-435.99 -186.926)" fill="#070707"></path></g><g transform="translate(70.754 55.641)"><path d="M485.164,196.819c0,.2-19.97.361-44.6.361s-44.6-.162-44.6-.361,19.966-.36,44.6-.36S485.164,196.621,485.164,196.819Z" transform="translate(-395.962 -196.459)" fill="#070707"></path></g><g transform="translate(70.754 68.841)"><path d="M485.164,206.353c0,.2-19.97.36-44.6.36s-44.6-.161-44.6-.36,19.966-.361,44.6-.361S485.164,206.154,485.164,206.353Z" transform="translate(-395.962 -205.992)" fill="#070707"></path></g><g transform="translate(132.156 108.442)"><path d="M529.51,234.953c0,.2-19.97.36-44.6.36s-44.6-.161-44.6-.36,19.966-.36,44.6-.36S529.51,234.754,529.51,234.953Z" transform="translate(-440.308 -234.593)" fill="#070707"></path></g><g transform="translate(105.658 82.041)"><path d="M510.375,215.886c0,.2-19.97.361-44.6.361s-44.6-.162-44.6-.361,19.966-.36,44.6-.36S510.375,215.687,510.375,215.886Z" transform="translate(-421.171 -215.526)" fill="#070707"></path></g><g transform="translate(214.666 82.041)"><path d="M589.1,215.886c0,.2-19.97.361-44.6.361s-44.6-.162-44.6-.361,19.966-.36,44.6-.36S589.1,215.687,589.1,215.886Z" transform="translate(-499.899 -215.526)" fill="#070707"></path></g><g transform="translate(176.757 55.641)"><path d="M561.722,196.819c0,.2-19.97.361-44.6.361s-44.6-.162-44.6-.361,19.966-.36,44.6-.36S561.722,196.621,561.722,196.819Z" transform="translate(-472.52 -196.459)" fill="#070707"></path></g><g transform="translate(238.374 108.442)"><path d="M606.225,234.953c0,.2-19.97.36-44.6.36s-44.6-.161-44.6-.36,19.966-.36,44.6-.36S606.225,234.754,606.225,234.953Z" transform="translate(-517.021 -234.593)" fill="#070707"></path></g><g transform="translate(176.757 68.841)"><path d="M611.035,206.353c0,.2-31.01.36-69.254.36s-69.261-.161-69.261-.36,31-.361,69.261-.361S611.035,206.154,611.035,206.353Z" transform="translate(-472.52 -205.992)" fill="#070707"></path></g><g transform="translate(39.312 29.241)"><path d="M405.605,177.753c0,.2-7.243.36-16.175.36s-16.176-.162-16.176-.36,7.242-.361,16.176-.361S405.605,177.554,405.605,177.753Z" transform="translate(-373.254 -177.392)" fill="#070707"></path></g><g transform="translate(39.312 187.642)"><path d="M405.605,292.153c0,.2-7.243.361-16.175.361s-16.176-.162-16.176-.361,7.242-.36,16.176-.36S405.605,291.955,405.605,292.153Z" transform="translate(-373.254 -291.793)" fill="#070707"></path></g><g transform="translate(55.339 82.041)"><path d="M417.179,215.886c0,.2-7.242.361-16.174.361s-16.176-.162-16.176-.361,7.24-.36,16.176-.36S417.179,215.687,417.179,215.886Z" transform="translate(-384.829 -215.526)" fill="#070707"></path></g><g transform="translate(314.617 82.041)"><path d="M604.437,215.886c0,.2-7.243.361-16.175.361s-16.176-.162-16.176-.361,7.241-.36,16.176-.36S604.437,215.687,604.437,215.886Z" transform="translate(-572.086 -215.526)" fill="#070707"></path></g><g transform="translate(56.188 134.763)"><path d="M445.97,253.964c0,.2-13.551.36-30.264.36s-30.265-.162-30.265-.36,13.547-.361,30.265-.361S445.97,253.765,445.97,253.964Z" transform="translate(-385.442 -253.603)" fill="#070707"></path></g><g transform="translate(126.177 134.763)"><path d="M496.518,253.964c0,.2-13.551.36-30.263.36s-30.265-.162-30.265-.36,13.547-.361,30.265-.361S496.518,253.765,496.518,253.964Z" transform="translate(-435.99 -253.603)" fill="#070707"></path></g><g transform="translate(70.754 147.964)"><path d="M485.164,263.5c0,.2-19.97.361-44.6.361s-44.6-.162-44.6-.361,19.966-.36,44.6-.36S485.164,263.3,485.164,263.5Z" transform="translate(-395.962 -263.137)" fill="#070707"></path></g><g transform="translate(70.754 161.164)"><path d="M485.164,273.031c0,.2-19.97.36-44.6.36s-44.6-.162-44.6-.36,19.966-.361,44.6-.361S485.164,272.832,485.164,273.031Z" transform="translate(-395.962 -272.67)" fill="#070707"></path></g><g transform="translate(105.658 174.365)"><path d="M510.375,282.564c0,.2-19.97.36-44.6.36s-44.6-.161-44.6-.36,19.966-.36,44.6-.36S510.375,282.365,510.375,282.564Z" transform="translate(-421.171 -282.204)" fill="#070707"></path></g><g transform="translate(214.666 174.365)"><path d="M589.1,282.564c0,.2-19.97.36-44.6.36s-44.6-.161-44.6-.36,19.966-.36,44.6-.36S589.1,282.365,589.1,282.564Z" transform="translate(-499.899 -282.204)" fill="#070707"></path></g><g transform="translate(176.757 147.964)"><path d="M561.722,263.5c0,.2-19.97.361-44.6.361s-44.6-.162-44.6-.361,19.966-.36,44.6-.36S561.722,263.3,561.722,263.5Z" transform="translate(-472.52 -263.137)" fill="#070707"></path></g><g transform="translate(176.757 161.164)"><path d="M611.035,273.031c0,.2-31.01.36-69.254.36s-69.261-.162-69.261-.36,31-.361,69.261-.361S611.035,272.832,611.035,273.031Z" transform="translate(-472.52 -272.67)" fill="#070707"></path></g><g transform="translate(55.339 174.365)"><path d="M417.179,282.564c0,.2-7.242.36-16.174.36s-16.176-.161-16.176-.36,7.24-.36,16.176-.36S417.179,282.365,417.179,282.564Z" transform="translate(-384.829 -282.204)" fill="#070707"></path></g><g transform="translate(314.617 174.365)"><path d="M604.437,282.564c0,.2-7.243.36-16.175.36s-16.176-.161-16.176-.36,7.241-.36,16.176-.36S604.437,282.365,604.437,282.564Z" transform="translate(-572.086 -282.204)" fill="#070707"></path></g></g><g transform="translate(315.744 307.652)"><g transform="translate(18.062)"><path d="M7.751,0H425.172a6.74,6.74,0,0,1,6.74,6.74V271.051a14.567,14.567,0,0,1-14.567,14.567H14.567A14.567,14.567,0,0,1,0,271.051V7.751A7.751,7.751,0,0,1,7.751,0Z" fill="#455a64"></path></g><g transform="translate(0 264.495)"><path d="M0,0H467.943a0,0,0,0,1,0,0V11.27a13.721,13.721,0,0,1-13.721,13.721H13.721A13.721,13.721,0,0,1,0,11.27V0A0,0,0,0,1,0,0Z" fill="#455a64"></path></g><g transform="translate(29.655 11.348)"><rect width="407.516" height="241.2" fill="#e0e0e0"></rect></g><g transform="translate(191.44 264.495)"><path d="M319.6,426.5l5.807,9.236h81.709l5.392-9.236Z" transform="translate(-319.598 -426.496)" fill="#263238"></path></g><g transform="translate(18.131 264.41)"><rect width="431.912" height="1.377" fill="#263238"></rect></g><g transform="translate(41.747 25.322)"><rect width="384.317" height="227.226" fill="#263238"></rect><g transform="translate(29.126 4.389)"><path d="M232.881,473.1c-.2,0-.36-48.4-.36-108.079,0-59.706.161-108.09.36-108.09s.361,48.384.361,108.09C233.242,424.7,233.08,473.1,232.881,473.1Z" transform="translate(-232.521 -256.93)" fill="#e0e0e0"></path></g><g transform="translate(9.248 23.623)"><path d="M230.65,271.181c0,.2-2.794.361-6.242.361s-6.243-.162-6.243-.361,2.794-.36,6.243-.36S230.65,270.982,230.65,271.181Z" transform="translate(-218.165 -270.821)" fill="#e0e0e0"></path></g><g transform="translate(9.729 11.356)"><path d="M231,262.322c0,.2-2.8.361-6.243.361s-6.243-.162-6.243-.361,2.794-.36,6.243-.36S231,262.124,231,262.322Z" transform="translate(-218.512 -261.962)" fill="#e0e0e0"></path></g><g transform="translate(9.248 36.844)"><path d="M230.65,280.73c0,.2-2.794.36-6.242.36s-6.243-.161-6.243-.36,2.794-.36,6.243-.36S230.65,280.531,230.65,280.73Z" transform="translate(-218.165 -280.37)" fill="#e0e0e0"></path></g><g transform="translate(9.248 50.065)"><path d="M230.65,290.279c0,.2-2.794.36-6.242.36s-6.243-.161-6.243-.36,2.794-.361,6.243-.361S230.65,290.08,230.65,290.279Z" transform="translate(-218.165 -289.918)" fill="#e0e0e0"></path></g><g transform="translate(9.248 63.286)"><path d="M230.65,299.827c0,.2-2.794.361-6.242.361s-6.243-.162-6.243-.361,2.794-.36,6.243-.36S230.65,299.629,230.65,299.827Z" transform="translate(-218.165 -299.467)" fill="#e0e0e0"></path></g><g transform="translate(9.248 76.508)"><path d="M230.65,309.376c0,.2-2.794.361-6.242.361s-6.243-.162-6.243-.361,2.794-.36,6.243-.36S230.65,309.177,230.65,309.376Z" transform="translate(-218.165 -309.016)" fill="#e0e0e0"></path></g><g transform="translate(9.248 89.73)"><path d="M230.65,318.925c0,.2-2.794.36-6.242.36s-6.243-.161-6.243-.36,2.794-.36,6.243-.36S230.65,318.726,230.65,318.925Z" transform="translate(-218.165 -318.565)" fill="#e0e0e0"></path></g><g transform="translate(9.248 102.95)"><path d="M230.65,328.474c0,.2-2.794.36-6.242.36s-6.243-.162-6.243-.36,2.794-.361,6.243-.361S230.65,328.275,230.65,328.474Z" transform="translate(-218.165 -328.113)" fill="#e0e0e0"></path></g><g transform="translate(9.248 116.171)"><path d="M230.65,338.022c0,.2-2.794.361-6.242.361s-6.243-.162-6.243-.361,2.794-.36,6.243-.36S230.65,337.824,230.65,338.022Z" transform="translate(-218.165 -337.662)" fill="#e0e0e0"></path></g><g transform="translate(9.248 129.393)"><path d="M230.65,347.571c0,.2-2.794.361-6.242.361s-6.243-.162-6.243-.361,2.794-.36,6.243-.36S230.65,347.372,230.65,347.571Z" transform="translate(-218.165 -347.211)" fill="#e0e0e0"></path></g><g transform="translate(9.248 142.615)"><path d="M230.65,357.12c0,.2-2.794.36-6.242.36s-6.243-.161-6.243-.36,2.794-.36,6.243-.36S230.65,356.921,230.65,357.12Z" transform="translate(-218.165 -356.76)" fill="#e0e0e0"></path></g><g transform="translate(9.248 155.835)"><path d="M230.65,366.669c0,.2-2.794.36-6.242.36s-6.243-.162-6.243-.36,2.794-.361,6.243-.361S230.65,366.47,230.65,366.669Z" transform="translate(-218.165 -366.308)" fill="#e0e0e0"></path></g><g transform="translate(9.248 169.057)"><path d="M230.65,376.217c0,.2-2.794.361-6.242.361s-6.243-.162-6.243-.361,2.794-.36,6.243-.36S230.65,376.019,230.65,376.217Z" transform="translate(-218.165 -375.857)" fill="#e0e0e0"></path></g><g transform="translate(9.248 182.278)"><path d="M230.65,385.766c0,.2-2.794.361-6.242.361s-6.243-.162-6.243-.361,2.794-.36,6.243-.36S230.65,385.568,230.65,385.766Z" transform="translate(-218.165 -385.406)" fill="#e0e0e0"></path></g><g transform="translate(9.248 195.5)"><path d="M230.65,395.315c0,.2-2.794.36-6.242.36s-6.243-.161-6.243-.36,2.794-.36,6.243-.36S230.65,395.116,230.65,395.315Z" transform="translate(-218.165 -394.955)" fill="#e0e0e0"></path></g><g transform="translate(9.248 208.72)"><path d="M230.65,404.864c0,.2-2.794.36-6.242.36s-6.243-.161-6.243-.36,2.794-.361,6.243-.361S230.65,404.665,230.65,404.864Z" transform="translate(-218.165 -404.503)" fill="#e0e0e0"></path></g><g transform="translate(39.375 22.843)"><path d="M272.327,270.618c0,.2-7.255.361-16.2.361s-16.2-.162-16.2-.361,7.253-.36,16.2-.36S272.327,270.419,272.327,270.618Z" transform="translate(-239.923 -270.258)" fill="#e8505b"></path></g><g transform="translate(39.375 208.72)"><path d="M272.327,404.864c0,.2-7.255.36-16.2.36s-16.2-.161-16.2-.36,7.253-.361,16.2-.361S272.327,404.665,272.327,404.864Z" transform="translate(-239.923 -404.503)" fill="#e8505b"></path></g><g transform="translate(56.278 50.065)"><path d="M312.756,290.279c0,.2-13.572.36-30.312.36s-30.313-.161-30.313-.36,13.569-.361,30.313-.361S312.756,290.08,312.756,290.279Z" transform="translate(-252.131 -289.918)" fill="#e8505b"></path></g><g transform="translate(126.38 50.065)"><path d="M363.387,290.279c0,.2-13.573.36-30.312.36s-30.315-.161-30.315-.36,13.569-.361,30.315-.361S363.387,290.08,363.387,290.279Z" transform="translate(-302.76 -289.918)" fill="#e0e0e0"></path></g><g transform="translate(70.868 63.286)"><path d="M352.014,299.827c0,.2-20,.361-44.672.361s-44.675-.162-44.675-.361,20-.36,44.675-.36S352.014,299.629,352.014,299.827Z" transform="translate(-262.668 -299.467)" fill="#e0e0e0"></path></g><g transform="translate(70.868 76.508)"><path d="M352.014,309.376c0,.2-20,.361-44.672.361s-44.675-.162-44.675-.361,20-.36,44.675-.36S352.014,309.177,352.014,309.376Z" transform="translate(-262.668 -309.016)" fill="#e0e0e0"></path></g><g transform="translate(132.368 116.171)"><path d="M396.431,338.022c0,.2-20,.361-44.672.361s-44.675-.162-44.675-.361,20-.36,44.675-.36S396.431,337.824,396.431,338.022Z" transform="translate(-307.085 -337.662)" fill="#e0e0e0"></path></g><g transform="translate(105.829 89.73)"><path d="M377.264,318.925c0,.2-20,.36-44.672.36s-44.675-.161-44.675-.36,20-.36,44.675-.36S377.264,318.726,377.264,318.925Z" transform="translate(-287.918 -318.565)" fill="#e0e0e0"></path></g><g transform="translate(215.012 89.73)"><path d="M456.118,318.925c0,.2-20,.36-44.67.36s-44.676-.161-44.676-.36,20-.36,44.676-.36S456.118,318.726,456.118,318.925Z" transform="translate(-366.772 -318.565)" fill="#e0e0e0"></path></g><g transform="translate(177.041 63.286)"><path d="M428.7,299.827c0,.2-20,.361-44.672.361s-44.675-.162-44.675-.361,20-.36,44.675-.36S428.7,299.629,428.7,299.827Z" transform="translate(-339.349 -299.467)" fill="#fafafa"></path></g><g transform="translate(238.758 116.171)"><path d="M473.268,338.022c0,.2-20,.361-44.67.361s-44.676-.162-44.676-.361,20-.36,44.676-.36S473.268,337.824,473.268,338.022Z" transform="translate(-383.922 -337.662)" fill="#fafafa"></path></g><g transform="translate(177.041 76.508)"><path d="M478.087,309.376c0,.2-31.06.361-69.366.361s-69.372-.162-69.372-.361,31.053-.36,69.372-.36S478.087,309.177,478.087,309.376Z" transform="translate(-339.349 -309.016)" fill="#455a64"></path></g><g transform="translate(39.375 36.844)"><path d="M272.327,280.73c0,.2-7.255.36-16.2.36s-16.2-.161-16.2-.36,7.253-.36,16.2-.36S272.327,280.531,272.327,280.73Z" transform="translate(-239.923 -280.37)" fill="#fafafa"></path></g><g transform="translate(39.375 195.5)"><path d="M272.327,395.315c0,.2-7.255.36-16.2.36s-16.2-.161-16.2-.36,7.253-.36,16.2-.36S272.327,395.116,272.327,395.315Z" transform="translate(-239.923 -394.955)" fill="#fafafa"></path></g><g transform="translate(55.428 89.73)"><path d="M283.92,318.925c0,.2-7.254.36-16.2.36s-16.2-.161-16.2-.36,7.253-.36,16.2-.36S283.92,318.726,283.92,318.925Z" transform="translate(-251.517 -318.565)" fill="#fafafa"></path></g><g transform="translate(315.123 89.73)"><path d="M471.479,318.925c0,.2-7.255.36-16.2.36s-16.2-.161-16.2-.36,7.254-.36,16.2-.36S471.479,318.726,471.479,318.925Z" transform="translate(-439.075 -318.565)" fill="#e8505b"></path></g><g transform="translate(56.278 142.536)"><path d="M312.756,357.064c0,.2-13.572.36-30.312.36s-30.313-.161-30.313-.36,13.569-.361,30.313-.361S312.756,356.865,312.756,357.064Z" transform="translate(-252.131 -356.703)" fill="#e8505b"></path></g><g transform="translate(126.38 142.536)"><path d="M363.387,357.064c0,.2-13.573.36-30.312.36s-30.315-.161-30.315-.36,13.569-.361,30.315-.361S363.387,356.865,363.387,357.064Z" transform="translate(-302.76 -356.703)" fill="#e0e0e0"></path></g><g transform="translate(70.868 155.758)"><path d="M352.014,366.613c0,.2-20,.36-44.672.36s-44.675-.162-44.675-.36,20-.361,44.675-.361S352.014,366.414,352.014,366.613Z" transform="translate(-262.668 -366.252)" fill="#e0e0e0"></path></g><g transform="translate(70.868 168.979)"><path d="M352.014,376.161c0,.2-20,.361-44.672.361s-44.675-.162-44.675-.361,20-.36,44.675-.36S352.014,375.962,352.014,376.161Z" transform="translate(-262.668 -375.801)" fill="#e0e0e0"></path></g><g transform="translate(105.829 182.201)"><path d="M377.264,385.71c0,.2-20,.36-44.672.36s-44.675-.161-44.675-.36,20-.36,44.675-.36S377.264,385.511,377.264,385.71Z" transform="translate(-287.918 -385.35)" fill="#e0e0e0"></path></g><g transform="translate(215.012 182.201)"><path d="M456.118,385.71c0,.2-20,.36-44.67.36s-44.676-.161-44.676-.36,20-.36,44.676-.36S456.118,385.511,456.118,385.71Z" transform="translate(-366.772 -385.35)" fill="#e0e0e0"></path></g><g transform="translate(177.041 155.758)"><path d="M428.7,366.613c0,.2-20,.36-44.672.36s-44.675-.162-44.675-.36,20-.361,44.675-.361S428.7,366.414,428.7,366.613Z" transform="translate(-339.349 -366.252)" fill="#fafafa"></path></g><g transform="translate(177.041 168.979)"><path d="M478.087,376.161c0,.2-31.06.361-69.366.361s-69.372-.162-69.372-.361,31.053-.36,69.372-.36S478.087,375.962,478.087,376.161Z" transform="translate(-339.349 -375.801)" fill="#455a64"></path></g><g transform="translate(55.428 182.201)"><path d="M283.92,385.71c0,.2-7.254.36-16.2.36s-16.2-.161-16.2-.36,7.253-.36,16.2-.36S283.92,385.511,283.92,385.71Z" transform="translate(-251.517 -385.35)" fill="#fafafa"></path></g><g transform="translate(315.123 182.201)"><path d="M471.479,385.71c0,.2-7.255.36-16.2.36s-16.2-.161-16.2-.36,7.254-.36,16.2-.36S471.479,385.511,471.479,385.71Z" transform="translate(-439.075 -385.35)" fill="#e8505b"></path></g></g></g><g transform="translate(49.583 596.794)"><path d="M1149.583,444.657c0,.2-246.263.361-549.973.361-303.818,0-550.027-.162-550.027-.361s246.209-.36,550.027-.36C903.32,444.3,1149.583,444.459,1149.583,444.657Z" transform="translate(-49.583 -444.297)" fill="#263238"></path></g><g transform="translate(867.91 390.431)"><g transform="translate(58.828 115.135)"><path d="M568.8,391.849l5.519,17.3a19.981,19.981,0,0,0,15.515,13.9l36.915,6.929,10.041-.323-10.041-12.43L599,407.758a7.44,7.44,0,0,1-5.6-5.317L582.355,378.41l-13.993,8.58Z" transform="translate(-568.362 -378.41)" fill="#ffbe9d"></path></g><g transform="translate(1.913)"><path d="M558.169,307.677a12.2,12.2,0,0,0-2.076-7.665c-1.4-2.232-3.462-4.28-6.066-4.687a7,7,0,0,0-7.186,4.24,9.051,9.051,0,0,0,1.106,8.533,11.524,11.524,0,0,0,3.36,3.144,21.211,21.211,0,0,0-8.366,10.584c-.508,1.47-.854,3-1.5,4.414a6.511,6.511,0,0,1-3.059,3.384c-1.044.468-2.227.522-3.3.918a6.043,6.043,0,0,0-3.644,4.213,7.336,7.336,0,0,0,.984,5.559,5.7,5.7,0,0,1,1.245,2.582,7.023,7.023,0,0,1-.4,1.916,5.259,5.259,0,0,0,8.63,5.138,7.408,7.408,0,0,0,3.192,4c1.573.752,3.895.076,4.223-1.637a4.155,4.155,0,0,0,7.9-1.5l29.769-32.555C578.542,306.351,561.168,307.4,558.169,307.677Z" transform="translate(-527.257 -295.257)" fill="#263238"></path><g transform="translate(2.764 4.589)"><g transform="translate(10.21 10.658)"><g transform="translate(9.576 3.479)"><path d="M546.865,313.8a3.71,3.71,0,0,0-3.32,3.763h0l2.1,50.126c.079,5.919,10.819,12.918,17.157,12.785h0c6.4-.134,4.519-6.927,4.611-12.558.155-9.408.152-12.941.155-12.887,0,0,8.088-1.343,9.763-11.894.833-5.248.569-13.852.126-20.884-.4-6.33-4.593-14.1-10.9-13.429Z" transform="translate(-543.543 -308.781)" fill="#ffbe9d"></path><g transform="translate(26.702 16.523)"><g transform="translate(1.773 2.554)"><path d="M566.809,323.782a1.354,1.354,0,0,1-1.306,1.365,1.294,1.294,0,0,1-1.394-1.22,1.355,1.355,0,0,1,1.3-1.367A1.3,1.3,0,0,1,566.809,323.782Z" transform="translate(-564.108 -322.559)" fill="#263238"></path></g><path d="M568.175,322.136c-.168.177-1.192-.581-2.649-.577-1.454-.018-2.523.731-2.681.554-.078-.079.093-.4.558-.737a3.707,3.707,0,0,1,2.146-.662,3.571,3.571,0,0,1,2.109.681C568.108,321.739,568.258,322.057,568.175,322.136Z" transform="translate(-562.828 -320.714)" fill="#263238"></path></g><g transform="translate(12.387 16.794)"><g transform="translate(1.852 2.283)"><path d="M556.527,323.782a1.352,1.352,0,0,1-1.3,1.365,1.293,1.293,0,0,1-1.394-1.22,1.353,1.353,0,0,1,1.3-1.367A1.3,1.3,0,0,1,556.527,323.782Z" transform="translate(-553.827 -322.559)" fill="#263238"></path></g><path d="M557.839,322.333c-.169.176-1.195-.583-2.65-.579-1.454-.017-2.523.732-2.681.554-.077-.079.091-.4.558-.737a3.717,3.717,0,0,1,2.146-.662,3.563,3.563,0,0,1,2.109.681C557.768,321.935,557.92,322.254,557.839,322.333Z" transform="translate(-552.49 -320.91)" fill="#263238"></path></g><g transform="translate(22.339 16.883)"><path d="M560.359,333.107a9.573,9.573,0,0,1,2.365-.426c.371-.039.723-.114.786-.367a1.89,1.89,0,0,0-.249-1.1q-.523-1.35-1.1-2.832c-1.527-4.031-2.632-7.345-2.469-7.4s1.533,3.158,3.059,7.189q.552,1.491,1.054,2.85a2.147,2.147,0,0,1,.194,1.458.935.935,0,0,1-.612.544,2.43,2.43,0,0,1-.631.087A9.432,9.432,0,0,1,560.359,333.107Z" transform="translate(-559.677 -320.974)" fill="#263238"></path></g><g transform="translate(9.895 42.477)"><path d="M564.821,343.229a26.849,26.849,0,0,1-14.131-3.77s3.428,7.248,13.989,6.261Z" transform="translate(-550.69 -339.459)" fill="#eb996e"></path></g><g transform="translate(18.061 31.536)"><path d="M560.932,332.546a2.623,2.623,0,0,0-2.352-.973,2.4,2.4,0,0,0-1.655.886,1.52,1.52,0,0,0-.115,1.736,1.764,1.764,0,0,0,1.909.483,5.522,5.522,0,0,0,1.861-1.112,1.615,1.615,0,0,0,.415-.431.487.487,0,0,0,0-.541" transform="translate(-556.588 -331.557)" fill="#eb996e"></path></g><g transform="translate(18.499 30.022)"><path d="M557.141,330.464c.237-.014.24,1.567,1.592,2.689s3.035.948,3.048,1.169c.022.1-.375.307-1.087.327a3.936,3.936,0,0,1-2.543-.886,3.428,3.428,0,0,1-1.234-2.254C556.856,330.846,557.031,330.456,557.141,330.464Z" transform="translate(-556.904 -330.464)" fill="#263238"></path></g><g transform="translate(11.746 14.576)"><path d="M558.672,320.4c-.144.4-1.6.209-3.307.414-1.713.172-3.09.672-3.316.317-.1-.17.138-.543.7-.926a5.8,5.8,0,0,1,5.046-.557C558.417,319.9,558.734,320.211,558.672,320.4Z" transform="translate(-552.027 -319.308)" fill="#e8505b"></path></g><g transform="translate(26.556 12.222)"><path d="M567.681,319.117c-.256.33-1.26-.012-2.466-.029-1.206-.058-2.228.221-2.463-.125-.1-.168.058-.5.505-.811a3.563,3.563,0,0,1,3.97.123C567.654,318.615,567.794,318.955,567.681,319.117Z" transform="translate(-562.722 -317.608)" fill="#e8505b"></path></g></g><g transform="translate(5.564 25.042)"><path d="M545.826,324.686a2.643,2.643,0,0,0-2.758.138,4.891,4.891,0,0,0,3.082,9.084" transform="translate(-540.646 -324.355)" fill="#ffbe9d"></path></g><g transform="translate(8.123)"><path d="M561.7,306.272a21.426,21.426,0,0,1,10.138,3.144,14.673,14.673,0,0,1,7.237,8.6,3,3,0,0,1-.086,2.376,2.326,2.326,0,0,1-2.894.624,6.807,6.807,0,0,1-2.354-2.171,4.511,4.511,0,0,1-8.76-.1,3.954,3.954,0,0,1-4.068,3.628,5.216,5.216,0,0,1-4.49-3.546,13.223,13.223,0,0,1-1.855,5.152,4.506,4.506,0,0,1-4.778,1.945,9.34,9.34,0,0,1-.069,4.72c-.557,1.49-2.214,2.7-3.719,2.181-1.462-.5-2.03-2.233-2.372-3.741a35.172,35.172,0,0,1-1.13-8.844,12.958,12.958,0,0,1,10.45-13.132,34.262,34.262,0,0,1,9.183-.836" transform="translate(-542.494 -306.269)" fill="#263238"></path></g><g transform="translate(7.631 27.395)"><path d="M544.515,330.108c-.03-.075-.41.09-.919-.144a1.837,1.837,0,0,1-.906-1.8,1.861,1.861,0,0,1,1.126-1.692c.528-.216.917-.111.939-.192.037-.053-.359-.332-1.055-.176a1.935,1.935,0,0,0-1.031.642,2.358,2.358,0,0,0-.523,1.389,2.1,2.1,0,0,0,1.321,2.2C544.183,330.517,544.57,330.151,544.515,330.108Z" transform="translate(-542.139 -326.054)" fill="#eb996e"></path></g><g transform="translate(0 31.992)"><path d="M542.624,329.378a1.379,1.379,0,0,0-.435.119,7.367,7.367,0,0,0-1.176.526,8.8,8.8,0,0,0-3.438,3.247,6.646,6.646,0,0,0-.941,3.178,7.414,7.414,0,0,0,.878,3.705,8.763,8.763,0,0,0,2.807,3.131,7.789,7.789,0,0,0,4.3,1.383,8.167,8.167,0,0,0,7.128-4.454,6.967,6.967,0,0,0,.75-3.736,7.79,7.79,0,0,0-1.019-3.153,7.535,7.535,0,0,0-3.492-3.174,5.037,5.037,0,0,0-1.234-.382,1.408,1.408,0,0,0-.449-.046c-.013.058.609.138,1.592.62a7.621,7.621,0,0,1,3.246,3.171,7.519,7.519,0,0,1,.9,3,6.55,6.55,0,0,1-.746,3.471,7.713,7.713,0,0,1-6.675,4.137,7.894,7.894,0,0,1-6.664-4.2,6.585,6.585,0,0,1-.044-6.456,9.053,9.053,0,0,1,3.207-3.252C542.06,329.637,542.643,329.427,542.624,329.378Z" transform="translate(-536.627 -329.374)" fill="#263238"></path></g></g><g transform="translate(12.511)"><path d="M550.694,308.522c-.115.025-.328-.919-.986-2.3a12.665,12.665,0,0,0-8.956-7.066c-1.493-.32-2.46-.307-2.463-.424a5.223,5.223,0,0,1,2.549-.079,11.676,11.676,0,0,1,9.339,7.366A5.26,5.26,0,0,1,550.694,308.522Z" transform="translate(-538.289 -298.571)" fill="#e0e0e0"></path></g><g transform="translate(0 11.854)"><path d="M529.913,345.31c-.008.014-.177-.064-.374-.346a1.957,1.957,0,0,1-.248-1.441,3.01,3.01,0,0,1,1.3-1.915,26.533,26.533,0,0,1,2.62-1.44,3.193,3.193,0,0,0,1.822-2.611,15.105,15.105,0,0,0-.713-3.967,7.472,7.472,0,0,1-.22-2.322,3.955,3.955,0,0,1,.989-2.305,9.608,9.608,0,0,1,4.456-2.343c1.57-.5,3.139-1.087,3.981-2.294a5.937,5.937,0,0,0,.66-4.169,21.5,21.5,0,0,1-.281-4.175,11.448,11.448,0,0,1,4-7.809,7.677,7.677,0,0,1,1.171-.825c.287-.159.442-.233.454-.21.036.055-.552.411-1.439,1.245a11.671,11.671,0,0,0-2.836,4.222,10.952,10.952,0,0,0-.755,3.417,21.8,21.8,0,0,0,.345,4.061,6.53,6.53,0,0,1-.744,4.65c-1.022,1.458-2.761,2.066-4.338,2.575a9.112,9.112,0,0,0-4.148,2.125,4.278,4.278,0,0,0-.647,4.018,14.923,14.923,0,0,1,.659,4.158,3.618,3.618,0,0,1-.735,1.875,4.649,4.649,0,0,1-1.43,1.128c-1.005.533-1.943.845-2.639,1.326a2.757,2.757,0,0,0-1.256,1.642A1.992,1.992,0,0,0,529.913,345.31Z" transform="translate(-529.253 -307.132)" fill="#e0e0e0"></path></g><g transform="translate(25.269 9.764)"><path d="M560.5,318.658c-.119.011-.212-1.113-.767-2.808a14.441,14.441,0,0,0-9.425-9.4c-1.695-.551-2.82-.641-2.809-.76a6.545,6.545,0,0,1,2.951.27,13.5,13.5,0,0,1,9.774,9.748A6.548,6.548,0,0,1,560.5,318.658Z" transform="translate(-547.503 -305.623)" fill="#e0e0e0"></path></g><g transform="translate(25.025 8.37)"><path d="M569.079,314.419a24.606,24.606,0,0,0-1.833-3.262,14.539,14.539,0,0,0-7.23-5.032,22.405,22.405,0,0,0-8.931-.712c-2.314.244-3.732.57-3.758.457a12.543,12.543,0,0,1,3.693-.962,20.425,20.425,0,0,1,9.212.529,14.029,14.029,0,0,1,7.431,5.426,9.843,9.843,0,0,1,1.227,2.541A2.479,2.479,0,0,1,569.079,314.419Z" transform="translate(-547.327 -304.616)" fill="#e0e0e0"></path></g><g transform="translate(17.127 7.296)"><path d="M552.858,303.848c.068.048-.264.7-1.08,1.538a10.434,10.434,0,0,1-8.346,2.975,3.514,3.514,0,0,1-1.808-.507c.025-.222,2.856.453,6.072-.73C550.932,306.008,552.7,303.693,552.858,303.848Z" transform="translate(-541.623 -303.841)" fill="#263238"></path></g></g></g><g transform="translate(1.11 164.877)"><g transform="translate(25.554 0.008)"><path d="M558.915,456.268c-25.354-8.394-7.968-41.927-7.968-41.927l110.8,10.422a16.03,16.03,0,0,1,16.139,16.03h0a16.031,16.031,0,0,1-16.031,16.032l-102.943-.557" transform="translate(-545.133 -414.341)" fill="#263238"></path></g><path d="M540.073,456.237c-24.7-8.338-7.679-41.9-7.679-41.9l108.019,10.184c10.549.137,15.7,5.227,15.7,15.994h0c-.018,8.852-3.29,16.315-15.665,16.062l-100.376-.336" transform="translate(-526.677 -414.335)" fill="#263238"></path><g transform="translate(38.473 5.655)"><path d="M554.463,418.432a1.238,1.238,0,0,1,.307-.012l.9.022,3.457.143,12.709.629c10.763.591,25.565,1.4,41.916,2.3,2.045.1,4.071.276,6.059.3s3.971.115,5.9.231,3.83.262,5.685.462a20.261,20.261,0,0,1,5.4,1.108,12.982,12.982,0,0,1,4.493,2.877,11.969,11.969,0,0,1,2.725,4.373,21.929,21.929,0,0,1,1.109,4.726,33,33,0,0,1,.3,4.467A19,19,0,0,1,644,447.58a12.376,12.376,0,0,1-3.359,4.578,9.078,9.078,0,0,1-3.06,1.727c-.763.241-.777.162-.035-.112a9.509,9.509,0,0,0,2.959-1.792,12.336,12.336,0,0,0,3.212-4.535,18.8,18.8,0,0,0,1.317-7.388,32.753,32.753,0,0,0-.328-4.4,21.616,21.616,0,0,0-1.113-4.611,11.515,11.515,0,0,0-2.632-4.177,12.514,12.514,0,0,0-4.334-2.746,19.848,19.848,0,0,0-5.281-1.058c-1.844-.194-3.736-.332-5.662-.446s-3.889-.192-5.88-.222-4.02-.2-6.069-.3c-16.351-.964-31.155-1.836-41.919-2.469l-12.7-.815-3.452-.252-.9-.08A1.2,1.2,0,0,1,554.463,418.432Z" transform="translate(-554.463 -418.419)" fill="#455a64"></path></g></g><g transform="translate(0 68.752)"><path d="M603.865,448.888l-8.884-4.359L588.8,423.917l-.59-26.255,12.539-5.289-9.948-25c-1.817-3.694-5.476-13.476-14.9-16.7-.051-1.812-.005-3.594.324-4.14.744-1.227-22.96-1.963-24.307-1.473-1.249.457.215,4.82.064,5.554-8.424,2.323-16.624,5.79-19.691,17.384-1.2,4.521-.8,14.044-.152,18.637l6.588,34.8-3.7,11.419s-12.945,26.969-8.039,37.513,13.255,12.912,13.255,12.912l64.5-.127Z" transform="translate(-525.875 -344.911)" fill="#202f69"></path><g transform="translate(6.619 0.135)"><g transform="translate(6.646 30.639)"><g transform="translate(0 29.84)" opacity="0.3"><path d="M535.456,390.783c1.137,4.785,2.88,11.9,4.735,16.456a35.615,35.615,0,0,0,5.18,9.5,24.036,24.036,0,0,0,12.428,7.584,39.332,39.332,0,0,0,14.691.721L548.08,411.252l-6.492-22.564Z" transform="translate(-535.456 -388.688)" fill="#d1d1d1"></path></g><g transform="translate(48.143)"><path d="M571.723,414.649a11.449,11.449,0,0,1-.172-1.864c-.064-1.3-.147-3.018-.248-5.089-.184-4.3-.4-10.235-.6-16.793s-.346-12.5-.422-16.8c-.025-2.073-.044-3.788-.06-5.094a11.432,11.432,0,0,1,.058-1.872,11.2,11.2,0,0,1,.172,1.862c.064,1.3.148,3.017.249,5.087.184,4.3.4,10.235.6,16.8s.345,12.5.422,16.8c.023,2.071.044,3.788.06,5.094A11.066,11.066,0,0,1,571.723,414.649Z" transform="translate(-570.226 -367.137)" fill="#d1d1d1"></path></g></g><g transform="translate(0 12.368)"><path d="M563.055,395.148a2.409,2.409,0,0,1-.443.184l-1.372.5-5.324,1.875-19.466,6.719-.32.111-.062-.336c-1.324-7.08-2.872-15.36-4.546-24.311l0-.021v-.028c-.266-4.41-1.145-9.024-.767-13.868a12.777,12.777,0,0,1,.946-3.394,16.1,16.1,0,0,1,1.613-3.064,13,13,0,0,1,5.122-4.368,11.251,11.251,0,0,1,12.162,1.311,15.135,15.135,0,0,1,3.245,4.965,45.565,45.565,0,0,1,1.9,5.2c1.026,3.41,1.806,6.636,2.577,9.588,1.48,5.829,2.683,10.566,3.532,13.911.39,1.581.7,2.833.926,3.745.09.389.165.706.224.964a1.2,1.2,0,0,1,.055.316,2.356,2.356,0,0,1-.12-.35l-.291-.993c-.258-.919-.612-2.181-1.059-3.776-.908-3.308-2.193-7.992-3.773-13.758-.795-2.881-1.6-6.084-2.642-9.471a45.684,45.684,0,0,0-1.911-5.119,14.619,14.619,0,0,0-3.106-4.727,10.593,10.593,0,0,0-11.406-1.178,12.31,12.31,0,0,0-4.846,4.141,15.422,15.422,0,0,0-1.538,2.928,12.193,12.193,0,0,0-.9,3.2c-.367,4.67.492,9.282.756,13.756l-.006-.047c1.631,8.96,3.139,17.247,4.429,24.333l-.384-.224,19.4-6.378,5.432-1.75,1.446-.451A3.91,3.91,0,0,1,563.055,395.148Z" transform="translate(-530.656 -353.941)" fill="#d1d1d1"></path><g transform="translate(11.303 42.625)"><path d="M540.5,389.745c-.19.061-.7-1.014-1.149-2.4s-.652-2.557-.462-2.618.7,1.012,1.149,2.4S540.691,389.684,540.5,389.745Z" transform="translate(-538.819 -384.726)" fill="#d1d1d1"></path></g><g transform="translate(18.053 41.01)"><path d="M544.975,388.4c-.194.047-.615-1-.943-2.333s-.435-2.459-.241-2.506.615,1,.941,2.334S545.168,388.354,544.975,388.4Z" transform="translate(-543.694 -383.56)" fill="#d1d1d1"></path></g><g transform="translate(24.445 39.533)"><path d="M549.606,386.518c-.191.057-.616-.8-.947-1.908s-.447-2.058-.256-2.114.615.8.947,1.908S549.8,386.461,549.606,386.518Z" transform="translate(-548.31 -382.493)" fill="#d1d1d1"></path></g></g><g transform="translate(58.538 44)"><g transform="translate(0 1.925)"><path d="M574.812,382.869c-.167.1-.894-.818-1.4-2.153s-.572-2.5-.381-2.538.57,1.014,1.055,2.283S574.988,382.767,574.812,382.869Z" transform="translate(-572.933 -378.177)" fill="#d1d1d1"></path></g><g transform="translate(4.696)"><path d="M578.328,380.669c-.179.09-.759-.7-1.3-1.775s-.832-2.012-.654-2.1.759.7,1.3,1.776S578.506,380.581,578.328,380.669Z" transform="translate(-576.325 -376.787)" fill="#d1d1d1"></path></g></g><g transform="translate(22.322)"><path d="M547.6,351.625c.071.007.112.234.126.63l-.382,0a26.241,26.241,0,0,1-.443-3.293c-.18-2.164-.165-3.932.035-3.949s.5,1.725.684,3.889a26.342,26.342,0,0,1,.108,3.32l-.384,0C547.443,351.83,547.532,351.616,547.6,351.625Z" transform="translate(-546.777 -345.009)" fill="#d1d1d1"></path><g transform="translate(5.912 0.152)"><path d="M551.721,351.588c-.2.015-.467-1.421-.6-3.207s-.08-3.247.118-3.262.468,1.421.6,3.208S551.921,351.574,551.721,351.588Z" transform="translate(-551.047 -345.119)" fill="#d1d1d1"></path></g><g transform="translate(12.198 0.155)"><path d="M556,352.886c-.2,0-.383-1.734-.413-3.878s.109-3.884.309-3.887.384,1.734.413,3.877S556.2,352.883,556,352.886Z" transform="translate(-555.587 -345.121)" fill="#d1d1d1"></path></g><g transform="translate(17.192 0.478)"><path d="M559.555,351.986c-.2,0-.361-1.486-.361-3.316s.162-3.316.361-3.316.36,1.484.36,3.316S559.753,351.986,559.555,351.986Z" transform="translate(-559.194 -345.354)" fill="#d1d1d1"></path></g></g></g><g transform="translate(24.759 101.023)"><path d="M597.4,421.565c-.014.2-12.034-.458-26.843-1.468s-26.812-1.99-26.8-2.189,12.031.46,26.846,1.469S597.412,421.367,597.4,421.565Z" transform="translate(-543.757 -417.873)" fill="#ececec"></path></g></g><g transform="translate(16.136 123.643)"><path d="M537.529,391.461l5.947,19.344a20.069,20.069,0,0,0,15.513,14.075L595.9,431.9l10.041-.327L602.532,423,568.155,409.4a7.475,7.475,0,0,1-5.6-5.383l-5.2-19.464Z" transform="translate(-537.529 -384.555)" fill="#ffbe9d"></path><g transform="translate(32.635 8.996)"><path d="M561.1,429.655l.315-2.392,28.36-1.115,13.919-35.1,53.019,3.6-17.891,38.96Z" transform="translate(-561.099 -391.052)" fill="#455a64"></path><g transform="translate(58.332 18.5)"><path d="M608.354,408.68a2.779,2.779,0,1,1-.861-3.835A2.781,2.781,0,0,1,608.354,408.68Z" transform="translate(-603.227 -404.413)" fill="#fff"></path></g></g></g></g><g transform="translate(273.722 103.1)"><g transform="translate(0 163.279)"><g transform="translate(40.479)"><path d="M317.07,248.9c23.1-8.389,11.239-43.233,11.239-43.233L211.033,216.41a16.529,16.529,0,0,0-16.642,16.53h0a16.53,16.53,0,0,0,16.529,16.53l106.15-.573" transform="translate(-194.391 -205.663)" fill="#263238"></path></g><g transform="translate(0 5.823)"><g transform="translate(0 114.364)"><g transform="translate(0.022)"><path d="M177.3,312.017l-.237-11.629,22.306-7.923.922,16.192-1.254.605c-5.6,2.647-28.664,13.062-32.968,13.458C161.27,323.16,177.3,312.017,177.3,312.017Z" transform="translate(-165.172 -292.465)" fill="#e8505b"></path></g><g transform="translate(0 15.74)" opacity="0.4"><path d="M169.6,313.4s-5.46,4.3-4.274,5,24.89-8.945,34.973-14.115l-.221-.451-27.554,11.491S170.829,312.956,169.6,313.4Z" transform="translate(-165.156 -303.833)" fill="#fff"></path></g><g transform="translate(0.02 15.594)"><path d="M200.39,303.728a1.926,1.926,0,0,1-.341.184l-1,.479-3.708,1.7c-3.14,1.411-7.5,3.305-12.369,5.291s-9.31,3.684-12.542,4.872q-2.27.814-3.838,1.379l-1.05.356a2.154,2.154,0,0,1-.372.108,1.992,1.992,0,0,1,.354-.159l1.032-.4,3.806-1.459c3.214-1.234,7.643-2.962,12.507-4.944s9.235-3.848,12.394-5.214l3.741-1.619,1.022-.433A2.169,2.169,0,0,1,200.39,303.728Z" transform="translate(-165.171 -303.727)" fill="#263238"></path></g><g transform="translate(4.19 25.092)"><path d="M171.5,313.046a5.917,5.917,0,0,0-3.312-2.434,3.621,3.621,0,0,1,3.312,2.434Z" transform="translate(-168.183 -310.587)" fill="#263238"></path></g><g transform="translate(10.559 20.659)"><path d="M174.587,308.677c-.044.061-.482-.176-.979-.53s-.865-.691-.822-.752.482.177.979.53S174.63,308.616,174.587,308.677Z" transform="translate(-172.783 -307.385)" fill="#263238"></path></g><g transform="translate(11.913 19.716)"><path d="M175.53,307.366c-.025.071-.442-.015-.93-.191s-.864-.375-.838-.446.442.015.93.191S175.556,307.3,175.53,307.366Z" transform="translate(-173.76 -306.704)" fill="#263238"></path></g><g transform="translate(11.787 17.968)"><path d="M175.83,305.459c.029.069-.431.328-1.027.579a2.639,2.639,0,0,1-1.133.328c-.029-.068.431-.328,1.027-.579A2.64,2.64,0,0,1,175.83,305.459Z" transform="translate(-173.669 -305.442)" fill="#263238"></path></g><g transform="translate(11.368 16.448)"><path d="M175.749,304.351c.048.053-.382.505-1.065.843a2.273,2.273,0,0,1-1.317.342,7.183,7.183,0,0,1,1.195-.584A7.094,7.094,0,0,1,175.749,304.351Z" transform="translate(-173.367 -304.344)" fill="#263238"></path></g><g transform="translate(6.49 19.445)"><path d="M174.276,307.49a4.139,4.139,0,0,1-1.339.534,8.462,8.462,0,0,1-1.547.266,4.281,4.281,0,0,1-.95,0,.779.779,0,0,1-.5-.281.563.563,0,0,1-.015-.615,2.642,2.642,0,0,1,3.318-.516,2.6,2.6,0,0,1,.8.713c.145.206.2.339.18.346a4.1,4.1,0,0,0-1.07-.89,2.605,2.605,0,0,0-1.441-.277,2.235,2.235,0,0,0-1.545.756c-.148.244.036.458.328.5a4.251,4.251,0,0,0,.881.015,10.123,10.123,0,0,0,1.519-.2C173.75,307.654,174.26,307.448,174.276,307.49Z" transform="translate(-169.843 -306.508)" fill="#263238"></path></g><g transform="translate(9.988 17.498)"><path d="M172.985,308.237a1.426,1.426,0,0,1-.53-.863,2.372,2.372,0,0,1-.033-1.123,1.451,1.451,0,0,1,.835-1.133.573.573,0,0,1,.662.449,1.572,1.572,0,0,1,.015.688,4.377,4.377,0,0,1-.3,1.063,2.092,2.092,0,0,1-.544.852c-.036-.024.169-.348.364-.921a5,5,0,0,0,.233-1.027c.069-.356-.012-.914-.371-.838-.348.1-.554.575-.649.924a2.372,2.372,0,0,0-.024,1.02A5.274,5.274,0,0,0,172.985,308.237Z" transform="translate(-172.37 -305.103)" fill="#263238"></path></g><g transform="translate(27.099 10.082)"><path d="M190.132,299.751c.015.048-.618.186-1.511.678a7.025,7.025,0,0,0-3.673,6.548c.046,1.019.258,1.63.209,1.642a1.284,1.284,0,0,1-.172-.418,5.884,5.884,0,0,1-.228-1.212,6.809,6.809,0,0,1,3.774-6.731,6.054,6.054,0,0,1,1.155-.436A1.355,1.355,0,0,1,190.132,299.751Z" transform="translate(-184.728 -299.746)" fill="#263238"></path></g><g transform="translate(26.83 2.323)"><path d="M184.538,294.143a78.115,78.115,0,0,1,3.582,8.488,78.147,78.147,0,0,1-3.582-8.488Z" transform="translate(-184.534 -294.143)" fill="#263238"></path></g><g transform="translate(18.066 18.122)"><path d="M184.247,305.558a18.412,18.412,0,0,1-6.042,2.527c-.024-.076,1.365-.544,3.03-1.243S184.209,305.489,184.247,305.558Z" transform="translate(-178.204 -305.553)" fill="#263238"></path></g><g transform="translate(27.897 16.462)"><path d="M185.582,304.357c.072.03.006.332-.006.7s.025.673-.048.7-.241-.284-.223-.709S185.517,304.325,185.582,304.357Z" transform="translate(-185.304 -304.354)" fill="#263238"></path></g><g transform="translate(28.443 13.929)"><path d="M186.188,302.528c.069.029.022.3-.1.605s-.284.529-.353.5-.024-.3.1-.6S186.119,302.5,186.188,302.528Z" transform="translate(-185.699 -302.525)" fill="#263238"></path></g><g transform="translate(29.731 12.127)"><path d="M187.669,301.263c.014.078-.263.187-.525.418s-.414.483-.487.458-.017-.382.31-.663S187.663,301.191,187.669,301.263Z" transform="translate(-186.629 -301.223)" fill="#263238"></path></g><g transform="translate(31.625 11.101)"><path d="M188.537,300.5c.051.054-.025.209-.169.346s-.3.2-.356.15.024-.209.169-.346S188.486,300.447,188.537,300.5Z" transform="translate(-187.996 -300.482)" fill="#263238"></path></g></g><g transform="translate(2.719)"><g transform="translate(0 3.341)"><path d="M266.081,212.282l-65.494,1.225a21.032,21.032,0,0,0-20.481,18.46L167.12,337.513h35.569l10.862-91.163h51.643Z" transform="translate(-167.12 -212.282)" fill="#263238"></path><g transform="translate(0.443 118.305)"><path d="M167.44,297.941c0,.169,7.791.354,17.4.414s17.238-.181,17.407-.2c1.1-.108-7.79-.354-17.4-.414S167.44,297.771,167.44,297.941Z" transform="translate(-167.44 -297.725)" fill="#455a64"></path></g></g><g transform="translate(38.073)"><path d="M291.526,209.882a1.305,1.305,0,0,0-.327-.012l-.96.022-3.683.143-13.539.636-44.657,2.319c-2.178.1-4.337.278-6.455.306s-4.23.116-6.289.233-4.079.264-6.056.467a22.664,22.664,0,0,0-5.756,1.119,13.935,13.935,0,0,0-4.785,2.9,12.033,12.033,0,0,0-2.9,4.413,21.147,21.147,0,0,0-1.181,4.77,31.379,31.379,0,0,0-.317,4.508,18.32,18.32,0,0,0,1.519,7.592,12.567,12.567,0,0,0,3.579,4.618,9.837,9.837,0,0,0,3.259,1.743c.813.244.828.165.036-.112a10.253,10.253,0,0,1-3.151-1.808,12.512,12.512,0,0,1-3.423-4.576,18.138,18.138,0,0,1-1.4-7.458,31.475,31.475,0,0,1,.35-4.442,20.783,20.783,0,0,1,1.187-4.655,11.52,11.52,0,0,1,2.8-4.215,13.472,13.472,0,0,1,4.616-2.772,22.235,22.235,0,0,1,5.626-1.068c1.965-.2,3.979-.335,6.031-.45s4.144-.194,6.265-.223,4.281-.2,6.465-.3l44.658-2.492,13.532-.822,3.678-.253.955-.082A1.335,1.335,0,0,0,291.526,209.882Z" transform="translate(-194.617 -209.869)" fill="#455a64"></path></g></g></g></g><g transform="translate(57.088 111.482)"><path d="M266.139,182.111l-5.691,17.834a20.6,20.6,0,0,1-16,14.332l-33.073,9.168-2.578-6.124-2.413-9.05L235,198.515a7.666,7.666,0,0,0,5.772-5.482l11.391-24.779,14.428,8.848Z" transform="translate(-206.387 -168.254)" fill="#b78876"></path></g><g transform="translate(95.672 68.179)"><path d="M269.288,138.341c-12.114,1.415-16.016,6.342-20.964,13.5a40.716,40.716,0,0,0-4.895,9.6l-9.176,26,19.149,5.905-.638,21.234-8.72,25.848,73.564,5.785-.212-37.56-.526-22.665c.694-8.585,2.483-26.791.953-31.1-6.545-18.45-20.987-14.91-31.583-17.539-2.185-.543-12.756-.433-14.592.019" transform="translate(-234.253 -136.979)" fill="#ed1c24"></path><g transform="translate(19.072 68.937)"><path d="M312.306,187.128c0,.2-14.39.36-32.138.36s-32.141-.162-32.141-.36,14.387-.361,32.141-.361S312.306,186.929,312.306,187.128Z" transform="translate(-248.027 -186.767)" fill="#fafafa"></path></g><g transform="translate(17.999 81.78)"><path d="M311.53,196.4c0,.2-14.39.36-32.138.36s-32.14-.161-32.14-.36,14.386-.36,32.14-.36S311.53,196.2,311.53,196.4Z" transform="translate(-247.252 -196.043)" fill="#fafafa"></path></g><g transform="translate(14.644 96.514)"><path d="M312.8,207.044c0,.2-15.218.361-33.985.361s-33.988-.162-33.988-.361,15.214-.36,33.988-.36S312.8,206.846,312.8,207.044Z" transform="translate(-244.829 -206.684)" fill="#fafafa"></path></g><g transform="translate(3.048 56.369)"><g transform="translate(16.888 3.061)" opacity="0.3"><path d="M302.4,181.556c-.961,4.98-1.364,10.351-3.074,15.128a36.793,36.793,0,0,1-4.921,10.012,24.775,24.775,0,0,1-12.471,8.358c-4.859,1.505-28.216,6.731-33.286,6.34l42.726-20.231,5.151-21.262Z" transform="translate(-248.651 -179.901)"></path></g><path d="M304.6,181.664l-4.7,18.086a20.7,20.7,0,0,1-15.365,15.18l-37.722,8.846-10.36.1V209.64l37.962-10.254a7.712,7.712,0,0,0,5.532-5.792l3.658-15.9Z" transform="translate(-236.454 -177.69)" fill="#b78876"></path><g transform="translate(40.789 2.28)" opacity="0.3"><path d="M265.913,179.337" transform="translate(-265.913 -179.337)" fill="none" stroke="#000" stroke-miterlimit="10" stroke-width="0.25"></path></g></g><g transform="translate(12.885 16.464)"><path d="M314.4,149.23c0,.2-15.859.361-35.42.361s-35.423-.162-35.423-.361,15.857-.36,35.423-.36S314.4,149.031,314.4,149.23Z" transform="translate(-243.559 -148.87)" fill="#fafafa"></path></g><g transform="translate(7.822 28.719)"><path d="M316.252,158.082c0,.2-17.093.36-38.174.36s-38.177-.161-38.177-.36,17.089-.361,38.177-.361S316.252,157.883,316.252,158.082Z" transform="translate(-239.902 -157.721)" fill="#fafafa"></path></g><g transform="translate(2.794 42.169)"><path d="M316.655,167.6c0,.2-17.993.5-40.187.676s-40.2.154-40.2-.046,17.989-.5,40.191-.676S316.653,167.4,316.655,167.6Z" transform="translate(-236.271 -167.435)" fill="#fafafa"></path></g><g transform="translate(18.339 56.007)"><path d="M311.776,177.79c0,.2-14.39.36-32.138.36s-32.14-.161-32.14-.36,14.386-.361,32.14-.361S311.776,177.591,311.776,177.79Z" transform="translate(-247.498 -177.429)" fill="#fafafa"></path></g><g transform="translate(47.124 7.115)"><path d="M298.818,196.853a1.029,1.029,0,0,1,.021-.3l.123-.871q.189-1.225.518-3.36c.453-2.927,1.115-7.183,1.848-12.513.713-5.328,1.58-11.733,2-18.96.145-3.574.444-7.541-1.421-11.042a11.887,11.887,0,0,0-3.889-4.4,13.912,13.912,0,0,0-5.7-2.207l-.046-.007-.033-.01a11.7,11.7,0,0,0-7,.474,19.843,19.843,0,0,0-6.491,3.527,5.42,5.42,0,0,0-.989,1.109,14.669,14.669,0,0,0-.73,1.365,19.873,19.873,0,0,0-1.066,2.9,57.725,57.725,0,0,0-1.281,6.024c-.716,4.008-1.412,7.9-2.082,11.66-1.351,7.5-2.6,14.432-3.7,20.56l-.208-.323,21.3,4.56,5.858,1.3,1.529.361a2.587,2.587,0,0,1,.516.151,2.439,2.439,0,0,1-.533-.066l-1.547-.28-5.9-1.148-21.374-4.324-.256-.053.047-.271c1.073-6.139,2.287-13.082,3.6-20.593.662-3.759,1.349-7.66,2.056-11.672a57.826,57.826,0,0,1,1.286-6.085,20.7,20.7,0,0,1,1.1-3.01,15.218,15.218,0,0,1,.768-1.436,6.073,6.073,0,0,1,1.124-1.272,20.472,20.472,0,0,1,6.746-3.671,12.355,12.355,0,0,1,7.452-.461l-.079-.017a14.521,14.521,0,0,1,6.019,2.339,12.532,12.532,0,0,1,4.1,4.67,15.246,15.246,0,0,1,1.07,2.837,17.77,17.77,0,0,1,.436,2.917q.039.727.079,1.446c-.01.475-.019.946-.029,1.415-.011.936-.06,1.858-.119,2.766-.468,7.264-1.389,13.663-2.166,18.99-.8,5.325-1.529,9.573-2.058,12.488q-.405,2.125-.637,3.342l-.186.861A1.122,1.122,0,0,1,298.818,196.853Z" transform="translate(-268.287 -142.118)" fill="#263238"></path></g><g transform="translate(18.209 28.265)"><path d="M248.132,206.4a11.441,11.441,0,0,0,.1-1.927c.008-1.347.019-3.117.033-5.253,0-4.435-.04-10.56-.123-17.326s-.191-12.892-.3-17.327c-.065-2.135-.119-3.9-.161-5.25a11.594,11.594,0,0,0-.144-1.926,11.8,11.8,0,0,0-.1,1.926c-.008,1.346-.019,3.115-.032,5.252,0,4.435.039,10.562.122,17.331s.192,12.894.3,17.327c.065,2.136.119,3.9.161,5.25A11.827,11.827,0,0,0,248.132,206.4Z" transform="translate(-247.404 -157.393)" fill="#263238"></path></g></g><g transform="translate(39.151 131.494)"><path d="M291.983,225.034l.661-3.085-28.571-3.037-12.459-35.8-58.181-.4,19.062,41.511Z" transform="translate(-193.432 -182.707)" fill="#455a64"></path><g transform="translate(32.879 17.612)"><path d="M221.577,200.712a2.865,2.865,0,1,0-3.953-.886,2.866,2.866,0,0,0,3.953.886" transform="translate(-217.178 -195.427)" fill="#fff"></path></g></g><g transform="translate(109.509)"><g transform="translate(0 10.384)"><path d="M250.758,95.477a7.716,7.716,0,0,0-2.753,14.253,4.158,4.158,0,0,0,3.887.453A4.794,4.794,0,0,0,254,107.141a16.378,16.378,0,0,0-.926-11.9" transform="translate(-244.247 -95.239)" fill="#263238"></path></g><g transform="translate(2.661)"><g transform="translate(4.377 13.541)"><path d="M272.812,165.272h0a12.415,12.415,0,0,1-12.41-12.557c.047-4.313.119-8.045.119-8.045s-9.976-.926-10.707-10.8-.418-32.662-.418-32.662h0a34.4,34.4,0,0,1,34.768,2.208l1.533,1.036-.472,48.527A12.413,12.413,0,0,1,272.812,165.272Z" transform="translate(-249.329 -97.519)" fill="#b78876"></path><g transform="translate(11.167 42.556)"><path d="M257.394,132.708a23.009,23.009,0,0,0,12.653-4.454s-2.6,7.3-12.518,7.016Z" transform="translate(-257.394 -128.254)" fill="#aa6550"></path></g></g><g transform="translate(36.256 31.335)"><path d="M274.291,110.428c.183-.069,6.25-.857,5.677,6.307s-7.62,4.218-7.615,4.01S274.291,110.428,274.291,110.428Z" transform="translate(-272.353 -110.37)" fill="#b78876"></path><g transform="translate(2.388 2.472)"><path d="M274.086,117.72c.033-.019.118.1.321.212a1.257,1.257,0,0,0,.93.094,3.1,3.1,0,0,0,1.65-2.657,4.114,4.114,0,0,0-.206-1.815,1.443,1.443,0,0,0-.863-1.033.638.638,0,0,0-.763.282c-.112.192-.079.339-.118.349-.021.017-.144-.133-.062-.424a.806.806,0,0,1,.317-.426.949.949,0,0,1,.706-.127,1.764,1.764,0,0,1,1.214,1.216,4.244,4.244,0,0,1,.273,2.031c-.161,1.44-1.008,2.732-2.069,2.949a1.343,1.343,0,0,1-1.126-.281C274.085,117.894,274.06,117.731,274.086,117.72Z" transform="translate(-274.078 -112.155)" fill="#aa6550"></path></g></g><path d="M257.432,109.054a29.435,29.435,0,0,0,4.655-3.367A7.545,7.545,0,0,0,273.7,107.1a3.79,3.79,0,0,0,5.624,3.122l.145,11.43a5.243,5.243,0,0,0,.719,3.156c.663.875,2.2,1.145,2.805.231a7.988,7.988,0,0,1,.392-4.134c.606-1.264,2.193-2.171,3.445-1.54a28.083,28.083,0,0,0,.4-6.761,6.2,6.2,0,0,1,.283-2.069c.39-.629.569-.143,1.293-.292a5.144,5.144,0,0,0,3.859-4.612,6.471,6.471,0,0,0-2.726-5.543,8.8,8.8,0,0,0-6.131-1.469,3.893,3.893,0,0,0,.047-5.2,6.327,6.327,0,0,0-5.212-1.908c-1.918.115-4.075,1.181-4.314,3.086a7.9,7.9,0,0,0-15.592-.432c-2.3-1.019-5.515-2.149-7.8-1.1a7.515,7.515,0,0,0-4.751,6.571s-.579,7.836,4.381,9.421S257.432,109.054,257.432,109.054Z" transform="translate(-246.168 -87.739)" fill="#263238"></path><g transform="translate(6.724 24.8)"><g transform="translate(0 5.224)"><g transform="translate(0.323 1.761)"><path d="M251.258,111.947a1.387,1.387,0,0,0,1.336,1.4,1.326,1.326,0,0,0,1.428-1.249,1.387,1.387,0,0,0-1.335-1.4A1.327,1.327,0,0,0,251.258,111.947Z" transform="translate(-251.257 -110.695)" fill="#263238"></path></g><path d="M251.046,110.878c.172.181,1.221-.6,2.711-.591,1.488-.018,2.582.749,2.744.566.079-.08-.1-.407-.572-.753a3.792,3.792,0,0,0-2.2-.677,3.648,3.648,0,0,0-2.159.7C251.117,110.471,250.962,110.8,251.046,110.878Z" transform="translate(-251.024 -109.423)" fill="#263238"></path><g transform="translate(14.648 0.278)"><g transform="translate(0.269 1.832)"><path d="M261.8,112.2a1.384,1.384,0,0,0,1.335,1.4,1.322,1.322,0,0,0,1.428-1.248,1.386,1.386,0,0,0-1.333-1.4A1.325,1.325,0,0,0,261.8,112.2Z" transform="translate(-261.797 -110.947)" fill="#263238"></path></g><path d="M261.625,111.079c.172.18,1.223-.6,2.711-.591,1.488-.018,2.582.749,2.744.566.079-.082-.094-.407-.572-.753a3.792,3.792,0,0,0-2.2-.677,3.639,3.639,0,0,0-2.159.7C261.7,110.672,261.541,111,261.625,111.079Z" transform="translate(-261.603 -109.624)" fill="#263238"></path></g><g transform="translate(5.465 0.369)"><path d="M258.768,122.1a9.93,9.93,0,0,0-2.42-.436c-.381-.039-.741-.115-.8-.375a1.932,1.932,0,0,1,.253-1.127q.538-1.381,1.126-2.9c1.563-4.125,2.694-7.517,2.527-7.578s-1.569,3.232-3.131,7.358c-.377,1.016-.737,1.986-1.079,2.915a2.194,2.194,0,0,0-.2,1.493.953.953,0,0,0,.626.557,2.548,2.548,0,0,0,.645.09A9.666,9.666,0,0,0,258.768,122.1Z" transform="translate(-254.971 -109.689)" fill="#263238"></path></g><g transform="translate(8.898 13.816)"><path d="M262.2,119.4c-.242-.014-.245,1.6-1.63,2.751s-3.106.969-3.118,1.2c-.024.1.384.314,1.112.334a4.027,4.027,0,0,0,2.6-.907,3.51,3.51,0,0,0,1.263-2.307C262.491,119.792,262.31,119.391,262.2,119.4Z" transform="translate(-257.45 -119.401)" fill="#263238"></path></g></g><g transform="translate(14.277)"><path d="M261.343,106.767c.147.406,1.635.213,3.383.425,1.753.174,3.162.687,3.4.324.1-.174-.143-.555-.713-.948a5.924,5.924,0,0,0-5.163-.569C261.6,106.256,261.28,106.575,261.343,106.767Z" transform="translate(-261.335 -105.65)" fill="#263238"></path></g><g transform="translate(0.532 0.823)"><path d="M251.447,107.788c.262.339,1.288-.012,2.523-.029,1.234-.06,2.279.227,2.52-.126.105-.172-.058-.511-.515-.832a3.657,3.657,0,0,0-4.064.126C251.474,107.274,251.33,107.623,251.447,107.788Z" transform="translate(-251.408 -106.245)" fill="#263238"></path></g></g></g><g transform="translate(6.099 5.688)"><path d="M255.339,96.311c-.018.025-.136-.066-.385-.118a1.326,1.326,0,0,0-1.026.267,1.378,1.378,0,0,0-.458,1.5,2.426,2.426,0,0,0,1.477,1.61,3.171,3.171,0,0,0,2.667-.158,3.325,3.325,0,0,0,1.6-2.573,3.676,3.676,0,0,0-1.245-3.125,4.378,4.378,0,0,0-3.5-1.115,5.64,5.64,0,0,0-3.38,1.68,6.454,6.454,0,0,0-1.631,3.179,8.619,8.619,0,0,0,1.012,6.023,9.985,9.985,0,0,0,2.826,3.153c.827.588,1.349.825,1.322.882a4.126,4.126,0,0,1-1.477-.648,9.434,9.434,0,0,1-3.11-3.128,8.977,8.977,0,0,1-1.224-6.414,7.044,7.044,0,0,1,1.774-3.538,6.281,6.281,0,0,1,3.81-1.907,5.062,5.062,0,0,1,4.058,1.314,4.342,4.342,0,0,1,1.425,3.719,3.929,3.929,0,0,1-1.98,3.024,3.68,3.68,0,0,1-3.151.1,2.844,2.844,0,0,1-1.67-1.992,1.688,1.688,0,0,1,.692-1.822,1.418,1.418,0,0,1,1.225-.176C255.267,96.163,255.351,96.3,255.339,96.311Z" transform="translate(-248.651 -91.847)" fill="#455a64"></path></g></g></g><g transform="translate(49.583 423.77)"><g transform="translate(0 74.005)"><path d="M96.848,446.485c.928-3.683-1.505-7.361-4.223-10.014s-5.964-5.025-7.39-8.544c-2.311-5.7.71-13.121-3.2-17.867-2.3-2.791-6.409-3.707-8.456-6.692a15.327,15.327,0,0,1-1.858-5.346,54.4,54.4,0,0,0-13.673-25.239,47.206,47.206,0,0,0,5.447,24.368c1.591,2.989,3.542,5.9,4.082,9.245.878,5.428-2.123,11.042-.757,16.37,1.56,6.092,8.438,10.137,8.8,16.416.3,5.309-4.3,10-3.921,15.3a14.316,14.316,0,0,0,2.4,6.283c4.144,6.8,10.2,11.469,19.343,11.264l11.2.33Z" transform="translate(-57.989 -372.783)" fill="#ffc727"></path></g><g transform="translate(0 74.005)" opacity="0.3"><path d="M96.848,446.485c.928-3.683-1.505-7.361-4.223-10.014s-5.964-5.025-7.39-8.544c-2.311-5.7.71-13.121-3.2-17.867-2.3-2.791-6.409-3.707-8.456-6.692a15.327,15.327,0,0,1-1.858-5.346,54.4,54.4,0,0,0-13.673-25.239,47.206,47.206,0,0,0,5.447,24.368c1.591,2.989,3.542,5.9,4.082,9.245.878,5.428-2.123,11.042-.757,16.37,1.56,6.092,8.438,10.137,8.8,16.416.3,5.309-4.3,10-3.921,15.3a14.316,14.316,0,0,0,2.4,6.283c4.144,6.8,10.2,11.469,19.343,11.264l11.2.33Z" transform="translate(-57.989 -372.783)"></path></g><g transform="translate(9.557)"><g transform="translate(33.606 35.056)"><path d="M94.912,483.456a8.9,8.9,0,0,0,3.082-.083,18.635,18.635,0,0,0,3.635-.937,15.4,15.4,0,0,0,4.479-2.487,6.28,6.28,0,0,0,1.835-2.473,11.632,11.632,0,0,0,.508-3.348,32.152,32.152,0,0,1,.241-3.624,9.969,9.969,0,0,1,1.347-3.61c1.307-2.326,3.486-4.533,4.177-7.687.748-3.1.18-6.45-.36-9.813s-1.063-7.014.2-10.52c1.181-3.509,3.619-6.684,4.824-10.638,1.2-3.995.606-8.28.84-12.511a16.579,16.579,0,0,1,1.423-6.225c.894-1.987,2.141-3.863,3.11-5.955,1.963-4.23,2.287-9.012,2.8-13.7q.378-3.543.763-7.16a35.054,35.054,0,0,1,1.2-7.167,63.2,63.2,0,0,1,2.639-6.945,22.99,22.99,0,0,0,1.279-3.626,36.4,36.4,0,0,0,.339-3.853,45.312,45.312,0,0,0-.342-7.75c-.318-2.582-.8-5.141-1.092-7.729l-.053-.446-.061-.515-.457.231a17.281,17.281,0,0,0-6,5.122,27.43,27.43,0,0,0-3.665,6.846c-1.843,4.821-2.488,9.867-3.4,14.682-.893,4.817-2.08,9.555-4.524,13.569-1.216,2-2.69,3.828-3.978,5.782a15.834,15.834,0,0,0-2.743,6.4c-.634,4.741,2,8.886,1.479,13.083a14.5,14.5,0,0,1-2.01,5.822c-1.007,1.794-2.192,3.46-3.316,5.134a32.86,32.86,0,0,0-2.976,5.184,16.346,16.346,0,0,0-1.344,5.62c-.252,3.779.3,7.356.047,10.74a24.69,24.69,0,0,1-2.711,9.219c-1.338,2.762-2.83,5.262-4.079,7.685a39.154,39.154,0,0,0-1.677,3.578,17.6,17.6,0,0,0-.964,3.545,22.37,22.37,0,0,0-.046,6.391,16.1,16.1,0,0,0,3.25,8.132,7.684,7.684,0,0,0,.911.976,4.477,4.477,0,0,0,.739.62c.418.306.642.444.642.444a14.17,14.17,0,0,1-2.181-2.131,16.216,16.216,0,0,1-3.085-8.078,22.233,22.233,0,0,1,.107-6.3,17.341,17.341,0,0,1,.971-3.462c.471-1.158,1.055-2.334,1.688-3.531,1.259-2.4,2.766-4.89,4.134-7.671a25.132,25.132,0,0,0,2.807-9.381c.276-3.456-.264-7.048,0-10.736a15.832,15.832,0,0,1,1.32-5.433,32.422,32.422,0,0,1,2.942-5.079c1.124-1.663,2.323-3.334,3.359-5.167a15.125,15.125,0,0,0,2.1-6.06c.514-4.471-2.1-8.644-1.451-13.051a15.187,15.187,0,0,1,2.649-6.119c1.268-1.916,2.75-3.747,4-5.8,2.521-4.128,3.727-8.958,4.63-13.794.924-4.846,1.57-9.839,3.38-14.561a26.735,26.735,0,0,1,3.57-6.665,16.582,16.582,0,0,1,5.746-4.911l-.518-.282.053.451c.3,2.618.778,5.183,1.094,7.734a44.674,44.674,0,0,1,.341,7.631,36.876,36.876,0,0,1-.323,3.738,22.707,22.707,0,0,1-1.236,3.5,63.606,63.606,0,0,0-2.66,7.021,35.678,35.678,0,0,0-1.22,7.286q-.38,3.618-.753,7.165c-.508,4.708-.832,9.414-2.724,13.5-.933,2.033-2.178,3.914-3.1,5.966a17.26,17.26,0,0,0-1.464,6.455c-.22,4.323.366,8.543-.781,12.377-1.14,3.817-3.564,7.009-4.777,10.63-1.3,3.658-.731,7.435-.179,10.781.559,3.367,1.122,6.646.417,9.627-.63,3.012-2.746,5.2-4.08,7.592a10.343,10.343,0,0,0-1.368,3.752,32.47,32.47,0,0,0-.215,3.667,11.362,11.362,0,0,1-.458,3.257,6,6,0,0,1-1.724,2.366,15.375,15.375,0,0,1-4.373,2.5,19.235,19.235,0,0,1-3.581.993,14.438,14.438,0,0,1-2.276.234C95.179,483.447,94.912,483.456,94.912,483.456Z" transform="translate(-89.162 -344.653)" fill="#263238"></path><g transform="translate(5.746 6.693)"><path d="M127.947,349.487a1.269,1.269,0,0,0-.107.339c-.065.269-.144.6-.242,1.009-.215.883-.469,2.215-.882,3.882-.431,1.66-1.436,3.543-2.292,5.861-.89,2.3-1.79,4.964-2.617,7.957s-1.574,6.311-2.346,9.868c-.8,3.55-1.59,7.358-3.522,10.955-.907,1.824-1.93,3.671-2.74,5.689a26.437,26.437,0,0,0-1.576,6.434,129.931,129.931,0,0,1-2.336,13.56c-2.193,9.19-4.283,17.94-6.185,25.909-1.948,7.942-3.705,15.1-5.185,21.132-1.441,5.977-2.611,10.836-3.437,14.261q-.569,2.465-.9,3.885c-.087.413-.159.746-.216,1.016a1.307,1.307,0,0,0-.05.352,1.308,1.308,0,0,0,.12-.335l.287-1c.249-.936.594-2.224,1.029-3.853.879-3.413,2.125-8.251,3.658-14.206,1.523-6.023,3.331-13.166,5.336-21.095L109.99,415.2a127.643,127.643,0,0,0,2.332-13.616,25.825,25.825,0,0,1,1.518-6.278c.78-1.968,1.786-3.8,2.694-5.648,1.95-3.667,2.747-7.589,3.511-11.125.746-3.565,1.452-6.876,2.254-9.86s1.652-5.646,2.5-7.949c.81-2.31,1.782-4.215,2.185-5.932.378-1.706.584-3.025.755-3.924.069-.415.126-.752.172-1.023A1.394,1.394,0,0,0,127.947,349.487Z" transform="translate(-93.312 -349.487)" fill="#263238"></path></g></g><path d="M106.224,493.217c7.289-4.388,9.313-17.6,6.217-25.521s-8.478-15.15-9.349-23.615c-.67-6.506,1.423-13.2-.129-19.552-2.094-8.575-10.515-15.178-10.469-24.005.026-4.953,2.818-9.629,2.566-14.574-.31-6.066-5-10.855-7.91-16.185-4.463-8.157-4.807-17.83-6.369-27S75.666,323.8,67.509,319.335c-1.156,7.8-3.176,13.143-2.473,23.691.253,3.788,4.7,11.019,5.343,19.321.385,4.961.662,9.932.993,14.9.323,4.834.665,9.753,2.423,14.267,1.347,3.457,3.5,6.595,4.506,10.167,1.893,6.721-.5,14.026,1.033,20.837,1.3,5.771,5.329,10.721,6.18,16.577,1.195,8.226-4.085,16.809-1.313,24.646,1.375,3.889,4.6,7,5.532,11.019.723,3.117-.028,6.426.629,9.559,1.059,5.046,10.718,8.916,15.864,8.573" transform="translate(-64.891 -319.335)" fill="#ffc727"></path><g transform="translate(4.673 7.721)"><path d="M68.27,324.911a2.144,2.144,0,0,0,.035.44c.044.327.1.748.173,1.278.173,1.124.371,2.776.764,4.908.421,2.146,1.541,4.558,2.442,7.469.948,2.9,1.9,6.25,2.739,10s1.577,7.9,2.336,12.363c.782,4.432,1.585,9.331,3.828,13.972,1.04,2.332,2.2,4.665,3.081,7.153a32.19,32.19,0,0,1,1.588,7.9A159.44,159.44,0,0,0,87.5,407.413c2.305,11.53,4.5,22.51,6.5,32.5,2.1,9.955,4,18.923,5.594,26.474,1.61,7.495,2.916,13.576,3.831,17.835.46,2.065.821,3.687,1.079,4.841l.3,1.256a1.9,1.9,0,0,0,.126.422,2.149,2.149,0,0,0-.054-.437c-.058-.324-.134-.744-.228-1.27-.226-1.16-.541-2.791-.946-4.87-.861-4.27-2.092-10.367-3.608-17.881-1.552-7.559-3.4-16.538-5.443-26.5-1.98-9.993-4.157-20.97-6.441-32.5a161.9,161.9,0,0,1-2.249-16.968,32.7,32.7,0,0,0-1.641-8.053c-.9-2.541-2.084-4.884-3.124-7.2-2.231-4.572-3.032-9.356-3.846-13.8-.782-4.457-1.537-8.618-2.427-12.373s-1.864-7.113-2.854-10.014c-.946-2.92-2.1-5.31-2.55-7.4-.428-2.094-.676-3.762-.894-4.871-.1-.525-.181-.943-.242-1.267A2.014,2.014,0,0,0,68.27,324.911Z" transform="translate(-68.266 -324.911)" fill="#263238"></path></g></g><g transform="translate(1041.264 93.142)"><g transform="translate(12.48)"><path d="M669.512,433.062c-2.207,3.155-6.5,2.109-8.49.185s-2.833-4.716-3.6-7.378c-1.749-6.08-3.512-12.459-2.213-18.652a10.372,10.372,0,0,1,2.383-5.071,5.412,5.412,0,0,1,5.13-1.707c2.164.573,3.509,2.691,4.482,4.708a44.455,44.455,0,0,1,4.393,19.081c.011,3.072-.352,6.3-2.086,8.833" transform="translate(-654.76 -400.299)" fill="#ffc727"></path></g><g transform="translate(12.48)" opacity="0.2"><path d="M669.512,433.062c-2.207,3.155-6.5,2.109-8.49.185s-2.833-4.716-3.6-7.378c-1.749-6.08-3.512-12.459-2.213-18.652a10.372,10.372,0,0,1,2.383-5.071,5.412,5.412,0,0,1,5.13-1.707c2.164.573,3.509,2.691,4.482,4.708a44.455,44.455,0,0,1,4.393,19.081c.011,3.072-.352,6.3-2.086,8.833" transform="translate(-654.76 -400.299)"></path></g><g transform="translate(0 46.961)"><path d="M666.831,427.989a19.144,19.144,0,0,0-11.876-1.443c-2.155.355-4.4,1-5.866,2.619s-1.743,4.465-.06,5.857a5.62,5.62,0,0,0,3.7.937c3.139-.036,6.622-.589,9.13,1.3,1.43,1.076,2.383,2.869,4.094,3.4a4.045,4.045,0,0,0,4.449-1.979,6.914,6.914,0,0,0,.5-5.1A7.787,7.787,0,0,0,666.831,427.989Z" transform="translate(-647.874 -426.211)" fill="#ffc727"></path></g><g transform="translate(30.968 10.15)"><path d="M667.291,433.039a11.481,11.481,0,0,1-1.785-10.564,20.349,20.349,0,0,1,6.256-9.076,33.677,33.677,0,0,1,11.2-6.609,11.956,11.956,0,0,1,5.038-.857,5.29,5.29,0,0,1,4.228,2.559c1.18,2.249.049,4.976-1.174,7.2A85.311,85.311,0,0,1,683.7,426.9c-2.206,2.843-4.732,5.649-8.094,6.934s-6.852,1.133-8.636-1.2" transform="translate(-664.962 -405.899)" fill="#ffc727"></path></g><g transform="translate(10.896 51.34)"><path d="M670.372,457.637a6.841,6.841,0,0,1-.2-1.434c-.1-1.044-.23-2.352-.38-3.911a56.842,56.842,0,0,0-.881-5.74,44.356,44.356,0,0,0-2.086-6.772,24.914,24.914,0,0,0-3.458-6.127,12.913,12.913,0,0,0-4.373-3.635,12.263,12.263,0,0,0-3.681-1.145,6.981,6.981,0,0,1-1.428-.207,6.581,6.581,0,0,1,1.453-.024,11.191,11.191,0,0,1,3.838,1,12.872,12.872,0,0,1,4.612,3.666,24.408,24.408,0,0,1,3.585,6.251,41.591,41.591,0,0,1,2.071,6.883,48.876,48.876,0,0,1,.763,5.81c.123,1.662.17,3.007.194,3.936A6.777,6.777,0,0,1,670.372,457.637Z" transform="translate(-653.886 -428.628)" fill="#263238"></path></g><g transform="translate(19.784 12.676)"><path d="M666.119,471.957a2.884,2.884,0,0,1-.038-.665c0-.5,0-1.129.005-1.9,0-1.649,0-4.04-.085-6.988-.147-5.9-.654-14.043-1.635-22.994s-2.3-17.008-3.492-22.788c-.283-1.448-.567-2.751-.834-3.893s-.473-2.129-.683-2.929c-.181-.75-.328-1.363-.446-1.849a2.87,2.87,0,0,1-.116-.656,2.725,2.725,0,0,1,.232.623c.145.478.328,1.082.551,1.823.247.79.5,1.771.783,2.909s.613,2.438.922,3.884a215.87,215.87,0,0,1,3.67,22.809c.984,8.971,1.426,17.137,1.466,23.052.034,2.956-.029,5.35-.1,7-.047.772-.087,1.4-.116,1.9A2.884,2.884,0,0,1,666.119,471.957Z" transform="translate(-658.79 -407.293)" fill="#263238"></path></g><g transform="translate(27.046 17.492)"><path d="M662.824,454.046a13,13,0,0,1,.014-1.986c.072-1.278.248-3.122.609-5.384a70.677,70.677,0,0,1,1.751-7.842,69.334,69.334,0,0,1,3.278-9.281,49.493,49.493,0,0,1,9.632-15,24.659,24.659,0,0,1,2.265-2.106c.348-.294.656-.587.968-.819l.881-.605a12.479,12.479,0,0,1,1.671-1.071,59.68,59.68,0,0,0-5.482,4.891,52.058,52.058,0,0,0-9.391,14.942,74.278,74.278,0,0,0-3.3,9.2c-.859,2.882-1.432,5.533-1.863,7.766-.41,2.238-.647,4.065-.79,5.33A12.5,12.5,0,0,1,662.824,454.046Z" transform="translate(-662.798 -409.951)" fill="#263238"></path></g></g></g><g transform="translate(500.583 76.801)"><g transform="translate(0 12.539)"><path d="M188.425,202.818a3.154,3.154,0,0,1-1.572-.42l-5.005-2.963c-.747-.418-.383-.566-.136-.651a10.1,10.1,0,0,0,2.263-1.033.38.38,0,0,1,.372.027l3.845,2.281a.508.508,0,0,0,.465,0l14.991-8.654a.473.473,0,0,0,.229-.405V173.7a.481.481,0,0,0-.232-.413l-14.985-8.645a.461.461,0,0,0-.461,0l-14.981,8.645a.478.478,0,0,0-.237.408V191a.461.461,0,0,0,.232.4l4.105,2.372c2.229,1.114,3.591-.2,3.591-1.521V175.176a.428.428,0,0,1,.435-.432h1.9a.43.43,0,0,1,.432.432v17.081a4.15,4.15,0,0,1-4.439,4.68,6.426,6.426,0,0,1-3.456-.938l-3.933-2.266A3.171,3.171,0,0,1,170.273,191V173.7a3.154,3.154,0,0,1,1.572-2.732l15.006-8.657a3.287,3.287,0,0,1,3.154,0l14.988,8.66a3.162,3.162,0,0,1,1.572,2.732V191a3.172,3.172,0,0,1-1.572,2.732l-14.988,8.657a3.154,3.154,0,0,1-1.58.42" transform="translate(-106.378 -101.151)" fill="#689f63"></path><path d="M217.777,204.171c-6.559,0-7.935-3.011-7.935-5.536a.432.432,0,0,1,.435-.432h1.936a.433.433,0,0,1,.428.367c.292,1.974,1.162,2.968,5.129,2.968,3.154,0,4.5-.714,4.5-2.389,0-.964-.383-1.682-5.29-2.158-4.105-.405-6.64-1.31-6.64-4.593,0-3.025,2.551-4.826,6.826-4.826,4.8,0,7.178,1.66,7.478,5.246a.437.437,0,0,1-.116.332.447.447,0,0,1-.319.139h-1.947a.43.43,0,0,1-.42-.332c-.47-2.075-1.6-2.739-4.683-2.739-3.448,0-3.85,1.2-3.85,2.1,0,1.092.473,1.411,5.126,2.027,4.608.611,6.8,1.474,6.8,4.713,0,3.265-2.724,5.138-7.47,5.138m18.26-18.346h.5a.437.437,0,0,0,.5-.458c0-.443-.3-.443-.473-.443h-.518Zm-.611-1.418h1.114c.383,0,1.134,0,1.134.855a.745.745,0,0,1-.611.8c.447.03.476.322.536.735a3.155,3.155,0,0,0,.166.855h-.687c-.018-.149-.125-.976-.125-1.021-.045-.184-.11-.274-.332-.274h-.566v1.3h-.628Zm-1.34,1.614a2.422,2.422,0,1,0,2.414-2.417,2.422,2.422,0,0,0-2.414,2.417m5.312.012a2.89,2.89,0,1,1-2.89-2.89,2.89,2.89,0,0,1,2.89,2.89" transform="translate(-131.098 -114.423)" fill="#689f63"></path><path d="M35.625,33.979a1.919,1.919,0,0,0-.959-1.66L18.771,23.174a1.856,1.856,0,0,0-.873-.251h-.166a1.889,1.889,0,0,0-.878.251L.961,32.312A1.934,1.934,0,0,0,0,33.982L.035,58.613a.946.946,0,0,0,.476.83.908.908,0,0,0,.953,0l9.449-5.412a1.937,1.937,0,0,0,.961-1.66V40.858a1.914,1.914,0,0,1,.959-1.66l4.022-2.324a1.909,1.909,0,0,1,.961-.259,1.874,1.874,0,0,1,.954.257L22.792,39.2a1.916,1.916,0,0,1,.961,1.66V52.363a1.944,1.944,0,0,0,.963,1.66l9.442,5.407a.938.938,0,0,0,.961,0,.964.964,0,0,0,.476-.83Zm75,12.833a.476.476,0,0,1-.241.415l-5.46,3.154a.481.481,0,0,1-.48,0l-5.46-3.154a.475.475,0,0,1-.241-.415V40.5a.483.483,0,0,1,.236-.417l5.456-3.154a.485.485,0,0,1,.485,0l5.46,3.154a.478.478,0,0,1,.241.417ZM112.1.121a.959.959,0,0,0-1.428.84V25.353a.664.664,0,0,1-1.008.581l-3.984-2.292a1.917,1.917,0,0,0-1.919,0l-15.9,9.176a1.916,1.916,0,0,0-.961,1.66V52.833a1.922,1.922,0,0,0,.961,1.66l15.9,9.183a1.927,1.927,0,0,0,1.921,0l15.9-9.186a1.924,1.924,0,0,0,.961-1.66V7.079a1.924,1.924,0,0,0-.988-1.677Zm52.946,40.217a1.921,1.921,0,0,0,.955-1.66V34.23a1.921,1.921,0,0,0-.956-1.66l-15.8-9.171a1.919,1.919,0,0,0-1.926,0l-15.9,9.175a1.916,1.916,0,0,0-.961,1.66v18.35a1.926,1.926,0,0,0,.968,1.67l15.795,9a1.914,1.914,0,0,0,1.884.012l9.553-5.312a.958.958,0,0,0,0-1.67L142.67,47.106a.953.953,0,0,1-.485-.83V40.523a.953.953,0,0,1,.48-.83l4.98-2.87a.95.95,0,0,1,.956,0l4.98,2.87a.956.956,0,0,1,.48.83v4.525a.958.958,0,0,0,1.441.83Zm0,0" transform="translate(0 0)" fill="#333" fill-rule="evenodd"></path><path d="M389.15,105.12a.364.364,0,0,1,.368,0l3.051,1.76a.368.368,0,0,1,.184.319v3.524a.368.368,0,0,1-.184.319l-3.051,1.76a.364.364,0,0,1-.368,0l-3.049-1.76a.367.367,0,0,1-.188-.319v-3.528a.364.364,0,0,1,.184-.319Zm0,0" transform="translate(-241.098 -65.638)" fill="#689f63" fill-rule="evenodd"></path><g transform="translate(43.545 23.233)" clip-path="url(#a)"><path d="M219.167,210.441,174.62,188.6l-22.842,46.6,44.546,21.837Zm0,0" transform="translate(-167.754 -202.611)" fill="url(#b)"></path></g><g transform="translate(43.942 23.286)" clip-path="url(#c)"><path d="M144.07,212.837l31.455,42.574,41.6-30.735L185.668,182.1Zm0,0" transform="translate(-163.334 -198.599)" fill="url(#d)"></path></g><g transform="translate(44.543 23.237)" clip-path="url(#e)"><path d="M197.02,225.934v40.313h34.4V225.934Zm0,0" transform="translate(-197.015 -225.936)" fill="url(#f)"></path></g></g></g></g></svg>