<svg class="svg-icon" style="vertical-align: middle;fill: currentColor;overflow: hidden;" viewBox="0 0 1024 720" version="1.1" xmlns="http://www.w3.org/2000/svg"><path d="M390.736842 282.947368l-121.263158 53.894737-80.842105 350.31579 175.157895-94.31579 26.947368-309.894737z" fill="#EFEFEF" /><path d="M512 336.842105l-121.263158-53.894737-26.947368 309.894737 148.210526 94.31579V336.842105zM633.263158 282.947368l121.263158 53.894737 80.842105 350.31579-175.157895-94.31579-26.947368-309.894737z" fill="#D9D8D7" /><path d="M512 336.842105l121.263158-53.894737 26.947368 309.894737-148.210526 94.31579V336.842105z" fill="#EFEFEF" /><path d="M512 40.421053a175.157895 175.157895 0 0 0-175.157895 175.157894 197.254737 197.254737 0 0 0 16.976842 75.048421C395.183158 390.736842 512 512 512 512s116.682105-121.263158 158.046316-221.372632A197.254737 197.254737 0 0 0 687.157895 215.578947 175.157895 175.157895 0 0 0 512 40.421053z" fill="#E66847" /><path d="M512 215.578947m-94.315789 0a94.315789 94.315789 0 1 0 188.631578 0 94.315789 94.315789 0 1 0-188.631578 0Z" fill="#FFFFFF" /></svg>