<svg class="svg-icon" style="width: 1em; height: 1em;vertical-align: middle;fill: currentColor;overflow: hidden;" viewBox="0 0 1024 1024" version="1.1" xmlns="http://www.w3.org/2000/svg"><path d="M618.4 467.6H68c-34.4 0-62.4-28-62.4-62.4v-14.8h675.2v14.8c0 34.4-28 62.4-62.4 62.4z m-600-64.8v2c0 27.6 22.4 50 50 50h550.4c27.6 0 50-22.4 50-50v-2H18.4z" fill="#4A555F" /><path d="M371.2 434h-56c-18.4 0-33.2-14.8-33.2-33.2v-10.4h122.8v10.4c0 18.4-15.2 33.2-33.6 33.2z m-76.4-31.2c1.2 10.4 10 18.4 20.4 18.4h56.4c10.4 0 19.2-8 20.4-18.4H294.8z" fill="#4A555F" /><path d="M582.8 402.8H104c-21.6 0-39.6-17.6-39.6-39.6v-324C64.4 17.6 82 0 104 0h478.8c21.6 0 39.6 17.6 39.6 39.6v324c-0.4 21.6-18 39.2-39.6 39.2zM104 12.8c-14.8 0-26.8 12-26.8 26.8v324c0 14.8 12 26.8 26.8 26.8h478.8c14.8 0 26.8-12 26.8-26.8v-324c0-14.8-12-26.8-26.8-26.8H104z m474.8 348H107.6V45.2h471.2v315.6zM120.4 348h446V58H120.4V348zM994.8 398.4h-213.2V20.4h57.2l10.4 22.4h77.6l10.4-22.4h57.2v378z m-200-12.8h187.6V33.2h-36.4l-10.4 22.4h-94l-10.4-22.4h-36.4v352.4z" fill="#4A555F" /><path d="M992 465.6h-207.2c-14.4 0-26.4-12-26.4-26.4V28.4c0-14.4 11.2-26 25.6-26.4H993.2c14 0.4 25.6 12 25.6 26.4v410.8c-0.4 14.8-12 26.4-26.8 26.4zM784.8 14.8c-7.6 0.4-13.6 6.4-13.6 13.6v410.8c0 7.6 6 13.6 13.6 13.6H992c7.6 0 13.6-6 13.6-13.6V28.4c0-7.6-6-13.6-13.2-13.6H784.8zM721.6 208h-12.8v-12.8h12.8V208z m-25.6 0h-12.8v-12.8h12.8V208z m-25.6 0h-12.8v-12.8h12.8V208zM298.8 618H792v12.8H298.8z" fill="#4A555F" /><path d="M351.2 594.4m-10.8 0a10.8 10.8 0 1 0 21.6 0 10.8 10.8 0 1 0-21.6 0Z" fill="#4A555F" /><path d="M392.4 594.4m-10.8 0a10.8 10.8 0 1 0 21.6 0 10.8 10.8 0 1 0-21.6 0Z" fill="#4A555F" /><path d="M433.6 594.4m-10.8 0a10.8 10.8 0 1 0 21.6 0 10.8 10.8 0 1 0-21.6 0Z" fill="#4A555F" /><path d="M756 1024H334.4c-23.2 0-42-18.8-42-42v-384.4c0-7.2 1.6-14 5.2-20 2-3.6 4.4-6.8 7.2-9.6 1.6-2 4-3.6 6-5.2 2.4-1.6 4.8-2.8 7.2-4 5.2-2.4 10.8-3.2 16.4-3.2H756c5.6 0 11.2 1.2 16.4 3.2 2.4 1.2 4.8 2.4 7.2 4 2.4 1.6 4.4 3.2 6.4 5.2 2.8 2.8 5.2 6 7.2 9.6 3.2 6 5.2 13.2 5.2 20v384.4c0 23.2-19.2 42-42.4 42zM334.4 568.4c-4 0-8 0.8-11.6 2.4-1.6 0.8-3.6 1.6-5.2 2.8-1.6 1.2-3.2 2.4-4.4 3.6-2 2-3.6 4.4-5.2 6.8-2.4 4.4-3.6 9.2-3.6 14v384.4c0 16.4 13.2 29.6 29.6 29.6H756c16.4 0 29.6-13.2 29.6-29.6v-384.4c0-4.8-1.2-9.6-3.6-14-1.2-2.4-3.2-4.8-5.2-6.8-1.2-1.2-2.8-2.4-4.4-3.6-1.6-1.2-3.2-2-4.8-2.8-3.6-1.6-7.6-2.4-11.6-2.4H334.4zM97.2 926h-12.8v-12.8h12.8v12.8z m0-25.6h-12.8v-12.8h12.8v12.8z m0-25.6h-12.8v-12.8h12.8v12.8z m0-25.6h-12.8v-12.8h12.8v12.8z m0-25.6h-12.8v-12.8h12.8v12.8z m0-25.2h-12.8v-12.8h12.8v12.8z m0-25.6h-12.8V760h12.8v12.8z m0-25.6h-12.8v-12.8h12.8v12.8z m0-25.6h-12.8v-12.8h12.8v12.8z m0-25.6h-12.8v-12.8h12.8v12.8z m0-25.6h-12.8v-12.8h12.8v12.8z m0-25.2h-12.8v-12.8h12.8v12.8z m0-25.6h-12.8v-12.8h12.8v12.8z m0-25.6h-12.8v-12.8h12.8v12.8z m0-25.6h-12.8v-12.8h12.8v12.8z m0-25.6h-12.8v-12.8h12.8v12.8z m0-25.6h-12.8v-12.8h12.8v12.8zM251.6 926.8h-12.8v-12.8h12.8v12.8z m-25.6 0h-12.8v-12.8h12.8v12.8z m-25.6 0h-12.8v-12.8h12.8v12.8z m-25.6 0h-12.8v-12.8h12.8v12.8z m-25.2 0h-12.8v-12.8h12.8v12.8z m-25.6 0h-12.8v-12.8H124v12.8zM1003.6 926h-12.8v-12.8h12.8v12.8z m0-25.6h-12.8v-12.8h12.8v12.8z m0-25.6h-12.8v-12.8h12.8v12.8z m0-25.6h-12.8v-12.8h12.8v12.8z m0-25.6h-12.8v-12.8h12.8v12.8z m0-25.2h-12.8v-12.8h12.8v12.8z m0-25.6h-12.8V760h12.8v12.8z m0-25.6h-12.8v-12.8h12.8v12.8z m0-25.6h-12.8v-12.8h12.8v12.8z m0-25.6h-12.8v-12.8h12.8v12.8z m0-25.6h-12.8v-12.8h12.8v12.8z m0-25.2h-12.8v-12.8h12.8v12.8z m0-25.6h-12.8v-12.8h12.8v12.8z m0-25.6h-12.8v-12.8h12.8v12.8z m0-25.6h-12.8v-12.8h12.8v12.8z m0-25.6h-12.8v-12.8h12.8v12.8z m0-25.6h-12.8v-12.8h12.8v12.8zM976.8 926.8H964v-12.8h12.8v12.8z m-25.6 0h-12.8v-12.8h12.8v12.8z m-25.6 0h-12.8v-12.8h12.8v12.8z m-25.6 0h-12.8v-12.8h12.8v12.8z m-25.2 0h-12.8v-12.8h12.8v12.8z m-25.6 0h-12.8v-12.8h12.8v12.8z" fill="#4A555F" /><path d="M343.2 684h228v120.4h-228z" fill="#FFD552" /><path d="M343.2 834.8h228v120.4h-228z" fill="#71CDE1" /><path d="M602 684H740v271.2h-138zM165.2 101.2h365.6v63.2H165.2z" fill="#F68F6F" /><path d="M165.2 199.2h164.4v118.4H165.2z" fill="#FFD552" /><path d="M366.4 199.2h164.4v118.4H366.4z" fill="#71CDE1" /><path d="M826.8 90.4h122v84.8h-122z" fill="#FFD552" /><path d="M826.8 201.6h122v57.6h-122z" fill="#F68F6F" /><path d="M826.8 280.4h122v57.6h-122z" fill="#71CDE1" /></svg>