<svg class="svg-icon" viewBox="0 0 1024 1024" version="1.1" xmlns="http://www.w3.org/2000/svg"><path d="M980.236 0.016H553.56c-11.782 0-21.344 9.53-21.344 21.31v384.022c0 11.78 9.562 21.31 21.344 21.31h63.998V512l170.682-85.342h191.996a21.298 21.298 0 0 0 21.312-21.31V21.326A21.296 21.296 0 0 0 980.236 0.016z" fill="#FFCE54" /><path d="M537.216 868.864H102.792S-10.454 341.382 320.004 341.382c330.428-0.002 217.212 527.482 217.212 527.482z" fill="#E2A437" /><path d="M563.81 856.458l-2.406-0.688c-35.282-9.466-47.218-18.592-62.936-24.56-55.718-21.216-70.216-36.53-73.936-43.748-0.124-0.282-0.218-0.562-0.344-0.812l-0.468-64.718-103.716-1.498-103.716 1.498-0.468 64.718c-0.124 0.25-0.218 0.532-0.344 0.812-3.718 7.218-18.218 22.532-73.936 43.748-15.718 5.968-27.656 15.094-62.936 24.56l-2.438 0.688c-32.124 10.624-53.716 40.406-53.716 74.032v93.496h595.108v-93.496c0-33.626-21.622-63.408-53.748-74.032z" fill="#A0D468" /><path d="M503.376 596.058c0 119.154-113.59 228.806-183.37 228.806-69.81 0-183.402-109.652-183.402-228.806 0-119.152 82.124-197.774 183.402-197.774s183.37 78.622 183.37 197.774z" fill="#EAC6BB" /><path d="M353.536 475.784l-165.09 109.652-60.498 14.498 14.28-77.622 40.562-107.248 113.778-40.872 133.34 8.874 55.998 95.996 16.032 70.842z" fill="#FFCE54" /><path d="M554.436 628.778c-6.094-96.246-32.094-196.744-105.404-249.618l-83.466 69.624-24.062 35.248 212.62 145.184 0.312-0.438z" fill="#F6BB42" /><path d="M824.334 241.382l6.562-6.406L881.8 185.384l-70.342-10.218-9.062-1.344-4.062-8.218-31.436-63.718-31.466 63.718-4.032 8.218-9.094 1.344-70.312 10.218 50.876 49.592 6.562 6.406-1.532 9.032-12.03 70.03 62.904-33.064 8.124-4.28 8.094 4.28 62.904 33.064-12-70.03z" fill="#ED5564" /><path d="M85.136 636.372c82.936-15.124 174.588-60.124 272.46-133.84 58.342-43.966 100.998-84.874 117.184-100.996-35.436-36.844-85.278-60.154-154.776-60.154-178.306-0.002-227.43 153.556-234.868 294.99z" fill="#FFCE54" /></svg>