<svg viewBox="0 0 1024 1024" version="1.1" xmlns="http://www.w3.org/2000/svg"><path d="M801.0752 948.5312H236.3392c-76.9024 0-139.2128-62.3104-139.2128-139.2128V258.6624c0-76.9024 62.3104-139.2128 139.2128-139.2128h564.736c76.9024 0 139.2128 62.3104 139.2128 139.2128v550.656c0 76.8512-62.3104 139.2128-139.2128 139.2128z" fill="#A5ADF6" /><path d="M642.9696 475.392H389.9904c-59.1872 0-107.2128-47.9744-107.2128-107.2128V122.9824c0-26.7264 21.6576-48.384 48.384-48.384h370.6368c26.7264 0 48.384 21.6576 48.384 48.384v245.1968c-0.0512 59.2384-48.0256 107.2128-107.2128 107.2128z" fill="#A5ADF6" /><path d="M282.7776 122.0096v248.4224c0 58.0096 47.0016 105.0112 105.0112 105.0112h257.3824c58.0096 0 105.0112-47.0016 105.0112-105.0112V122.0096c0-0.8704-0.1024-1.6896-0.1536-2.56H282.9312c-0.0512 0.8192-0.1536 1.6896-0.1536 2.56z" fill="#635DF7" /><path d="M596.48 381.9008c-22.6304 0-40.96-18.3296-40.96-40.96V255.1296c0-22.6304 18.3296-40.96 40.96-40.96s40.96 18.3296 40.96 40.96v85.8112c0 22.6304-18.3296 40.96-40.96 40.96zM685.9776 834.56H351.744c-22.6304 0-40.96-18.3296-40.96-40.96s18.3296-40.96 40.96-40.96h334.1824c22.6304 0 40.96 18.3296 40.96 40.96s-18.3296 40.96-40.9088 40.96z" fill="#FFFFFF" /></svg>