<svg viewBox="0 0 240 787" fill="none" xmlns="http://www.w3.org/2000/svg">
<path d="M120 147.753C112.013 147.753 106.69 142.43 106.69 134.443V13.3104C106.69 5.32386 112.013 0 120 0C127.987 0 133.31 5.32386 133.31 13.3104V134.441C133.31 142.43 127.987 147.753 120 147.753Z" fill="#D71E00"/>
<path d="M239.8 307.488C239.8 374.044 186.555 427.289 120 427.289C53.4446 427.289 0.199677 374.044 0.199677 307.488C0.199677 240.933 53.4446 187.688 120 187.688C186.555 187.688 239.8 240.931 239.8 307.488Z" fill="#E6EEF4"/>
<path d="M120 187.688C134.643 187.688 147.953 190.351 159.933 194.344V134.445H80.0655V194.344C92.047 190.349 105.357 187.688 120 187.688Z" fill="#CAD4DB"/>
<path d="M186.555 533.777H53.4446C38.802 533.777 26.8221 521.797 26.8221 507.154C26.8221 492.512 38.802 480.532 53.4446 480.532H186.555C201.198 480.532 213.178 492.512 213.178 507.154C213.178 521.797 201.198 533.777 186.555 533.777Z" fill="#E6EEF4"/>
<path d="M159.933 480.532V420.631C147.953 424.624 134.641 427.287 120 427.287C105.359 427.287 92.047 424.624 80.0671 420.631V480.532H159.933Z" fill="#CAD4DB"/>
<path d="M159.933 547.087V533.777H80.0655V547.087C80.0655 626.955 76.0722 706.821 66.7551 785.357V786.688H173.245V785.357C163.926 706.822 159.933 626.955 159.933 547.087Z" fill="#CAD4DB"/>
</svg>
