<svg viewBox="0 0 72 72" xmlns="http://www.w3.org/2000/svg">
<path d="M66.667 0H5.315C2.381 0 0 2.325 0 5.188V66.805C0 69.672 2.381 72 5.315 72H66.667C69.603 72 72 69.672 72 66.805V5.188C72 2.325 69.603 0 66.667 0ZM21.354 61.354H10.67V26.995H21.354V61.354ZM16.012 22.297C12.589 22.297 9.822 19.523 9.822 16.103C9.822 12.688 12.589 9.914 16.012 9.914C19.427 9.914 22.201 12.688 22.201 16.103C22.201 19.523 19.427 22.297 16.012 22.297ZM61.35 61.354H50.683V44.646C50.683 40.66 50.605 35.535 45.132 35.535C39.574 35.535 38.727 39.876 38.727 44.357V61.355H28.052V26.995H38.297V31.687H38.443C39.869 28.987 43.353 26.138 48.549 26.138C59.355 26.138 61.351 33.252 61.351 42.507L61.35 61.354Z" fill="black"/>
</svg>
