<svg viewBox="0 0 142 30" fill="none" xmlns="http://www.w3.org/2000/svg">
<path d="M141.44 0.950012H135.78V6.60001H141.44V0.950012Z" fill="#19223B"/>
<path d="M135.78 6.60001H130.12V12.26H135.78V6.60001Z" fill="#19223B"/>
<path d="M135.78 0.950012H130.12V6.60001H135.78V0.950012Z" fill="#19223B"/>
<path d="M130.12 12.26H124.47V17.92H130.12V12.26Z" fill="#19223B"/>
<path d="M130.12 6.60001H124.47V12.26H130.12V6.60001Z" fill="#19223B"/>
<path d="M130.12 0.950012H124.47V6.60001H130.12V0.950012Z" fill="#19223B"/>
<path d="M124.47 17.92H118.81V23.58H124.47V17.92Z" fill="#19223B"/>
<path d="M124.47 12.26H118.81V17.92H124.47V12.26Z" fill="#19223B"/>
<path d="M124.47 6.60001H118.81V12.26H124.47V6.60001Z" fill="#19223B"/>
<path d="M124.47 0.950012H118.81V6.60001H124.47V0.950012Z" fill="#19223B"/>
<path d="M118.81 23.58H113.15V29.23H118.81V23.58Z" fill="#19223B"/>
<path d="M118.81 17.92H113.15V23.58H118.81V17.92Z" fill="#19223B"/>
<path d="M118.81 12.26H113.15V17.92H118.81V12.26Z" fill="#19223B"/>
<path d="M118.81 6.60001H113.15V12.26H118.81V6.60001Z" fill="#19223B"/>
<path d="M118.81 0.950012H113.15V6.60001H118.81V0.950012Z" fill="#19223B"/>
<path d="M113.15 23.58H107.49V29.23H113.15V23.58Z" fill="#19223B"/>
<path d="M113.15 17.92H107.49V23.58H113.15V17.92Z" fill="#19223B"/>
<path d="M113.15 12.26H107.49V17.92H113.15V12.26Z" fill="#19223B"/>
<path d="M113.15 6.60001H107.49V12.26H113.15V6.60001Z" fill="#19223B"/>
<path d="M113.15 0.950012H107.49V6.60001H113.15V0.950012Z" fill="#19223B"/>
<path d="M107.48 23.58H101.83V29.23H107.48V23.58Z" fill="#19223B"/>
<path d="M107.48 17.92H101.83V23.58H107.48V17.92Z" fill="#19223B"/>
<path d="M107.48 12.26H101.83V17.92H107.48V12.26Z" fill="#19223B"/>
<path d="M107.48 6.60001H101.83V12.26H107.48V6.60001Z" fill="#19223B"/>
<path d="M107.48 0.950012H101.83V6.60001H107.48V0.950012Z" fill="#19223B"/>
<path d="M101.84 23.58H96.18V29.23H101.84V23.58Z" fill="#19223B"/>
<path d="M101.84 17.92H96.18V23.58H101.84V17.92Z" fill="#19223B"/>
<path d="M101.84 12.26H96.18V17.92H101.84V12.26Z" fill="white"/>
<path d="M101.84 6.60001H96.18V12.26H101.84V6.60001Z" fill="white"/>
<path d="M101.84 0.950012H96.18V6.60001H101.84V0.950012Z" fill="#19223B"/>
<path d="M96.18 23.58H90.52V29.23H96.18V23.58Z" fill="#19223B"/>
<path d="M96.18 17.92H90.52V23.58H96.18V17.92Z" fill="#19223B"/>
<path d="M96.18 12.26H90.52V17.92H96.18V12.26Z" fill="white"/>
<path d="M96.18 6.60001H90.52V12.26H96.18V6.60001Z" fill="white"/>
<path d="M96.18 0.950012H90.52V6.60001H96.18V0.950012Z" fill="#19223B"/>
<path d="M90.51 23.58H84.86V29.23H90.51V23.58Z" fill="#19223B"/>
<path d="M90.51 17.92H84.86V23.58H90.51V17.92Z" fill="#19223B"/>
<path d="M90.51 12.26H84.86V17.92H90.51V12.26Z" fill="#19223B"/>
<path d="M90.51 6.60001H84.86V12.26H90.51V6.60001Z" fill="white"/>
<path d="M90.51 0.950012H84.86V6.60001H90.51V0.950012Z" fill="#19223B"/>
<path d="M84.86 17.92H79.2V23.58H84.86V17.92Z" fill="#19223B"/>
<path d="M84.86 12.26H79.2V17.92H84.86V12.26Z" fill="#19223B"/>
<path d="M84.86 6.60001H79.2V12.26H84.86V6.60001Z" fill="#19223B"/>
<path d="M84.86 0.950012H79.2V6.60001H84.86V0.950012Z" fill="#19223B"/>
<path d="M79.2 6.60001H73.54V12.26H79.2V6.60001Z" fill="#19223B"/>
<path d="M79.2 0.950012H73.54V6.60001H79.2V0.950012Z" fill="#19223B"/>
<path d="M73.54 0.950012H67.89V6.60001H73.54V0.950012Z" fill="#19223B"/>
<path d="M67.89 6.60001H62.23V12.26H67.89V6.60001Z" fill="#19223B"/>
<path d="M67.89 0.950012H62.23V6.60001H67.89V0.950012Z" fill="#19223B"/>
<path d="M62.23 17.92H56.57V23.58H62.23V17.92Z" fill="#19223B"/>
<path d="M62.23 12.26H56.57V17.92H62.23V12.26Z" fill="#19223B"/>
<path d="M62.23 6.60001H56.57V12.26H62.23V6.60001Z" fill="#19223B"/>
<path d="M62.23 0.950012H56.57V6.60001H62.23V0.950012Z" fill="#19223B"/>
<path d="M56.57 23.58H50.91V29.23H56.57V23.58Z" fill="#19223B"/>
<path d="M56.57 17.92H50.91V23.58H56.57V17.92Z" fill="#19223B"/>
<path d="M56.57 12.26H50.91V17.92H56.57V12.26Z" fill="#19223B"/>
<path d="M56.57 6.60001H50.91V12.26H56.57V6.60001Z" fill="#19223B"/>
<path d="M56.57 0.950012H50.91V6.60001H56.57V0.950012Z" fill="#19223B"/>
<path d="M50.91 23.58H45.26V29.23H50.91V23.58Z" fill="#19223B"/>
<path d="M50.91 17.92H45.26V23.58H50.91V17.92Z" fill="#19223B"/>
<path d="M50.91 12.26H45.26V17.92H50.91V12.26Z" fill="#19223B"/>
<path d="M50.91 6.60001H45.26V12.26H50.91V6.60001Z" fill="#19223B"/>
<path d="M50.91 0.950012H45.26V6.60001H50.91V0.950012Z" fill="#19223B"/>
<path d="M45.26 23.58H39.6V29.23H45.26V23.58Z" fill="#19223B"/>
<path d="M45.26 17.92H39.6V23.58H45.26V17.92Z" fill="#19223B"/>
<path d="M45.26 12.26H39.6V17.92H45.26V12.26Z" fill="#19223B"/>
<path d="M45.26 6.60001H39.6V12.26H45.26V6.60001Z" fill="#19223B"/>
<path d="M45.26 0.950012H39.6V6.60001H45.26V0.950012Z" fill="#19223B"/>
<path d="M39.6 23.58H33.94V29.23H39.6V23.58Z" fill="#19223B"/>
<path d="M39.6 17.92H33.94V23.58H39.6V17.92Z" fill="#19223B"/>
<path d="M39.6 12.26H33.94V17.92H39.6V12.26Z" fill="#19223B"/>
<path d="M39.6 6.60001H33.94V12.26H39.6V6.60001Z" fill="#19223B"/>
<path d="M39.6 0.950012H33.94V6.60001H39.6V0.950012Z" fill="#19223B"/>
<path d="M33.94 23.58H28.29V29.23H33.94V23.58Z" fill="#19223B"/>
<path d="M33.94 17.92H28.29V23.58H33.94V17.92Z" fill="#19223B"/>
<path d="M33.94 12.26H28.29V17.92H33.94V12.26Z" fill="white"/>
<path d="M33.94 6.60001H28.29V12.26H33.94V6.60001Z" fill="white"/>
<path d="M33.94 0.950012H28.29V6.60001H33.94V0.950012Z" fill="#19223B"/>
<path d="M28.29 23.58H22.63V29.23H28.29V23.58Z" fill="#19223B"/>
<path d="M28.29 17.92H22.63V23.58H28.29V17.92Z" fill="#19223B"/>
<path d="M28.29 12.26H22.63V17.92H28.29V12.26Z" fill="white"/>
<path d="M28.29 6.60001H22.63V12.26H28.29V6.60001Z" fill="white"/>
<path d="M28.29 0.950012H22.63V6.60001H28.29V0.950012Z" fill="#19223B"/>
<path d="M22.63 17.92H16.97V23.58H22.63V17.92Z" fill="#19223B"/>
<path d="M22.63 12.26H16.97V17.92H22.63V12.26Z" fill="#19223B"/>
<path d="M22.63 6.60001H16.97V12.26H22.63V6.60001Z" fill="white"/>
<path d="M22.63 0.950012H16.97V6.60001H22.63V0.950012Z" fill="#19223B"/>
<path d="M16.97 12.26H11.31V17.92H16.97V12.26Z" fill="#19223B"/>
<path d="M16.97 6.60001H11.31V12.26H16.97V6.60001Z" fill="#19223B"/>
<path d="M16.97 0.950012H11.31V6.60001H16.97V0.950012Z" fill="#19223B"/>
<path d="M11.31 6.60001H5.66V12.26H11.31V6.60001Z" fill="#19223B"/>
<path d="M11.31 0.950012H5.66V6.60001H11.31V0.950012Z" fill="#19223B"/>
<path d="M5.66 0.950012H0V6.60001H5.66V0.950012Z" fill="#19223B"/>
</svg>
