<svg viewBox="0 0 22 22" xmlns="http://www.w3.org/2000/svg">
<path d="M11 -1.61555e-06C8.11346 -0.0293337 5.33338 1.08861 3.27073 3.10812C1.20809 5.12764 0.0316602 7.88349 0 10.77C0.0111224 13.0512 0.744943 15.2701 2.09606 17.1081C3.44718 18.9462 5.34607 20.3087 7.52 21C8.07 21.1 8.27 20.77 8.27 20.48C8.27 20.19 8.27 19.55 8.27 18.65C5.21 19.3 4.56 17.21 4.56 17.21C4.3563 16.5539 3.92323 15.993 3.34 15.63C2.34 14.97 3.42 14.98 3.42 14.98C3.76565 15.0262 4.09635 15.1501 4.38731 15.3423C4.67826 15.5346 4.92192 15.7902 5.1 16.09C5.41033 16.6281 5.91953 17.0229 6.51801 17.1893C7.11649 17.3558 7.75639 17.2806 8.3 16.98C8.35591 16.4324 8.60389 15.9222 9 15.54C6.56 15.27 4 14.35 4 10.22C3.97818 9.14268 4.37624 8.09911 5.11 7.31C4.77583 6.38507 4.81529 5.36631 5.22 4.47C5.22 4.47 6.15 4.18 8.22 5.57C10.0219 5.08984 11.9181 5.08984 13.72 5.57C15.82 4.18 16.72 4.47 16.72 4.47C17.1247 5.36631 17.1642 6.38507 16.83 7.31C17.5808 8.08465 18.0004 9.12121 18 10.2C18 14.34 15.42 15.25 13 15.52C13.265 15.7773 13.4697 16.0901 13.5994 16.4359C13.729 16.7817 13.7805 17.1519 13.75 17.52V20.47C13.75 20.47 13.95 21.1 14.5 20.99C16.6678 20.2944 18.5603 18.9316 19.9072 17.0961C21.2541 15.2607 21.9866 13.0466 22 10.77C21.9683 7.88349 20.7919 5.12764 18.7293 3.10812C16.6666 1.08861 13.8865 -0.0293337 11 -1.61555e-06Z" />
</svg>
