<svg viewBox="0 0 18 16" xmlns="http://www.w3.org/2000/svg">
<path d="M14.7708 5.18061C14.5844 5.11646 14.3913 5.05577 14.1925 4.99837C14.2251 4.86499 14.2551 4.73334 14.2818 4.60393C14.7196 2.47894 14.4333 0.767035 13.456 0.203403C12.5188 -0.337045 10.9861 0.226459 9.4381 1.5736C9.28925 1.70314 9.13998 1.84029 8.99077 1.98403C8.89135 1.88893 8.79209 1.79702 8.69309 1.70912C7.07079 0.268669 5.44468 -0.338356 4.46825 0.226906C3.53196 0.768922 3.25468 2.37828 3.64874 4.39214C3.68679 4.58666 3.73127 4.7853 3.78157 4.98727C3.55143 5.0526 3.32925 5.12225 3.11667 5.19634C1.21469 5.85945 0 6.89871 0 7.9767C0 9.09006 1.30397 10.2068 3.28503 10.8839C3.44137 10.9373 3.60359 10.9878 3.77076 11.0358C3.7165 11.2542 3.6693 11.4683 3.62968 11.6771C3.25395 13.656 3.54737 15.2273 4.48117 15.7659C5.4457 16.3221 7.06446 15.7504 8.64071 14.3726C8.7653 14.2637 8.89033 14.1482 9.01558 14.0271C9.17793 14.1834 9.34003 14.3314 9.50126 14.4702C11.028 15.784 12.536 16.3146 13.4689 15.7745C14.4325 15.2167 14.7457 13.5287 14.3391 11.475C14.3081 11.3181 14.2719 11.1579 14.2313 10.9948C14.345 10.9612 14.4566 10.9265 14.5654 10.8904C16.6249 10.208 17.9649 9.10492 17.9649 7.9767C17.9649 6.89481 16.7111 5.84855 14.7708 5.18061ZM14.3241 10.1619C14.2258 10.1945 14.125 10.2259 14.0223 10.2564C13.795 9.53659 13.4881 8.77121 13.1126 7.98044C13.471 7.20851 13.7659 6.45292 13.9869 5.73781C14.1707 5.79099 14.3491 5.84708 14.521 5.90627C16.1834 6.47856 17.1975 7.32472 17.1975 7.9767C17.1975 8.67118 16.1023 9.57272 14.3241 10.1619ZM13.5862 11.624C13.766 12.5321 13.7917 13.3532 13.6726 13.995C13.5656 14.5718 13.3504 14.9563 13.0844 15.1103C12.5182 15.438 11.3075 15.012 10.0018 13.8884C9.85208 13.7596 9.70131 13.6221 9.55005 13.4765C10.0563 12.9229 10.5622 12.2793 11.0559 11.5645C11.9244 11.4874 12.7449 11.3614 13.489 11.1894C13.5256 11.3373 13.5582 11.4822 13.5862 11.624ZM6.12464 15.0537C5.5715 15.249 5.13095 15.2546 4.86464 15.1011C4.29797 14.7742 4.0624 13.5126 4.38374 11.8202C4.42054 11.6264 4.46435 11.4273 4.51484 11.2238C5.25077 11.3865 6.06526 11.5036 6.93581 11.5742C7.4329 12.2737 7.95343 12.9166 8.47798 13.4795C8.36338 13.5901 8.24922 13.6955 8.1357 13.7947C7.43869 14.404 6.74021 14.8362 6.12464 15.0537ZM3.53324 10.1577C2.65725 9.85828 1.93383 9.46915 1.43796 9.04452C0.992384 8.66293 0.767423 8.2841 0.767423 7.9767C0.767423 7.32254 1.7427 6.48816 3.36929 5.92104C3.56665 5.85223 3.77326 5.78738 3.98767 5.72646C4.21247 6.45772 4.50736 7.22226 4.86324 7.99538C4.50276 8.77997 4.20367 9.5567 3.97667 10.2965C3.82381 10.2526 3.67573 10.2064 3.53324 10.1577ZM4.4019 4.24476C4.06428 2.51933 4.28851 1.21772 4.85275 0.891107C5.45376 0.543162 6.78277 1.03926 8.1835 2.28301C8.27304 2.36251 8.36293 2.44572 8.45307 2.5318C7.93111 3.09226 7.41534 3.73034 6.92267 4.42565C6.07777 4.50397 5.269 4.62977 4.5254 4.79822C4.47865 4.61016 4.43723 4.4254 4.4019 4.24476ZM12.1512 6.15825C11.9734 5.8512 11.7909 5.55141 11.6049 5.25981C12.178 5.33227 12.7272 5.42846 13.243 5.54617C13.0881 6.04239 12.8951 6.56123 12.668 7.0931C12.505 6.78372 12.3327 6.47179 12.1512 6.15825ZM8.99103 3.08027C9.34501 3.46378 9.69952 3.89195 10.0482 4.35652C9.69683 4.33992 9.34111 4.33129 8.98246 4.33129C8.62719 4.33129 8.2741 4.33973 7.9249 4.35604C8.27394 3.89579 8.63151 3.46819 8.99103 3.08027ZM5.81066 6.16356C5.63309 6.47147 5.46393 6.78171 5.30353 7.09253C5.08004 6.56251 4.88885 6.04131 4.73267 5.53805C5.24524 5.42335 5.79182 5.32956 6.36137 5.25847C6.17271 5.55276 5.98871 5.85482 5.81066 6.16356ZM6.37778 10.7497C5.78933 10.684 5.23452 10.5951 4.72209 10.4835C4.88076 9.97129 5.07617 9.43896 5.30439 8.89752C5.46521 9.20812 5.63504 9.51849 5.8137 9.82707C5.99568 10.1414 6.18425 10.4494 6.37778 10.7497ZM9.01226 12.9272C8.64852 12.5348 8.2857 12.1007 7.93136 11.6337C8.27534 11.6472 8.62604 11.6541 8.98246 11.6541C9.34863 11.6541 9.71061 11.6458 10.0669 11.63C9.71707 12.1054 9.36385 12.5402 9.01226 12.9272ZM12.6753 8.86992C12.9154 9.41722 13.1178 9.94676 13.2785 10.4503C12.7577 10.5691 12.1953 10.6648 11.6027 10.7359C11.7892 10.4404 11.9733 10.1355 12.1542 9.82179C12.3372 9.50445 12.511 9.18663 12.6753 8.86992ZM11.4894 9.43838C11.2086 9.9253 10.9203 10.3901 10.6276 10.8289C10.0945 10.867 9.54379 10.8866 8.98246 10.8866C8.4234 10.8866 7.87959 10.8693 7.35593 10.8353C7.05144 10.3908 6.75687 9.92457 6.47783 9.44257C6.19954 8.96189 5.94346 8.47715 5.71137 7.99512C5.9434 7.51198 6.19886 7.02669 6.47556 6.54687C6.753 6.06577 7.04492 5.60194 7.34659 5.1602C7.88087 5.11982 8.42874 5.09874 8.98242 5.09874C9.5386 5.09874 10.0872 5.11998 10.6213 5.16072C10.9184 5.59922 11.2084 6.06164 11.4869 6.54281C11.7686 7.02937 12.0274 7.51143 12.2614 7.98422C12.0281 8.46512 11.7699 8.95204 11.4894 9.43838ZM13.0726 0.868275C13.6742 1.2152 13.9081 2.61433 13.5302 4.44903C13.5061 4.5661 13.4789 4.68534 13.4494 4.80618C12.7041 4.63421 11.8948 4.50624 11.0474 4.42674C10.5538 3.72378 10.0422 3.08472 9.52876 2.53145C9.6668 2.39864 9.80466 2.27201 9.94194 2.15252C11.2682 0.998295 12.5078 0.542586 13.0726 0.868275ZM8.98246 6.3725C9.86842 6.3725 10.5867 7.09071 10.5867 7.9767C10.5867 8.86266 9.86842 9.58091 8.98246 9.58091C8.09649 9.58091 7.37825 8.86266 7.37825 7.9767C7.37825 7.09071 8.09649 6.3725 8.98246 6.3725Z" />
</svg>
