<svg viewBox="0 0 41 39" xmlns="http://www.w3.org/2000/svg">
<path fill-rule="evenodd" clip-rule="evenodd" d="M28.7196 0.305564C28.97 0.565021 29.0613 0.939191 28.9586 1.28484L25.7484 12.0884L27.7494 11.5704C28.1361 11.4703 28.5452 11.6099 28.79 11.9254C29.0349 12.2409 29.0685 12.6719 28.8756 13.0216L21.447 26.4832C21.2266 26.8826 20.7638 27.0822 20.322 26.9684C19.8802 26.8546 19.5714 26.4562 19.5714 26V17.7877L15.3263 19.253C14.9992 19.3659 14.637 19.3017 14.3687 19.0832C14.1004 18.8648 13.964 18.5232 14.0082 18.18L15.8653 3.75691C15.9175 3.35167 16.211 3.01893 16.6065 2.91653L27.7494 0.0319146C28.0985 -0.0584521 28.4692 0.0461065 28.7196 0.305564ZM17.7626 4.68319L16.1977 16.8364L20.2452 15.4393C20.5508 15.3339 20.8886 15.3826 21.1518 15.5703C21.4151 15.7579 21.5714 16.0613 21.5714 16.3846V22.1181L26.0025 14.0885L24.5363 14.4681C24.1873 14.5585 23.8166 14.4539 23.5662 14.1944C23.3158 13.935 23.2244 13.5608 23.3272 13.2152L26.5373 2.41161L17.7626 4.68319Z" fill="black"/>
<path fill-rule="evenodd" clip-rule="evenodd" d="M40.8118 4.41602C41.0436 4.73822 41.0629 5.16702 40.8609 5.50873L21.3609 38.5087C21.181 38.8132 20.8537 39 20.5 39C20.1463 39 19.819 38.8132 19.6391 38.5087L0.139075 5.50873C-0.0610395 5.17008 -0.0440256 4.74556 0.182549 4.42401C0.409123 4.10245 0.803165 3.9436 1.18941 4.0181L16.2844 6.92987C16.8266 7.03447 17.1815 7.55889 17.0769 8.10117C16.9722 8.64346 16.4478 8.99827 15.9055 8.89367L2.99019 6.40234L20.5 36.0343L37.9796 6.45349L26.5586 8.88976C26.0185 9.00498 25.4872 8.66052 25.372 8.12039C25.2568 7.58026 25.6012 7.04899 26.1414 6.93377L39.7914 4.02201C40.1796 3.9392 40.58 4.09382 40.8118 4.41602Z" fill="black"/>
</svg>
