<svg viewBox="0 0 868 811"  xmlns="http://www.w3.org/2000/svg">
<path d="M438.9 811C437.1 811 435.6 810.6 434.3 810C433.1 810.5 431.8 810.8 430.1 810.8H429.3C428.7 810.8 428 810.9 427.1 810.9C426 810.9 423.6 810.7 421.3 809C419.7 810 417.7 810.8 415.2 810.7C411.4 810.6 408.9 808.7 407.3 806.5C405.6 807.8 403.3 808.7 400.4 808.6C398.5 808.5 394.8 807.7 392.4 803.7H392.3C389.6 805.5 386.8 805.5 385.7 805.4C384.6 805.3 383.6 805 382.7 804.7C380.8 806.7 377.8 808.9 373.4 808.4C371.9 808.2 369.8 807.7 368.1 806.2C365.7 807.7 363.2 807.7 361.5 807.5C357.5 806.9 355.2 804.4 353.9 802.7C353.5 802.4 353.1 802 352.7 801.7C351.9 801.7 351.1 801.7 350.3 801.6C349.4 801.4 347.5 801 345.6 799.5C344.4 799.7 343.1 799.8 341.6 799.5C340.4 799.3 337.3 798.4 335.1 795.3C334.6 795.3 334 795.2 333.4 795.1C333.1 795 332.8 795 332.6 794.9C331.1 795.4 329.4 795.5 327.4 795C323.5 794.1 321.4 791.6 320.2 789.4C320 789.3 319.8 789.2 319.7 789.1C315.8 792.9 311.4 792.2 309.9 791.8C305.9 795.6 301.5 794.8 300 794.4C297.4 793.7 295.6 792.2 294.5 790.6C291.9 791.4 289.7 790.9 288.7 790.6C286 789.8 281.9 787.4 281.5 780.9C280.9 780.8 280.2 780.6 279.5 780.4C277.1 779.6 275.5 778.3 274.4 776.7C270.4 779.9 266.4 779 264.5 778.3C263 777.8 261.9 777 261 776.2C257.4 778.2 254 777.4 252.4 776.7C251.8 776.4 250.9 776 250 775.3C248.7 775.2 247.6 774.8 246.8 774.5C245.5 774 242.3 772.2 241 768.1C239.8 768.1 238.4 767.8 237 767.2C235.2 766.4 233.9 765.3 233 764.1C230.9 764.7 228.4 764.8 225.6 763.5C224 762.7 222.9 761.8 222.2 761.2C221.8 761 221.5 760.7 221.2 760.5C220.3 760.4 219.5 760.2 218.5 759.8C215.2 760.8 212.5 759.7 211.1 759C210.2 758.5 209.4 758 208.9 757.7C208.8 757.6 208.6 757.5 208.5 757.4C206.8 756.5 204.6 754.7 203.7 751.7C201.9 751.7 200.3 751.1 199.3 750.6C196.3 751.2 193.8 750.1 192.5 749.4C188.1 746.8 187.3 742.8 187.5 739.3C186.4 738 185.8 736.5 185.5 735C184.2 734.8 182.8 734.3 181.4 733.4C180 732.5 178.9 731.4 178.2 730.3C177.8 730.1 177.3 729.8 176.9 729.5C175.8 728.8 175.1 728.1 174.5 727.6L174.3 727.4C172.8 726.3 171.8 725.1 171.1 723.8C169 724 166.5 723.7 164 721.9C161.7 720.3 160.5 718.1 159.9 716.3C158.3 716.1 156.6 715.5 154.9 714.3C154 713.7 153.4 713 152.8 712.3C147.9 714.2 144.3 712.1 142.8 711.1C142.7 711.1 142.6 711 142.6 711C142 710.6 141 710.1 140.1 709.3C137.7 707.3 136.6 705.1 136.4 702.9C134.1 702.4 132.5 701.2 131.8 700.6L131.5 700.3C126.6 701.6 123.2 699 122.1 698C118.4 694.6 118.3 690.7 119.2 687.3C117.5 687.6 115.4 687.6 113.3 686.8C111.6 686.6 108.9 685.9 106.6 683.6C103.1 680.1 103.3 675.7 103.8 673.3C103.2 672.6 102.7 672 102.3 671.3C97.1 672.8 93.7 670.3 92 668.4C91.2 667.5 90.6 666.6 90.2 665.7C89.5 665.2 88.7 664.6 88.1 663.8C87 662.5 84 658.3 86.7 652.4C86.5 652.2 86.3 652.1 86.1 651.9C83.6 651.7 80.9 650.8 78.7 648.1C76.9 645.8 76.3 643.5 76.4 641.4C73.8 641.3 70.6 640.4 68.2 637.1C67.9 636.7 67.6 636.2 67.4 635.8C66.2 635.1 65 634.1 64 632.7C62.4 630.4 61.9 628.2 62.1 626.2C59.8 622.7 60.3 619.3 61.5 616.6C55.9 617 53 613.6 51.9 611.8C51.1 610.6 50.7 609.3 50.5 608.2C50 607.7 49.6 607.1 49.2 606.4C48.6 605.3 48.2 604.3 47.9 603.6C47.9 603.5 47.8 603.4 47.8 603.4C47 602 46.1 599.6 46.8 596.6C42.4 596.1 40.2 593.3 39.1 591.3C38.7 590.6 38.4 589.9 38.2 589.3C38.1 589 38 588.8 37.8 588.5C35.7 584.4 36.7 580.8 38.4 578.1C37.8 577.4 37.2 576.6 36.7 575.6C36.4 575 36.2 574.4 36 573.9C33.9 573 31.8 571.5 30.5 568.5C30.4 568.2 30.2 567.9 30.1 567.6C28.9 566.7 27.8 565.3 27 563.5C25.7 560.5 26 557.9 26.9 555.7C23.2 554.5 21.5 551.7 20.7 549.7C19.9 547.6 19.8 545.7 20.2 544.1C20.1 543.9 20.1 543.7 20 543.5C19.8 543.1 19.7 542.6 19.6 542.3C18.7 541.3 17.8 540 17.2 538.1C16 534.6 17 531.6 18 529.6C16 528.5 14.2 526.6 13.3 523.5C13.2 523.3 13.2 523 13.1 522.7C11.6 521.2 10.8 519.4 10.5 518C9.7 514.9 10.3 512.4 11.5 510.4C10.5 509.3 9.7 507.8 9.3 505.8C9.1 504.8 8.9 503.1 9.3 501.2C7.1 499.9 5.2 497.8 4.6 494.3C4.3 492.4 4.1 488.5 7.5 485.2C7.5 485 7.4 484.8 7.4 484.6C7.1 482.8 7.3 481.2 7.7 479.8C7 478.7 6.5 477.3 6.3 475.6C6.2 474.9 6.2 473.9 6.3 472.7C5 471.3 4 469.5 3.7 467.1C1.8 465.1 1.2 462.7 1 461C0.8 458.9 1.1 454.5 6 451.5C3.7 450 1.1 447.4 0.900002 443.2V443C0.800002 442.3 0.5 441.1 0.5 439.8C0.5 438.5 0.700003 435.3 3.3 432.6C3.2 432 3.1 431.4 3.2 430.7V429.6V427.7C3.2 425.7 3.9 421.6 8.4 419.1C8.2 418.1 8 417.1 8.1 415.9C8.2 414.2 8.6 412.7 9.3 411.5C7.6 409.7 6.5 407.2 6.8 403.8C6.8 403.6 6.8 403.5 6.9 403.2C3.2 400.1 3.2 396.2 3.4 394.3C3.9 389.9 6.5 387.6 9.2 386.3C8.2 384.6 7.7 382.4 8.1 379.7C8.6 376.4 10.3 374.4 12.3 373C12.4 372.8 12.4 372.6 12.5 372.4C12.2 371.2 12.2 369.8 12.5 368.3C12.7 367.5 12.9 366.8 13.2 366.1C7.8 362.1 8.5 356.8 8.9 355.2C9.4 352.9 11 349.6 15.1 348.1C14.5 346.9 14.3 345.8 14.2 344.8C13.7 343.3 13.1 340.7 14 337.7C14.3 336.7 15.2 334.5 17.3 332.7C17.3 332.2 17.3 331.7 17.4 331.2C17.3 330.1 17.3 328.3 18 326.2C18.7 324.1 19.9 322.7 20.9 321.6C20.1 319.6 19.8 317.1 20.9 314.3C22 311.4 24.9 307 32.8 307.9C34.4 306.3 36.4 305.6 38.3 305.3C38.3 305.2 38.4 305.1 38.4 305C38.6 304.4 38.9 303.5 39.3 302.5C39.4 302.2 39.5 302 39.7 301.8C39.1 301.4 38.5 301 38 300.6C30.5 295 32.3 289 33.4 286.7C33.9 285.6 35.5 283 38.7 281.7C38.9 281 39.2 280.3 39.5 279.6C41.2 276.4 43.7 274.9 46.2 274.3C45.9 272.6 45.8 270.4 46.7 268.1C45.9 265.7 45.9 263 47.7 260C48.7 258.3 49.9 257.2 51.2 256.4C51.4 256.1 51.5 255.7 51.7 255.4C51.9 255.1 52.1 254.8 52.3 254.6C52.4 253 52.9 251.4 53.9 249.7C55 247.9 58 244.5 63.8 245.1C64.3 244.3 64.9 243.7 65.3 243.3L65.6 243C65.8 242.8 66 242.5 66.3 242.2C66.6 240 67.6 238.3 68.1 237.6C68.2 237.5 68.2 237.4 68.3 237.4C68.4 235.6 68.9 233.7 70.3 231.8C71.3 230.4 72.4 229.5 73.6 228.8C74 226.9 74.8 225.5 75.3 224.8C75.3 224.7 75.4 224.7 75.4 224.6C75.7 224 76.3 223 77.1 222C77.5 221.5 78.4 220.5 79.7 219.7V219.4C79.5 217.4 79.4 213.8 82.1 210.6C83.2 209.3 84.4 208.4 85.1 207.9C86.2 206.8 88 205.5 90.5 205.1C90.8 203.5 91.6 201.7 93.1 200.1C96.7 196.1 100.9 196.3 104.3 197.4C103.5 192.7 106.1 189.7 107.1 188.6C109.9 185.8 113 185.3 115.8 185.7C115.9 184.4 116.3 183 117.1 181.7C116.5 180.3 116.2 178.6 116.5 176.6C112.4 176.9 109.7 174.7 108.7 173.8C107.9 173 107.2 172.2 106.8 171.3H106.7C105.1 170.9 102.5 170 100.4 167.5C96.1 162.4 98.5 156.8 99.9 154.2C94.9 154 92.5 150.6 91.5 148.9C89.3 144.8 90.2 141.2 92 138.5C88.1 138.3 83.2 136.9 81.5 131C80.2 126.6 81.8 123.4 83.8 121.1C83.8 117.8 85.4 115.4 87.1 113.6C83.3 112.3 79.1 109.7 79.1 103.6C79 98.5 82.4 95.6 84.3 94.2C84.5 93.9 84.7 93.7 85 93.4C82 91.3 81 88.7 80.7 86.5C80.1 85 79.3 82.4 80.1 79.3C81.5 73.5 86 71.8 90 71.4C86.1 66.5 87.8 61.8 88.5 60.3C88.8 59.7 89.1 59.1 89.5 58.6C89.6 57.1 89.9 55.4 90.9 53.7C92.1 51.6 95.4 47.4 102.7 48.9C101.9 47.1 101.5 45 101.8 42.9C101.6 40.7 101.6 36.9 104.7 33.7C107 31.3 109.7 30.5 111.9 30.3C112.6 27.3 114.6 25.4 115.4 24.7C116.1 24.1 116.9 23.7 117.6 23.3C118.3 22.1 119.3 21 120.6 20.1C122.5 18.8 124.4 18.3 125.5 18.1C126.5 17.7 127.9 17.3 129.5 17.3C129.8 17.1 130.2 16.8 130.6 16.6C131.2 16.3 131.8 16 132.4 15.8C133.3 14.6 134.6 13.5 136.4 12.7C137.9 12 141 11 144.5 12.6C145.6 11.1 147.3 9.89996 149.7 9.19996C150.8 8.89996 151.9 8.69996 152.9 8.79996C155 5.89996 158 5.09996 159.2 4.89996C161.6 4.49996 163.6 4.89996 165.2 5.49996C165.5 5.39996 165.8 5.39996 166.2 5.29996H166.5C168.4 3.59996 170.5 2.99996 171.9 2.69996H172C172.9 2.39996 174.5 1.89996 176.4 1.89996C177.6 1.89996 178.6 1.99996 179.6 2.29996C180.7 1.89996 182 1.79996 183.5 1.79996C188 2.09996 190.6 4.79996 192.1 7.19996C194.2 5.59996 197 4.49996 200.7 5.39996C203 5.89996 208 7.99996 208.5 15.3C213.4 11.4 218.1 13.2 219.6 13.9C221 14.6 224.7 16.8 225.3 21.9C229.4 20.8 232.5 22.6 233.7 23.4C234.2 23.8 234.7 24.2 235.1 24.6C239.3 23.4 242.4 25.2 244.2 26.7C244.3 26.8 244.5 26.9 244.6 27C245.2 27.5 246.1 28.1 247 28.9C252.1 33.7 250.1 39.5 248 43.3C248.5 43.7 249 44.3 249.5 44.9C250.3 45.9 250.8 46.9 251.2 47.9C254.6 47.7 258.7 48.4 261.3 52.8C261.3 52.9 261.4 52.9 261.4 53C262.9 53.6 264 54.5 264.8 55.4C266 56.2 268 57.8 269.2 60.4C270.5 63.2 270.3 65.8 270 67.3C270.2 69.2 269.7 70.9 269.1 72.4C270.4 73.6 271.6 75.3 272.3 77.6C272.7 79.1 273 81.8 271.6 84.6V84.7C271.7 85.2 271.7 85.7 271.8 86.1C272.5 86.2 273 86.4 273.6 86.6C275 83.2 277.7 81.7 279.7 81C280.6 80.7 281.4 80.5 282.2 80.4C283.3 78.7 285 77.2 287.6 76.4C293.3 74.6 297.1 77.7 299.5 80.9C300.3 80.2 301.4 79.5 302.6 79C304.4 76.1 307.1 75 308.6 74.6C310.6 74.1 312.3 74.2 313.3 74.3C314.9 74.1 316.2 74.3 317.5 74.8C318.7 73.3 320.5 72.1 323 71.5C325.9 70.8 328.3 71.3 330.1 72.4C330.4 72.4 330.7 72.3 331.1 72.3C332.1 71.6 333.4 71.1 334.9 70.7C336.7 70.3 338.2 70.4 339.6 70.8C340.8 63.3 346.4 61.7 348.1 61.4C350.8 60.9 353.1 61.6 354.5 62.1C357 62.5 359 63.7 360.4 65C362.3 59.6 366.6 58.4 368.7 58.1C372.5 57.6 375.3 59.2 376.9 60.3C377.7 60.6 378.4 61 379.1 61.5H379.9C381 60.9 382.3 60.4 383.9 60.3C384.4 60.2 385.4 60.2 386.5 60.4C388.8 58.3 391.5 57.8 392.6 57.7C396.8 57.4 399.5 59.1 401.4 61.5H401.8C404.2 61.3 406.1 61.9 407.6 62.8C408.9 61.8 410.5 61 412.5 60.8C414.1 59.2 416.2 58 419.3 58C422.7 57.9 425.1 59.3 426.8 61C427.9 61.1 428.8 61.4 429.5 61.6C430.2 61.7 430.8 61.8 431.3 62C432.8 61 434.6 60.4 436.9 60.4C438.9 60.4 440.6 60.9 442 61.7C444.5 56.1 449 55.3 451.7 55.4C454.2 55.5 458.1 56.4 460.4 61C461.3 60.8 462.2 60.7 463.3 60.8C464.8 60.9 466.1 61.2 466.8 61.4C467.1 61.4 467.4 61.5 467.6 61.5C468.8 61.1 470.1 60.8 471.6 60.9C473.3 59.8 475.1 59.4 476.5 59.3C479.3 56.8 482.5 56.7 484.2 56.9C487.4 57.2 493 59.2 493.6 68.5C493.6 69 493.7 69.5 493.7 70C493.9 70 494.2 70 494.5 70.1C495 70.2 495.4 70.2 495.8 70.3C499 62.8 504.8 62.8 507.2 63.2C508.5 63.4 511.7 64.2 514 67.4C514.5 67.5 515 67.5 515.4 67.6C515.6 67.6 515.8 67.7 516 67.7C517.5 67.1 519.3 66.9 521.4 67.2C521.7 67.3 522.1 67.3 522.5 67.5C524.5 66.9 526.2 67.1 527.3 67.3C528.5 67.5 529.6 67.9 530.5 68.4C532.6 66.6 535.6 65.1 539.6 66C540.8 66.3 542.3 66.8 543.7 67.9C545.6 67.5 547.2 67.7 548.3 68C549.3 68.2 550.9 68.8 552.4 70C554.1 69.7 555.8 69.9 557 70.2C559 70.7 560.4 71.6 561.6 72.7C561.9 72.8 562.2 72.8 562.5 72.9C566.6 74 568.6 77 569.6 79.5C573.5 75.6 577.9 76.3 579.8 76.9C582.8 77.8 584.6 79.8 585.7 81.2C586.2 81.6 586.6 82 586.9 82.4C588.8 81.7 591 81.5 593.6 82.4C593.8 82.5 593.9 82.5 594.1 82.6C595.6 79.1 598.7 77.4 600.5 76.6C600.5 76.6 600.6 76.6 600.6 76.5V76.4C600.9 75.4 601.3 74.6 601.7 73.9C595.9 68.9 597.4 63.6 598.3 61.4C599.1 59.7 600.5 57.5 603.3 56.3V56.2C603.9 55.1 605.6 52.5 609 51.3V49.8C608.7 47.7 608.6 44.2 611.1 40.9C611.8 40 613.5 38.1 616.4 37.3C616.5 37.1 616.7 37 616.8 36.8C617.7 35.7 619.6 34.1 622.3 33.6C622.7 32 623.5 29.2 626.1 27C626.8 26.4 627.6 25.9 628.3 25.5C628.7 21.9 630.9 19.7 632.6 18.5C633.5 17.9 634.4 17.4 635.1 17L635.7 16.7C637 15.8 641.5 13.6 646.8 16.9C647.4 15.5 648.1 14.5 649 13.7C649.9 12.2 651.7 9.89996 654.8 8.69996C658.6 7.29996 661.8 8.29996 664.1 9.79996C664.6 9.59996 665.1 9.39996 665.6 9.29996C666.2 9.09996 667.3 8.89996 668.6 8.99996C668.8 8.79996 668.9 8.59996 669.1 8.39996C670.1 6.19996 672.6 1.99996 678.1 1.39996C679.1 1.29996 680.4 1.29997 681.7 1.59997C682.9 1.09997 684.1 0.899956 685.1 0.899956C686.4 0.799956 689.6 0.999962 692.4 3.49996C694.9 1.59996 697.7 1.59996 699.2 1.69996C701.1 1.89996 704.8 2.79996 707 6.69996C707.6 6.69996 708.3 6.79996 708.9 6.89996C709.6 6.99996 710.2 7.19996 710.8 7.39996C714.4 4.69996 718.1 5.39996 719.8 5.89996C721.1 6.29996 724.2 7.59996 725.9 11.3C727.3 12 729.6 13.5 730.9 16.5C732.8 16.2 734.8 16.6 737.1 17.8C739.5 19.1 740.8 20.9 741.6 22.8C741.7 22.8 741.7 22.9 741.8 22.9C742.8 23.5 743.5 24.2 744.1 24.8C747.4 24.6 749.9 26.1 751.1 27.1C752.9 28.6 753.9 30.3 754.4 31.4C755.5 32.8 756.1 34.4 756.4 35.8C757.3 36.3 758.2 37 759.1 38C759.7 38.7 760.9 40.2 761.5 42.4C761.9 42.8 762.2 43.2 762.6 43.6C763 44 763.3 44.5 763.5 44.9C764.8 45.6 766.1 46.7 767.2 48.2C767.7 49 768.1 49.8 768.4 50.5C768.5 50.5 768.6 50.5 768.6 50.6C771.1 50.6 777 50.9 779.8 56.5C783.3 63.5 777.9 68.6 775.4 71C775.5 71.5 775.6 72.1 775.6 72.6C777.3 73.8 778.7 75.6 779.4 78.2C780 80.6 779.8 82.7 779.1 84.5C779.1 84.6 779.2 84.8 779.2 84.9C779.6 86.8 779.4 88.5 779.2 89.4C779.6 90 779.9 90.6 780.2 91.2C782 92.1 783.8 93.3 785.1 95.3C786.4 96.5 788.3 98.5 789 101.6C789.6 102.9 790.5 105 790.3 107.8V108.4C790.3 109.2 790.4 110.2 790.2 111.4C790.1 112.7 789.4 116.2 786 118.7C785.6 120.7 784.7 122.1 783.6 123.3C785.9 126.6 785.5 129.9 784.8 132C783.4 136.5 780.2 138.3 776.9 138.9C776.7 139.2 776.5 139.4 776.3 139.7C776.3 140 776.2 140.4 776.1 140.7C777.9 143.5 778.9 147.3 776.5 151.5C776.1 152.3 775.3 153.4 774.1 154.4C773.7 155.7 773.2 156.8 772.7 157.5C771.5 159.3 770.2 160.4 768.7 161.1C768.5 162.7 767.8 164.4 766.4 166C764.6 168.2 762.3 169.2 760.9 169.7C758.9 171 755.7 172 751.6 170.4C750.8 171.7 749.9 172.5 749.3 173C748.7 173.5 748 174 747.4 174.3C748 174.8 748.6 175.5 749.1 176.4C751 176.6 753 177.4 754.9 179.2C758 182.2 758.3 185.8 758.2 187.9C758.4 188.8 758.5 189.8 758.4 190.9C760.7 190.9 763.2 191.7 765.4 194.1C766.3 195 768.2 197.5 768.2 201.1C770.9 200.9 773.8 201.7 776.2 204.6C776.9 205.4 777.6 206.5 778.1 207.8C778.8 208.4 779.4 208.9 779.8 209.4C780.4 210.1 780.9 210.8 781.2 211.3C781.3 211.5 781.4 211.7 781.6 211.8C783.5 214 784.1 216.3 784 218.5C785.5 219.1 787 220.1 788.3 221.8C789.5 223.4 790.1 225 790.4 226.6C791.1 227 791.6 227.4 792.1 227.9C793 228.5 794.5 229.5 795.8 231.2C796.6 232.3 797.1 233.3 797.4 234.3C798.9 235 800.5 236.1 801.8 237.9C804.1 241.3 803.9 244.6 803.2 247.1C809.2 246.1 812.3 249.3 813.8 251.6C815.3 254 815.5 256.3 815.5 257.9C815.6 258.1 815.6 258.3 815.7 258.4C816.1 259.2 816.4 260 816.6 260.8C818.2 261.6 819.7 262.9 820.9 265C821.8 266.5 823.1 269.8 821.6 273.6C825.2 274.7 826.9 277.5 827.5 278.6C827.9 279.3 828.2 280.2 828.4 281.1C829.3 282 829.9 283 830.3 283.9C830.5 284.3 830.8 284.9 831 285.8C831.9 286.6 832.7 287.7 833.4 289.1C834.7 291.8 834.7 294.2 834 296.2C834.3 297 834.6 297.8 834.7 298.3C834.7 298.4 834.8 298.5 834.8 298.6C835.4 300.1 836.2 302.9 834.9 306.1C835.2 306.4 835.6 306.7 835.9 307.1C839.1 307.5 843.2 308.9 845 313.8C845.7 315.5 847.2 321.5 840.6 326.4C840.7 326.9 840.8 327.3 840.8 327.8C841.2 328.4 841.6 329.1 842 329.9C843.8 331 845.5 332.8 846.4 335.6C846.9 337.2 847 338.5 847 339.6C847.5 340.2 848.1 340.8 848.5 341.6C853.2 342.9 854.9 346.4 855.6 348.8C855.8 349.8 856 350.7 856 351.5C856.5 352.4 857 353.4 857.3 354.6C857.8 356.8 857.6 358.8 857.1 360.3C857.9 361.6 858.3 362.8 858.4 363.6C858.9 365.9 858.6 368 857.9 369.6C858.4 370.5 858.7 371.5 859 372.7C859.5 375.4 858.9 377.7 858.3 379.1C858.3 379.5 858.2 379.8 858.1 380.1C858.2 380.5 858.3 380.8 858.4 381.2C860.8 383.3 861.5 386 861.7 387.5C861.8 388.3 861.9 389.1 861.9 389.7C863.6 391.1 864.9 393.2 865.2 396.2C865.5 398.5 865 400.4 864.2 401.9C864.6 402.9 865 404 865.1 405.3C865.3 408.3 864.3 410.7 863.5 412.1C863.2 413 862.9 413.8 862.4 414.5C862.5 416.9 861.9 418.8 861 420.4C862.2 421.9 863.1 423.9 863.1 426.5C863.1 427.8 862.9 429 862.6 430C865.1 431.7 867.2 434.3 867.1 438.6C867.1 440.3 866.4 445.6 860.1 448.2C860.3 449.2 860.3 450 860.2 450.5C860.2 451.3 860 452.1 859.8 452.8C860.1 453.9 860.3 455.1 860.1 456.5V456.7C864.4 459.9 864.4 464.4 864.2 465.9C863.9 468.5 862.9 470.5 861.5 471.9C862.3 473.5 862.8 475.5 862.5 477.9C861.7 483.8 857.4 485.9 853.6 486.7C853.8 487.8 854.1 489.6 853.7 491.7C853.5 492.9 853.1 494 852.6 494.8C856.1 498.3 855.8 502.3 855.4 504.2C854.9 506.4 853.1 511 846.7 512.1V512.4C849 514 854.7 518.2 852.7 525.4C852.4 526.4 851.8 527.9 850.6 529.3C850.7 530.2 850.8 531 850.7 531.7C850.9 533 851 535 850.3 537.3C849.5 539.7 848.2 541.3 846.6 542.4V542.5C845.5 545.6 843.4 547.4 841.9 548.3C841.1 549.2 840.4 549.8 839.8 550.3C838.4 552 836 553.6 832.3 553.9C832.3 554.1 832.2 554.2 832.2 554.4L832.3 554.5C839.4 559.7 837.8 565.6 836.8 567.9C836.4 568.9 835.1 571.2 832.5 572.7C831.9 574 831.1 575 830.3 575.8C832.5 580 831 583.7 830.4 585C829.2 587.4 827.4 588.8 826.1 589.6C825.5 590.2 824.9 590.8 824.2 591.2C824.7 593.3 824.5 595.7 823.1 598.3C822.6 599.3 821.1 601.5 818.2 602.7C818.1 602.8 818.1 602.9 818 603.1C818 604.8 817.6 606.6 816.5 608.5C815.2 610.7 813.6 612 811.8 612.7C809.3 616.6 805.5 617.5 802.7 617.6C802.4 618 802.2 618.4 801.9 618.7C801.6 620.7 800.7 622.3 800.2 623C799.7 623.7 799.2 624.3 798.7 624.8C799.8 627.4 801 631.8 797.9 636C796.3 638.1 793 641.1 787.3 639.8C787 640.2 786.6 640.6 786.3 640.9C790.2 647.1 787.5 651.7 786 653.5C785 654.7 781.6 658.1 775.9 657C774 659.1 771.8 660 770.3 660.5C767.9 661.9 765.4 662 763.8 661.9H763.7C763.3 662.4 762.8 662.8 762.3 663.3L762.1 663.5C761.9 663.9 761.5 664.4 761.1 665C762.7 668 764.4 672.4 762 676.6C761.6 678 760.8 680.1 759 681.9C757.9 683 755.5 684.9 752 684.9C751.3 687 750.1 688.4 749.3 689.2C746 692.3 742.3 692.3 739.3 691.5C738.3 692 737.4 692.3 736.4 692.4C736.7 695.1 736.4 699.1 732.8 702.1C732.7 702.2 732.6 702.2 732.6 702.3C732.1 704 731.1 705.7 729.3 707.2C727.9 708.3 725.7 709.6 722.8 709.5C722.7 709.9 722.5 710.2 722.3 710.6C721.9 712.3 720.9 715.2 718.1 717.3C715.6 719.2 713.2 719.7 710.9 719.4C710.8 719.5 710.7 719.5 710.6 719.6C710.2 723.5 707.8 725.8 706.4 726.7C705 727.7 703.7 728.2 702.8 728.5C701.1 729.5 699.4 729.9 697.8 729.9L697.7 730C696.6 730.7 693.7 732.3 690 731.5C689.8 731.7 689.6 731.9 689.4 732C688.9 734.1 687.6 736.2 685 737.8C682.6 739.3 680.2 739.6 678.1 739.3C676.5 740.1 673.1 741.3 669.2 739.5C668 742.4 665.8 743.9 664.8 744.5C664.1 744.9 663.5 745.2 662.8 745.4C662.8 748.6 662 753.1 657.3 755.6C656.1 756.2 652.6 757.7 648.6 756C646 756.8 643.6 756.4 641.7 755.6C640.9 756.4 639.9 757.2 638.7 757.8C638.6 757.9 638.5 757.9 638.4 758C637.9 758.4 637 758.9 636 759.4C634.8 759.9 633.7 760.2 632.7 760.4C631.3 762.5 629.3 763.6 628.4 764C627.7 769.6 623.7 771.8 622.3 772.4C621.1 772.9 619.9 773.2 618.9 773.2C617.9 774.6 616.5 775.8 614.4 776.7C612 777.7 609.8 777.6 607.9 777.1C606.9 777.8 606 778.2 605.5 778.4C603.8 779 602.3 779.2 600.9 779.1C599.9 781.2 598.1 783.4 595 784.5C593.1 785.2 591.4 785.2 589.9 785C589 785.8 587.8 786.5 586.3 787C583.6 787.9 578.7 788.4 574.5 782.8C574 783.1 573.4 783.3 572.7 783.5C572.5 783.6 572.3 783.6 572.1 783.7C571.2 786.3 569.3 788.8 565.5 789.9C565.4 789.9 565.3 790 565.2 790C564.6 790.3 563.7 790.6 562.6 791C561 791.4 559.6 791.5 558.7 791.5C556.8 791.9 555.1 791.7 553.6 791.2H553.5C552.6 794.4 550.6 797.5 546 798.6C541.2 799.7 537.9 797.6 535.7 795C535 795.4 534.1 795.7 533.2 795.8C531.9 796.1 530.7 796.1 529.7 796C527.8 800.3 524.2 801.5 522.3 801.8C520.7 802.1 519.3 802 518.2 801.8C517.7 802 517 802.1 516.3 802.2C515 802.4 512.8 802.5 510.4 801.5C509.1 802.9 507.2 804.1 504.5 804.5C501.8 804.9 499.7 804.3 498 803.3C496.4 803.4 493.2 803.4 490.3 800.8C488.5 808.2 482.9 809.3 481.1 809.5C480.5 809.6 479.5 809.6 478.3 809.4C477 810 475.8 810.1 475.1 810.2C473.3 810.3 467.7 810.3 464.6 803.6C463 805.7 460.7 807.4 457 807.5C454.6 807.6 452.7 807 451.2 806.1C449.3 807.6 447.2 808.1 445.7 808.2C443.4 810.2 440.7 810.6 439.2 810.6C439 811 439 811 438.9 811ZM424.5 781.3H424.7C425.5 781.3 427.1 781.5 428.8 782.3C430.6 781.5 432.3 781.3 433.1 781.3H434.1C436.6 778.4 439.8 778 441.4 777.9C441.9 777.9 442.6 777.9 443.3 778C444.7 777.4 446 777.3 446.9 777.2C450.1 777.1 452.4 778.3 454.1 779.9C455.6 778.4 457.8 777.1 460.9 776.9H461.1C462.4 776.1 464.2 775.3 466.4 775.1C471.8 774.7 474.8 778 476.5 781H476.9C477 781 477 780.9 477.1 780.9C478.2 780 480 778.7 482.7 778.3C483.4 777.6 484.2 777 485.2 776.5C486.4 775.5 488.4 774.1 491.3 773.7C493.1 773.5 496.9 773.5 500 776.9C501.2 774.2 503.4 771.5 507.7 770.9C509.1 770.7 511.8 770.6 514.4 772.1C514.6 771.9 514.8 771.8 515 771.7C516.1 770.5 518.2 768.7 521.3 768.1C523.7 767.6 525.6 768 527.3 768.7C528.5 767.5 530.1 766.6 532.2 766.1C535 765.5 537.3 766 539.1 767C540.2 766.1 541.6 765.3 543.3 764.9C546.5 764.1 549.1 764.8 551.1 766.1C552.6 765.9 553.9 766.1 555.1 766.5C556.2 765 557.9 763.8 560.2 763.2C562.5 762.5 564.6 762.7 565.9 763C566.7 760.2 568.5 757.4 572.6 756.1C575.5 755.2 581 754.7 585.2 761.7H585.5C586.6 760 588.2 758.4 590.8 757.4C591 757.3 591.2 757.3 591.4 757.2C592.2 754.6 593.9 752.3 597.4 750.9C601 749.5 604 750.2 606.3 751.7C606.6 751.4 606.9 751.2 607.2 751C608.4 746.9 611.6 745.2 612.9 744.6C613.2 744.5 613.4 744.4 613.7 744.3C614.4 741.9 616 739.6 619.2 738.2C622.2 736.9 624.8 737.1 627 737.9C627.8 736 629.3 734 632 732.7C635.3 731.1 638.2 731.5 640.6 732.4C640.8 732.3 640.9 732.2 641.1 732.1C641.9 731.7 643.8 730.8 646.3 731C646.7 730.2 647.2 729.4 647.8 728.6C647.6 722.7 651.5 719.9 652.9 719.1C655.2 717.8 657.4 717.6 659.3 717.7C659.8 717.2 660.4 716.8 661 716.4C662.1 715.7 665.3 714.2 669.2 715.4C669.9 714.5 670.8 713.7 671.9 713C672.7 712.5 673.5 712.1 674.3 711.8C675 710.1 676.1 708.5 678.1 707.2C679.2 706.4 682.4 704.7 686.5 705.9C686.5 705.7 686.6 705.5 686.7 705.4C686.9 703.2 687.6 699.5 691.2 696.9C692.3 696.1 695.2 694.4 699.1 695.1C699.5 693.1 700.4 691.6 701.4 690.5C701.7 688.3 702.6 685.6 705.3 683.4C707.1 681.9 710.4 680.2 714.7 681.7C715.1 680.2 716 678.7 717.4 677.3C717.8 675.5 718.8 673.5 720.7 671.8C722.6 670.1 724.6 669.3 726.5 669.2C726.6 668.9 726.7 668.7 726.8 668.4C727.1 666.7 727.8 664 730.1 661.8C733.3 658.8 737 658.6 739.1 658.8C739.7 658.7 740.4 658.7 741.1 658.7C741.6 657.6 742.2 656.5 743.3 655.4C744 654.7 744.7 654.1 745.2 653.7C745.5 653.3 745.8 652.8 746.2 652.2C746.3 650.2 746.9 647.7 748.9 645.5C751.6 642.5 754.9 641.9 757.6 642.1C758 641.3 758.5 640.5 759.1 639.7C759.4 639.3 759.8 638.9 760.1 638.6C759.8 635.2 761.4 632.8 762.3 631.6C763.1 630.6 764 629.8 764.9 629.3C764.3 626.8 764.6 624 766.8 621.1C767.7 619.9 768.6 619.1 769.1 618.6C770 617.5 771.3 616.4 773.1 615.7C773.2 614.1 773.7 612.1 775.1 610.2C775.2 610 775.4 609.8 775.5 609.7C775.7 608.2 776.2 606.7 777.3 605.1C779 602.6 781 601.4 783.2 600.9C785.4 598.1 788.3 597.3 790.9 597.3C791.9 595.7 793 594.6 794.3 593.9C793.9 591.9 794.2 589.7 795.5 587.2C795.7 586.9 795.9 586.5 796.3 586C795.8 583.9 795.8 581.3 797.2 578.6C798.5 576.3 800.3 574.9 802 574C801.2 571.8 800.8 568.9 802.4 565.7C803.7 563 805.6 561.5 807.6 560.7C807.7 560.2 807.9 559.8 808.1 559.3C808.2 559.1 808.3 558.9 808.4 558.6C808.3 557.3 808.5 556.1 808.7 555.1C808.8 554.4 808.9 553.5 809.2 552.5C808.3 550.4 808 547.8 809.2 544.9C810.5 541.7 812.8 540 815.1 539.1C817.2 535.6 820.5 534.6 823.6 534.4C817.1 530.2 817.5 525 818.4 522.2C819.3 519.4 821 517.6 822.7 516.5C822.5 515.2 822.5 513.8 823 512.2C823.4 510.9 823.9 509.8 824.5 508.9C823.3 506.9 822.4 504.3 823.2 501C823.5 499.9 824 498.2 825.4 496.6C825.4 496.3 825.5 496.1 825.5 495.9C826 493.8 826.9 492.2 827.6 491.3C828 490.4 828.4 489.7 829 489.1C828 487.4 827.5 485.2 827.9 482.5C828.7 477.4 832.5 475.1 835.4 474.1C836.3 472.6 837.5 471.5 838.9 470.7C836.6 469.2 835.4 467.3 834.8 465.6C833.9 464.2 832.6 461.6 832.8 458.3C832.9 456.9 833.2 455.7 833.7 454.7C831 451.9 830.9 448.5 830.9 447.3C831.1 443.5 833.1 441 834.5 439.6C834.7 439.4 834.8 439.1 835 438.9C834.2 437.5 833.6 435.8 833.6 433.7C833.6 430.3 835.1 427.9 836.7 426.3C836.3 425.3 836 424.2 835.9 422.9C835.9 422.8 835.9 422.7 835.8 422.6C835.7 422 835.5 421.1 835.5 420C835.4 418.7 835.6 417.6 835.9 416.6C835.7 415.9 835.6 415.2 835.6 414.4C835.3 410.3 837.1 407.6 839.4 405.9C839.1 405 838.8 404.1 838.7 403C838.6 402.3 838.6 401.6 838.7 401C838.3 400.3 838 399.4 837.8 398.5C831.9 396.8 830.6 392.2 830.2 390.1C829.9 388.3 829.7 382.1 837.1 378.7C837.2 378.6 837.4 378.6 837.5 378.5C837.6 378 837.8 377.6 837.9 377.2V377.1C837.8 377 837.8 376.9 837.7 376.8H837.4C828.5 376.8 826.3 371.1 825.7 368.7C825.4 367.4 825.2 364.9 826.3 362.4C822.8 360.9 821.4 357.9 820.8 355.9C820.4 354.3 819.6 349.6 824 345.6C823 344.6 822.1 343.2 821.5 341.4C821.2 340.6 821.1 339.7 821 339C820.4 338.2 820 337.3 819.6 336.2C819.2 335.1 819 334 819 333C818.6 332.4 818.3 331.7 818 330.9C817.4 329.4 817.3 328 817.2 327.2C817 326.3 816.8 325.1 816.9 323.7C813.6 323.5 809.8 322.4 807.6 318.1C807.1 317.5 806.4 316.5 805.8 315.1C804.9 313 803.6 308.1 808.5 303.4L808.2 303.1C802.2 303.5 799.4 300 798.2 297.6C797.3 295.8 796.4 292.9 797.7 289.6C797.4 288.8 797.3 288 797.2 287.2C796.2 286.4 795.2 285.4 794.5 284C793.6 282.4 792.2 278.8 794.3 274.6C794.1 273.9 794 273.3 794 272.7C788 273.7 784.8 270.5 783.4 268.2C782.7 267 782.2 265.9 782 264.8C781.6 264.4 781.2 263.9 780.9 263.3C779 260.4 778.9 257.5 779.5 255.1C777.6 254.6 775.7 253.4 774.1 251.2C773.5 250.4 773 249.5 772.7 248.7C770.2 247.8 768.7 246.1 768.1 245.3C766.3 243 765.8 240.7 766 238.6C764.8 238 763.5 237.1 762.4 235.7C761.8 234.9 761.3 234.1 760.9 233.3C756.6 233.8 753.7 231.6 752.3 229.9C751 228.4 749.4 225.7 749.9 222.2C749.2 221.9 748.6 221.4 747.9 220.9C747.1 220.4 745.8 219.6 744.6 218.3C743.5 217.1 741.5 214.4 741.9 210.5C741.7 210.3 741.6 210 741.5 209.8C739.8 209.4 738 208.6 736.4 207C735.6 206.2 734.9 205.3 734.5 204.5C731.8 205 728.9 204.5 726.1 201.9C723.8 199.8 720.7 195.2 725 187.9C724.4 187.6 723.8 187.3 723.2 186.9C722.7 186.5 721.6 185.7 720.7 184.4L710.5 175.6L717.9 172C717.6 168.4 718.3 164.3 722.9 161.6C725.1 160.3 727.2 160.1 728.8 160.1C729.1 159.8 729.5 159.5 729.9 159.2C730.5 158.8 731.1 158.4 731.7 158.1C731.7 155.8 732.3 152.9 734.9 150.3L735.8 149.4C736 149.2 736.3 149 736.5 148.7C738 147.1 740.7 145.2 744.7 145.6C744 142.5 745.1 139.9 746.1 138.3C747.3 136.4 749.8 133.7 754.2 133.5C754.3 132.9 754.5 132.4 754.8 131.8C754.9 131.5 755 131.3 755.2 131.1C750.7 127.3 751 123 751.7 120.5C752.6 117.3 754.7 115 758 113.5C758.7 112.4 759.5 111.5 760.5 110.8C761 109.1 761.8 107.7 762.9 106.7C761.5 105.4 760.4 103.6 760 101.1C758.7 99.7 757.6 97.8 757.3 95.1C757.2 93.9 757.2 92.9 757.4 91.9C756.8 91.1 756.3 90.1 755.9 88.9C754.5 87.8 753.4 86.2 752.7 83.9C752 81.5 752.2 79.4 752.5 78.1C752.5 77 752.7 76 752.9 75C752.6 74.1 752.5 73.2 752.5 72.3C750.7 71.6 749.1 70.3 747.8 68.1C746.9 66.7 746.5 65.2 746.3 64.2C743.6 64.4 740.7 63.6 738.2 60.7C736.1 58.2 735.5 55.7 735.7 53.3C732.2 53.8 729.5 52.3 728.3 51.3C727.2 50.4 724.2 47.7 724.3 43C724.2 42.9 724.1 42.9 724 42.8C723 42.7 722 42.4 721 41.9C719.4 42.1 717.6 41.9 715.6 41.1C714.4 40.6 712.2 39.3 710.8 36.9C709.2 37 707.9 36.8 707.1 36.6C706.1 36.3 705.2 35.9 704.4 35.5C702.6 36.8 700.3 37.6 697.3 37.2C696.3 37.1 695 36.7 693.7 36.1C692.8 36.3 691.7 36.5 690.4 36.5C689.8 36.5 689.3 36.4 688.8 36.3C687.1 37.5 685.3 38 683.6 38.2C682.2 38.3 680.6 38.2 679.1 37.6C678 38.6 676.5 39.4 674.6 39.8C673.1 40.1 670.2 40.4 667.3 38.7C666.2 41.9 663.8 43.6 662 44.4C660.8 44.9 659.7 45.2 658.6 45.4C658.3 45.6 657.9 45.8 657.7 45.9C656 46.8 654.4 47.2 653 47.2C652.2 48.6 651.1 49.7 650 50.6C648.6 51.7 647.2 52.2 645.8 52.5C645.4 53.7 644.8 54.7 644.3 55.4C643.9 56.2 643.2 57.4 642.1 58.6C640.5 60.2 637.6 62.3 633.3 61.6C633.4 63.4 633.1 65.6 631.7 67.9C631.5 68.2 631.3 68.6 631 68.8C631.5 71.5 630.7 73.7 630.1 74.9C629.4 76.4 628.1 78.2 625.8 79.4C625.7 79.7 625.6 80.1 625.5 80.4C625.4 80.7 625.3 80.9 625.2 81.1C626 82.9 626.3 85 625.7 87.6C625.5 88.5 624.8 90.6 623 92.3C623.3 93.4 623.5 94.8 623.3 96.3V96.5C624 98.2 624.2 99.9 624.1 100.9C623.8 108.8 616.4 110.8 613.6 111.5H613.5C613.3 111.7 613 111.8 612.8 111.9C612.6 112 612.5 112.1 612.3 112.2L612.4 115.4L610.2 114.5C609.5 117.1 608.3 119.1 605.8 120.8L601.5 123.6L596.7 121.8C595.4 121.3 592.1 119.6 590.8 115.5C590.7 115.4 590.5 115.3 590.4 115.2C588 115.8 585.8 115.3 584.6 114.9C583.4 114.5 581.5 113.5 580 111.6C579.1 111.5 578.2 111.4 577.2 111C575 110.3 573.4 109 572.3 107.6C571.1 107.9 570 108 569.1 107.9C567.9 108.1 566 108.2 563.8 107.5C563.7 107.5 563.6 107.4 563.5 107.4C561.9 107.8 560.2 107.9 558.1 107.3C557 107 554.2 105.9 552.3 103C549.5 104.8 546.6 104.6 544.7 104.1C542.6 103.6 541 102.5 539.8 101.4C538.2 101.9 536.2 102.2 533.9 101.7C532.6 101.4 531.1 100.8 529.6 99.7C528 100 526.6 99.8 525.9 99.6C524.6 99.3 523.5 98.9 522.6 98.3C520.6 98.9 518.8 98.8 517.7 98.6C516.4 98.3 512.8 97.3 510.7 93.5C509.2 94.3 507.3 94.8 505.1 94.6C502.6 96.1 500 96 498.6 95.8C498.2 95.7 497.9 95.7 497.6 95.7C497 95.6 496.5 95.6 495.9 95.5H495.2C494.6 95.5 493.9 95.4 493.1 95.3C491.6 95.1 490.3 94.6 489.2 94C488.7 94 488.2 94 487.7 93.9C486.3 93.7 485.2 93.4 484.3 93C483.7 93 483 93 482.2 92.9C480.6 92.7 478.4 92.1 476.5 90.5C474.4 91.5 472.4 91.6 471.2 91.5C469.7 91.4 465.6 90.6 463.2 86.3C463 86.2 462.8 86.2 462.7 86.1C461.7 87.1 460.4 88 458.8 88.6C457.4 89.5 455 90.7 451.9 90.6C451.1 90.6 450.1 90.4 449.1 90.1C448.1 90.3 447.2 90.4 446.4 90.3C445.7 90.3 445 90.2 444.4 90.1C443.4 90.4 442.2 90.6 440.9 90.6C438.7 90.6 436.9 89.9 435.4 89C434.6 89.2 433.6 89.3 432.6 89.3C427.9 89.3 425.1 86.5 423.6 84.2L421.5 84.5H421.2C419.8 85.4 418.1 86.1 415.9 86.1H415.7C414.2 88.2 411.7 90.3 407.7 90.5C405.2 90.6 403.2 89.9 401.9 89.3C401.1 89.1 400.4 88.9 399.7 88.5H399.2C397.8 88.6 396.6 88.4 395.5 88.1C394 89.9 391.8 91.6 388.4 91.9C386.3 92.1 381.8 91.9 378.7 87C378.2 86.9 377.7 86.7 377.3 86.5C377.1 86.5 376.9 86.6 376.7 86.6C376.5 86.6 376.3 86.6 376.1 86.7C375.3 88.1 374.3 89.1 373.2 89.8C372 91.1 369.8 93.1 366.3 93.6C361.5 94.3 358.4 91.8 356.5 89.5C356 89.4 355.6 89.3 355.2 89.1L355 89.3C354 91.3 351.7 94.8 347 95.6C345 96 343.3 95.7 341.9 95.3C341.7 95.3 341.5 95.4 341.3 95.4C340.4 95.6 339.6 95.6 338.9 95.6C338 96.1 337.1 96.5 335.9 96.7C335.8 96.7 335.7 96.7 335.5 96.8C334.3 97.9 332.8 98.8 330.7 99.3C330.4 99.4 330.1 99.4 329.6 99.5C328.5 101 326.5 103 323.2 103.8C321.2 104.3 319.4 104.2 317.9 103.7C316.2 105.8 314 106.7 312.7 107.1C312 107.3 310.6 107.6 308.8 107.4C308.5 107.6 308.1 107.7 307.7 107.8H307.6C307 108.1 306 108.6 304.6 109C299.5 110.5 295.8 107.9 293.9 106.2C293.7 106.1 293.4 106 293.2 105.9C292.8 111.9 288.9 114.2 286.4 115.1C284.1 115.9 282 115.8 280.3 115.3C278.2 116 272.4 117 267.9 110.3C267.8 110.2 267.8 110.1 267.7 110.1C266.4 113.2 264.7 116.5 260.8 118.1L246.6 123.7L247 111.2C245.5 109 243.9 106.5 243.8 103C243.8 100.1 244.9 97.9 246.1 96.4C241.4 94.7 240 90.9 239.6 89C239.3 87.8 239.2 86.1 239.6 84.3C239 83.4 238.7 82.6 238.6 82.1C237.2 78.1 238.3 75 240.3 72.6C239 71.5 238.2 70.4 237.8 69.6C237.6 69.2 237.4 68.7 237.2 68.3C233.7 68.1 230.9 66.6 229 64C228.7 63.5 228.4 63.1 228.1 62.6C227.3 62.1 226.6 61.4 225.9 60.6C224.4 58.9 223.7 57.1 223.5 55.3C221 55.3 219 54.2 217.5 52.9C216.7 52.2 215.5 51.1 214.7 49.3C213.8 49 213 48.5 212.5 48.2C210.9 47.1 209.8 45.9 209.1 44.6C207.1 43.4 205.8 41.9 205.1 40.8C204.6 40.3 204.2 39.8 203.8 39.2C202.5 39.4 201.1 39.3 199.6 38.8C198 39.3 196.2 39.4 194.1 38.8C191.9 38.2 188.7 36.6 187.3 32.5C186.8 32.5 186.2 32.5 185.6 32.4C182.4 32 180.3 30.4 178.9 28.6H178.6C177.1 31 174.8 33 170.9 33.3C168.8 33.5 167 33.1 165.5 32.4C164.4 33.3 163 34.1 161.1 34.5C160.2 34.7 159.4 34.8 158.6 34.8C158.3 35.1 157.9 35.5 157.5 35.8C156.9 38.7 155.3 41.6 151.4 43.3C149.2 44.2 145.4 45 141.5 42L140.6 42.6C138.3 44 136.2 44.3 134.2 44C134.1 44.8 133.8 45.6 133.5 46.3C133.2 48 132.4 50.6 130 52.7C128.5 54.1 126.9 54.9 125.4 55.2C125.1 56.6 124.4 58 123.3 59.4C123.8 62.2 123.3 64.8 121.8 67.1C121.6 67.4 121.4 67.7 121.2 68.1C121 68.4 120.8 68.7 120.6 69.1C119.5 70.9 117.4 73.3 113.6 73.8C113.5 74.4 113.2 75 113 75.7C112 77.9 110.6 79.4 109.2 80.3C109.1 80.8 108.9 81.3 108.8 81.9C108.6 82.5 108.4 83 108.2 83.4C111.5 86.6 111.4 90.4 111.1 92.2C111 92.8 110.9 93.3 110.7 93.9C111.5 95.5 111.9 97.3 111.8 99.2C111.7 100.5 111.2 103.6 108.4 106.1C108.6 106.8 108.8 107.6 108.9 108.4C109.1 110.6 108.6 112.5 107.8 114C108 116.1 107.5 117.9 107.1 119.1C107 120 106.8 120.7 106.5 121.5C110.1 121.6 114.3 122.8 116.4 127.8C117.3 129.9 117.3 131.8 117.2 133.2C118.5 134.2 119.3 135.3 119.7 136.1C122.1 140.2 121.1 144 119.7 146.6C120 148.3 119.9 149.8 119.7 150.9V151.2C120.1 151.3 120.5 151.5 120.9 151.7C124.7 150.7 127.6 151.9 129.3 153.1C130.1 153.1 130.9 153.3 131.8 153.5C133.3 153.6 135.6 154 137.8 155.6C138.8 156.3 139.9 157.4 140.8 158.9C141.6 159.1 142.3 159.5 143.2 159.9C147.6 162.4 148.4 166.4 148.3 169.7L158.8 174.8L149.3 182.9C149.8 185.9 149.7 189.9 146.1 193.1C145.6 193.6 144.5 194.4 142.9 195C142.4 195.6 142 196.1 141.6 196.4C139.9 197.9 138.1 198.7 136.4 199C136 200.4 135.1 202.2 133.4 203.9C132.5 204.8 131.6 205.4 131 205.8L130.9 205.9C130.1 206.6 129.3 207.2 128.5 207.6C127.9 209.9 126.6 211.4 126 212.1L125.5 212.6C125.1 214 124.3 215.5 123 216.8C120.7 219.2 118.3 220 115.8 220C115.8 223.2 114.2 225.5 113.3 226.6C111.1 229.2 108.3 230 106.6 230.3C106.3 230.4 105.9 230.6 105.6 230.7C105.5 231.9 105.2 232.9 104.8 233.8C104.5 235.1 104 237.1 102.4 239.1C101.5 240.2 99.8 241.9 97.1 242.6C96.7 243.5 96.2 244.2 95.9 244.6C94.6 246.3 93.1 247.3 91.6 247.9C93.6 252.7 91.5 256.5 90.6 257.7C89.3 259.6 87.8 260.7 86.3 261.3C86 262.1 85.6 263 85 263.8C82.6 267.4 79.1 268.3 77 268.6C75.5 269.2 73.6 269.6 71.2 269.2C71 269.3 70.9 269.4 70.7 269.5C71.3 271.7 71.1 274.2 69.5 276.9C68.9 277.9 68.2 278.7 67.5 279.4C67.5 281 67.2 282.8 66.2 284.7C65.3 286.4 64 287.6 62.7 288.5C62.6 288.7 62.5 288.9 62.4 289C61.9 289.9 61.4 290.6 60.8 291.3C60.9 292.3 60.9 293.3 60.6 294.5C61.2 295.6 61.6 296.6 61.8 297.6C62.8 299.6 64.1 303.3 62.2 307.5C61 310 59.2 311.5 57.5 312.5V313.9C57.7 315.3 57.8 317.5 56.8 320C55.8 322.4 54.3 324 52.7 324.9C52.4 325.6 51.9 326.5 51.3 327.2C51.7 329.5 51.1 331.4 50.8 332.2C50.2 334 48.4 337.4 43.8 338.6C43.7 339.5 43.6 340.4 43.3 341.3C43 342.2 42.6 343 42.3 343.7C45.6 347.3 45 351.3 44.5 353.1C43.9 355.1 43 356.6 41.8 357.7C41.8 358.6 41.7 359.7 41.5 360.7C41 362.7 39.7 365.7 36.2 367.3C36.3 368 36.3 368.8 36.2 369.6C37.3 371.4 37.9 373.7 37.3 376.6C36.8 379.3 35.5 381.2 33.9 382.5C33.9 382.6 33.8 382.8 33.8 382.9C34 383.7 34.1 384.5 34.1 385.5C34.3 386.5 34.5 388.1 34.3 390C34 391.8 33.4 393.3 32.6 394.4C32.9 394.8 33.1 395.3 33.3 395.7C34.5 397.2 36.3 400.1 35.9 403.9C35.8 404.9 35.4 407.2 33.7 409.3C33.8 410.1 33.9 411 33.8 412C33.6 414.6 32.6 416.5 31.4 418C33.2 419.7 34.7 422.2 34.6 425.7C34.5 427.7 33.8 431.9 29.2 434.3C29.4 435 29.5 435.8 29.5 436.6C29.5 437.5 29.4 439.2 28.5 441.1C30 442.6 31 444.7 31.2 447.5V448.2C31.9 449.3 32.4 450.7 32.6 452.3C32.8 453 33.1 454.2 33.2 455.6V456.3C34.3 457.9 34.6 459.6 34.8 461C34.9 461.8 34.9 463.1 34.5 464.5C35.3 465.7 35.9 467.2 36.1 469.1C36.3 470.6 36.3 473.6 34.2 476.3C36.8 478.3 37.6 481.1 37.8 482.6C38.1 484.7 37.9 486.5 37.3 488C38.6 489.2 39.6 490.9 40 493.2C40.1 493.4 40.1 493.7 40.2 493.9C40.4 494.5 40.5 495.1 40.7 495.8C41.2 498.2 41.3 502.1 37.6 505.3C41.3 506.8 42.8 509.8 43.3 511.9C43.8 513.6 44.2 517.2 41.6 520.6C42.2 521.4 42.6 522.4 43 523.5C44.1 527 43.3 529.8 41.8 532C42.5 532.4 43.1 532.9 43.7 533.5H43.8C50.2 533.5 52.8 537.4 53.8 540C54.4 541.5 55.7 546.3 51.5 550.8C51.9 552 52 553.2 52 554.2C52.2 554.6 52.4 554.9 52.6 555.3C53.4 557.2 53.6 559 53.4 560.5C53.5 560.6 53.5 560.8 53.6 560.9C54.3 562.4 54.5 563.8 54.6 565.1C54.6 565.1 54.7 565.1 54.7 565.2C56.2 566 58.5 567.5 59.9 570.3C60.2 571 60.5 571.7 60.7 572.3C66 572.2 68.7 575.4 69.8 577.6C70.3 578.5 70.6 579.4 70.8 580.2C73.1 581.4 74.4 583.3 74.9 584.1C76.1 586.2 77.3 589.8 75 593.9C76.9 594.9 78.1 596.3 78.8 597.3L78.9 597.4C79.1 597.7 79.4 598 79.7 598.4C81.7 599 84.2 600.2 85.9 602.9C89.4 608.2 86.9 613.1 84.9 615.9C85.7 617.6 85.9 619.3 85.8 620.8C86.7 620.9 87.7 621.1 88.6 621.5C90.7 621.7 94.1 622.5 96.6 625.7C97.2 626.5 97.7 627.3 98 627.8C98.1 627.9 98.1 628 98.2 628.1C98.8 628.9 99.2 629.6 99.6 630.3C102.6 629.9 105.7 630.6 108.4 633.9C110.2 636 110.8 638.3 111 639.8C111.5 641.1 111.7 642.5 111.7 643.7C115 643.8 117.3 645.6 118.6 647C120.4 649 121.1 651.1 121.4 652.5C121.8 653.3 122.1 654.1 122.3 654.8C123.4 656.8 123.7 658.8 123.4 660.6C124.5 662.3 125 664.1 125 665.7C128.2 664.3 133.1 663.1 137.4 667.1C140.7 670.2 140.9 674.2 140.7 676.5C141.9 676.8 143.2 677.3 144.6 678.3C145.2 678.3 145.7 678.3 146.3 678.4C148.4 678.2 151.8 678.3 154.8 680.8C157 682.6 157.9 684.7 158.4 686.7C160.2 686.6 162.6 686.8 164.9 688.2C165.8 688.5 167.1 689.1 168.5 690.2C170.4 691.7 171.5 693.4 172.1 695.1C172.8 695.4 173.5 695.8 174.3 696.3C176.2 697.7 177.3 699.4 177.9 701.1C178.9 701.2 179.9 701.4 181 701.8C182.2 702 184.1 702.4 186 703.7C188.1 705.1 189.3 706.9 189.9 708.7C190.6 709 191.3 709.3 192 709.8H192.1C193.8 709.8 195.6 710.2 197.5 711.4C201.1 713.7 202.2 717.2 202.5 719.5C202.7 719.8 202.8 720.1 202.9 720.4C206.3 719.3 209.1 720.3 210.9 721.3C211.1 721.4 211.4 721.6 211.7 721.8C213.7 721.9 215.3 722.6 216.3 723.1C216.7 723.3 217 723.5 217.4 723.8C218.7 723.9 220.1 724.3 221.6 725.1C223.3 726 225.6 727.8 226.5 731C226.9 731.2 227.3 731.3 227.6 731.5C231 733.3 232.5 735.9 232.9 738.6C235.5 736.8 239 735.7 243.2 737.6C246.5 739.1 248.1 741.8 248.8 743.6C249.2 744.2 249.6 744.8 249.9 745.4C251.1 745.4 252.5 745.5 254 746C256.8 745.2 259.3 745.8 260.6 746.4C261.2 746.7 262.1 747.1 263 747.7C264.2 747.8 265.2 748.1 265.9 748.4C267.2 748.9 268.2 749.6 269 750.3C272.4 748.4 275.7 749.1 277.3 749.7C279.1 750.4 280.5 751.4 281.5 752.5C282.5 752.5 283.7 752.7 284.9 753.1C286.9 753.8 288.3 754.8 289.4 756C290.3 756 291.3 756.2 292.4 756.5C292.5 756.5 292.6 756.5 292.7 756.6C293.3 756.7 294.2 756.9 295.3 757.2C297.3 757.8 300 759.3 301.5 762.6C303.3 763.5 304.6 764.8 305.4 766.2C307.1 765.9 308.5 766 309.5 766.2C313.4 761.9 318.1 762.6 319.7 763C322.6 763.7 324.4 765.3 325.6 767.1C327.4 767.7 328.7 768.7 329.7 769.8C331.3 769.2 333.2 769 335.3 769.5C335.8 769.6 336.3 769.7 336.7 769.9C338.6 768.7 341 768 344 768.6C345.2 768.8 347.1 769.4 348.9 771C349.9 770.9 350.9 770.9 352 771.1C353.4 771.3 357.3 772.4 359.4 776.8C362.4 773.1 366.2 772.8 368.6 773.2C369.3 773.3 370.3 773.5 371.4 774C372.5 773.9 373.4 773.9 374.1 774C376.4 774.3 379.9 775.5 381.9 779.6C385.1 775.7 389.3 775.7 390.7 775.8C392.2 775.9 393.5 776.3 394.5 776.9C395.8 776.4 397.2 776.2 399 776.3C400.2 776.4 402.2 776.7 404.1 778.1C405.6 777.2 407.6 776.5 410.2 776.6C414.8 776.8 417.3 779.4 418.8 782.2C419.1 782.1 419.4 782.1 419.8 782.1C421.3 781.6 422.7 781.3 424.5 781.3ZM470.4 781.3C470.8 781.3 471.3 781.3 471.8 781.4C471.1 781.3 470.4 781.3 469.7 781.3H470.4ZM480.6 779.9C480.5 779.9 480.3 779.9 480.2 780C480.4 780 480.5 779.9 480.6 779.9ZM238.6 742.2C238.7 742.2 238.7 742.2 238.8 742.3C238.7 742.3 238.6 742.3 238.6 742.2ZM720.2 714.3C719.9 714.6 719.6 714.8 719.4 715C719.7 714.7 720 714.5 720.2 714.3ZM162.2 688.4C162.6 688.6 162.9 688.9 163.2 689.1C162.9 688.8 162.6 688.5 162.2 688.4ZM142.6 677.6C142.9 677.8 143.1 678 143.3 678.2C143 678 142.8 677.8 142.6 677.6ZM108.8 641.7C109.1 642.1 109.6 642.7 110 643.6C109.7 642.9 109.3 642.3 108.8 641.7ZM802 575.9C801.7 576.3 801.4 576.8 801.1 577.3C801.3 577 801.6 576.5 802 575.9ZM804.6 569.9C804.3 570.5 804.1 571 804 571.5C804.2 570.8 804.5 570.2 804.6 569.9ZM823.1 540.9C823.1 541 823 541.1 823 541.1C823 541 823.1 541 823.1 540.9ZM834.5 461V461.9C834.4 461.5 834.4 461.2 834.5 461ZM800.6 242.9L800.7 243C800.7 243 800.7 242.9 800.6 242.9ZM81.9 214C81.7 214.3 81.5 214.5 81.3 214.8C81.5 214.5 81.7 214.2 81.9 214ZM755.5 183.6C755.7 183.8 756 184.1 756.2 184.4C756 184.1 755.8 183.8 755.5 183.6ZM327.5 100.1C327 100.3 326.5 100.4 326.2 100.5C326.7 100.4 327.1 100.2 327.5 100.1ZM542.7 100.2C542.8 100.2 542.9 100.2 542.9 100.3C542.8 100.2 542.8 100.2 542.7 100.2ZM82 98.9C81.9 99.3 81.9 99.6 81.9 100C81.9 99.7 82 99.3 82 98.9ZM351.3 91.2C350.7 91.4 350.3 91.5 349.9 91.6C350.4 91.5 350.8 91.4 351.3 91.2ZM393.6 87.2C392.7 87.5 391.9 87.6 391.5 87.6C392.2 87.5 393 87.4 393.6 87.2ZM596.7 81.4C596.5 81.8 596.4 82.3 596.3 82.8C596.4 82.4 596.5 81.9 596.7 81.4ZM563.6 77.7C564 77.8 564.6 78 565.3 78.3C564.7 78.1 564.2 77.9 563.6 77.7ZM268.4 74.3C268.5 74.6 268.6 74.9 268.7 75.1C268.6 74.8 268.5 74.6 268.4 74.3ZM266.1 69C266.2 69.4 266.4 69.9 266.5 70.6C266.4 70.1 266.3 69.5 266.1 69ZM533 70.1C533.9 70.1 534.6 70.2 535.1 70.3C534.2 70.1 533.4 70.1 532.6 70.1H533ZM265.8 57.4C265.9 57.6 266 57.7 266 57.8C265.9 57.7 265.8 57.6 265.8 57.4ZM773.2 54.7C773.6 55.2 773.9 55.7 774.1 56.1C773.8 55.6 773.5 55.1 773.2 54.7ZM109.4 32.1C109.1 32.3 108.8 32.5 108.6 32.8C108.8 32.7 109.1 32.4 109.4 32.1ZM623.9 31L623.5 31.4C623.7 31.3 623.8 31.1 623.9 31ZM123.9 18.8C123.8 18.8 123.8 18.9 123.7 18.9C123.7 18.8 123.8 18.8 123.9 18.8Z" fill="black"/>
<path d="M308 389.8C308 420.618 321.275 450.174 344.905 471.966C368.534 493.758 400.583 506 434 506C467.417 506 499.466 493.758 523.095 471.966C546.725 450.174 560 420.618 560 389.8C560 358.982 546.725 329.426 523.095 307.634C499.466 285.842 467.417 273.6 434 273.6C400.583 273.6 368.534 285.842 344.905 307.634C321.275 329.426 308 358.982 308 389.8Z" fill="#D0D1CF"/>
<path d="M400.1 354.7C400.1 357.773 400.977 360.816 402.68 363.655C404.384 366.494 406.881 369.073 410.029 371.246C413.177 373.419 416.914 375.143 421.027 376.319C425.14 377.495 429.548 378.1 434 378.1C438.452 378.1 442.86 377.495 446.973 376.319C451.086 375.143 454.823 373.419 457.971 371.246C461.119 369.073 463.616 366.494 465.319 363.655C467.023 360.816 467.9 357.773 467.9 354.7C467.9 348.494 464.328 342.542 457.971 338.154C451.613 333.765 442.991 331.3 434 331.3C425.009 331.3 416.387 333.765 410.029 338.154C403.672 342.542 400.1 348.494 400.1 354.7Z" fill="black"/>
<path d="M207 334C207 342.089 210.645 349.847 217.134 355.567C223.623 361.287 232.424 364.5 241.6 364.5C250.776 364.5 259.577 361.287 266.066 355.567C272.555 349.847 276.2 342.089 276.2 334C276.2 325.911 272.555 318.153 266.066 312.433C259.577 306.713 250.776 303.5 241.6 303.5C232.424 303.5 223.623 306.713 217.134 312.433C210.645 318.153 207 325.911 207 334Z" fill="black"/>
<path d="M590.5 336.5C590.5 344.589 594.145 352.347 600.634 358.067C607.123 363.787 615.923 367 625.1 367C634.276 367 643.077 363.787 649.566 358.067C656.055 352.347 659.7 344.589 659.7 336.5C659.7 328.411 656.055 320.653 649.566 314.933C643.077 309.213 634.276 306 625.1 306C615.923 306 607.123 309.213 600.634 314.933C594.145 320.653 590.5 328.411 590.5 336.5Z" fill="black"/>
</svg>
