<svg class="svg-icon" style="width: 1em; height: 1em;vertical-align: middle;fill: currentColor;overflow: hidden;" viewBox="0 0 1024 1024" version="1.1" xmlns="http://www.w3.org/2000/svg"><path d="M512 733.090909a35.141818 35.141818 0 0 1-24.669091-10.24l-372.363636-372.363636a34.909091 34.909091 0 1 1 49.338182-49.338182l372.363636 372.363636a34.676364 34.676364 0 0 1 0 49.338182 35.141818 35.141818 0 0 1-24.669091 10.24z"  /><path d="M512 733.090909a35.141818 35.141818 0 0 1-24.669091-10.24 34.676364 34.676364 0 0 1 0-49.338182l372.363636-372.363636a34.909091 34.909091 0 0 1 49.338182 49.338182l-372.363636 372.363636a35.141818 35.141818 0 0 1-24.669091 10.24z"  /></svg>