<svg viewBox="0 0 26 29" xmlns="http://www.w3.org/2000/svg">
<path d="M25.021 22.161L13.469 28.666V23.598L20.667 19.655L25.021 22.161ZM25.813 21.448V7.839L21.584 10.271V19.016L25.813 21.448ZM0.901009 22.161L12.453 28.666V23.598L5.25501 19.655L0.901009 22.161ZM0.109009 21.448V7.839L4.33801 10.271V19.016L0.109009 21.448ZM0.604009 6.958L12.453 0.286003V5.187L4.80701 9.375L0.604009 6.958ZM25.318 6.958L13.469 0.286003V5.187L21.115 9.375L25.318 6.958ZM12.453 22.448L5.35401 18.557V10.854L12.453 14.937V22.448ZM13.469 22.448L20.568 18.557V10.854L13.469 14.937V22.448ZM5.83301 9.964L12.963 6.063L20.093 9.964L12.963 14.063L5.83301 9.964Z" fill="black"/>
</svg>
